M48
; DRILL file {KiCad 5.1.9-1.fc32} date Sun Mar 28 01:52:39 2021
; FORMAT={-:-/ absolute / metric / decimal}
; #@! TF.CreationDate,2021-03-28T01:52:39+02:00
; #@! TF.GenerationSoftware,Kicad,Pcbnew,5.1.9-1.fc32
; #@! TF.FileFunction,Plated,1,2,PTH
FMAT,2
METRIC
T1C0.400
T2C0.890
T3C0.900
T4C1.000
T5C1.520
T6C1.570
%
G90
G05
T1
X30.988Y-55.88
X41.91Y-55.372
X52.832Y-55.372
X63.754Y-55.372
X74.93Y-55.372
X85.598Y-55.372
X96.52Y-55.626
X137.686Y-82.912
X154.146Y-82.912
X170.452Y-82.912
X186.835Y-82.912
T2
X139.485Y-68.58
X139.485Y-75.18
X139.61Y-57.15
X139.61Y-78.2
X140.755Y-66.04
X140.755Y-72.64
X142.025Y-68.58
X142.025Y-75.18
X143.295Y-66.04
X143.295Y-72.64
X144.565Y-68.58
X144.565Y-75.18
X145.835Y-66.04
X145.835Y-72.64
X147.105Y-68.58
X147.105Y-75.18
X148.25Y-57.15
X148.25Y-78.2
X148.375Y-66.04
X148.375Y-72.64
X150.79Y-57.15
X150.79Y-78.2
X153.33Y-57.15
X153.33Y-78.2
X155.745Y-68.58
X155.745Y-75.18
X155.87Y-57.15
X155.87Y-78.2
X157.015Y-66.04
X157.015Y-72.64
X158.285Y-68.58
X158.285Y-75.18
X159.555Y-66.04
X159.555Y-72.64
X160.825Y-68.58
X160.825Y-75.18
X162.095Y-66.04
X162.095Y-72.64
X163.365Y-68.58
X163.365Y-75.18
X164.51Y-57.15
X164.51Y-78.2
X164.635Y-66.04
X164.635Y-72.64
X167.05Y-57.15
X167.05Y-78.2
X169.59Y-57.15
X169.59Y-78.2
X172.005Y-68.58
X172.005Y-75.18
X172.13Y-57.15
X172.13Y-78.2
X173.275Y-66.04
X173.275Y-72.64
X174.545Y-68.58
X174.545Y-75.18
X175.815Y-66.04
X175.815Y-72.64
X177.085Y-68.58
X177.085Y-75.18
X178.355Y-66.04
X178.355Y-72.64
X179.625Y-68.58
X179.625Y-75.18
X180.77Y-57.178
X180.77Y-78.228
X180.895Y-66.04
X180.895Y-72.64
X183.31Y-57.15
X183.31Y-78.2
X185.85Y-57.15
X185.85Y-78.2
X188.265Y-68.58
X188.265Y-75.18
X188.39Y-57.15
X188.39Y-78.2
X189.535Y-66.04
X189.535Y-72.64
X190.805Y-68.58
X190.805Y-75.18
X192.075Y-66.04
X192.075Y-72.64
X193.345Y-68.58
X193.345Y-75.18
X194.615Y-66.04
X194.615Y-72.64
X195.885Y-68.58
X195.885Y-75.18
X197.155Y-66.04
X197.155Y-72.64
X208.585Y-68.58
X208.585Y-75.18
X208.71Y-57.15
X208.71Y-78.2
X209.855Y-66.04
X209.855Y-72.64
X211.125Y-68.58
X211.125Y-75.18
X212.395Y-66.04
X212.395Y-72.64
X213.665Y-68.58
X213.665Y-75.18
X214.935Y-66.04
X214.935Y-72.64
X216.205Y-68.58
X216.205Y-75.18
X217.35Y-57.15
X217.35Y-78.2
X217.475Y-66.04
X217.475Y-72.64
X219.89Y-57.15
X219.89Y-78.2
X222.43Y-57.15
X222.43Y-78.2
X224.845Y-68.58
X224.845Y-75.18
X224.97Y-57.15
X224.97Y-78.2
X226.115Y-66.04
X226.115Y-72.64
X227.385Y-68.58
X227.385Y-75.18
X228.655Y-66.04
X228.655Y-72.64
X229.925Y-68.58
X229.925Y-75.18
X231.195Y-66.04
X231.195Y-72.64
X232.465Y-68.58
X232.465Y-75.18
X233.61Y-57.15
X233.61Y-78.2
X233.735Y-66.04
X233.735Y-72.64
X236.15Y-57.15
X236.15Y-78.2
X238.69Y-57.15
X238.69Y-78.2
X241.105Y-68.58
X241.105Y-75.18
X241.23Y-57.15
X241.23Y-78.2
X242.375Y-66.04
X242.375Y-72.64
X243.645Y-68.58
X243.645Y-75.18
X244.915Y-66.04
X244.915Y-72.64
X246.185Y-68.58
X246.185Y-75.18
X247.455Y-66.04
X247.455Y-72.64
X248.725Y-68.58
X248.725Y-75.18
X249.87Y-57.178
X249.87Y-78.228
X249.995Y-66.04
X249.995Y-72.64
X252.41Y-57.15
X252.41Y-78.2
X254.95Y-57.15
X254.95Y-78.2
X257.365Y-68.58
X257.365Y-75.18
X257.49Y-57.15
X257.49Y-78.2
X258.635Y-66.04
X258.635Y-72.64
X259.905Y-68.58
X259.905Y-75.18
X261.175Y-66.04
X261.175Y-72.64
X262.445Y-68.58
X262.445Y-75.18
X263.715Y-66.04
X263.715Y-72.64
X264.985Y-68.58
X264.985Y-75.18
X266.255Y-66.04
X266.255Y-72.64
T3
X137.07Y-57.15
X137.07Y-78.2
X197.03Y-57.15
X197.03Y-78.2
X199.57Y-57.15
X199.57Y-78.2
X206.17Y-57.15
X206.17Y-78.2
X266.13Y-57.15
X266.13Y-78.2
X268.67Y-57.15
X268.67Y-78.2
T4
X33.204Y-96.774
X35.744Y-96.774
X38.284Y-96.774
X40.824Y-96.774
X45.904Y-96.774
X46.13Y-113.14
X46.13Y-115.68
X46.13Y-124.46
X46.13Y-127.0
X48.26Y-71.12
X48.26Y-73.66
X48.444Y-96.774
X50.8Y-71.12
X50.8Y-73.66
X50.984Y-96.774
X53.34Y-71.12
X53.34Y-73.66
X53.524Y-96.774
X55.88Y-71.12
X55.88Y-73.66
X58.42Y-71.12
X58.42Y-73.66
X60.96Y-71.12
X60.96Y-73.66
X61.144Y-96.774
X63.5Y-71.12
X63.5Y-73.66
X63.684Y-96.774
X64.74Y-124.43
X64.74Y-126.97
X64.77Y-113.14
X64.77Y-115.68
X66.04Y-71.12
X66.04Y-73.66
X66.224Y-96.774
X68.764Y-96.774
X73.844Y-96.774
X76.384Y-96.774
X78.924Y-96.774
X81.464Y-96.774
X86.544Y-96.774
X86.544Y-99.314
X86.544Y-101.854
X86.544Y-104.394
X86.544Y-106.934
X86.544Y-109.474
X86.56Y-121.92
X89.1Y-121.92
X91.64Y-121.92
X94.18Y-121.92
X104.26Y-77.48
X104.26Y-80.02
X104.26Y-82.56
X104.26Y-85.1
X104.26Y-87.64
X104.26Y-90.18
X104.26Y-92.72
X104.26Y-95.26
X104.26Y-97.8
X104.26Y-100.34
X111.86Y-97.8
X111.86Y-100.34
X114.4Y-97.8
X114.4Y-100.34
X116.94Y-97.8
X116.94Y-100.34
X119.48Y-97.8
X119.48Y-100.34
X122.02Y-97.8
X122.02Y-100.34
X129.64Y-77.48
X129.64Y-80.02
X129.64Y-82.56
X129.64Y-85.1
X129.64Y-87.64
X129.64Y-90.18
X129.64Y-92.72
X129.64Y-95.26
X129.64Y-97.8
X129.64Y-100.34
X137.16Y-121.92
X139.7Y-121.92
X142.24Y-121.92
X144.78Y-121.92
X147.32Y-96.52
X147.32Y-99.06
X147.32Y-101.6
X147.32Y-104.14
X147.32Y-106.68
X147.32Y-109.22
X147.32Y-111.76
X147.32Y-114.3
X147.32Y-116.84
X154.94Y-121.92
X157.48Y-121.92
X160.02Y-121.92
X162.56Y-121.92
X165.1Y-96.52
X165.1Y-99.06
X165.1Y-101.6
X165.1Y-104.14
X165.1Y-106.68
X165.1Y-109.22
X165.1Y-111.76
X165.1Y-114.3
X165.1Y-116.84
X172.72Y-121.92
X175.26Y-121.92
X177.8Y-121.92
X180.34Y-121.92
X182.88Y-96.52
X182.88Y-99.06
X182.88Y-101.6
X182.88Y-104.14
X182.88Y-106.68
X182.88Y-109.22
X182.88Y-111.76
X182.88Y-114.3
X182.88Y-116.84
X190.5Y-121.92
X193.04Y-121.92
X195.58Y-121.92
X198.12Y-121.92
X200.66Y-96.52
X200.66Y-99.06
X200.66Y-101.6
X200.66Y-104.14
X200.66Y-106.68
X200.66Y-109.22
X200.66Y-111.76
X200.66Y-114.3
X200.66Y-116.84
X208.28Y-96.52
X208.28Y-99.06
X208.28Y-109.22
X208.28Y-111.76
X208.534Y-121.92
X210.82Y-96.52
X210.82Y-99.06
X210.82Y-109.22
X210.82Y-111.76
X211.074Y-121.92
X213.36Y-96.52
X213.36Y-99.06
X213.36Y-109.22
X213.36Y-111.76
X213.614Y-121.92
X215.9Y-96.52
X215.9Y-99.06
X215.9Y-109.22
X215.9Y-111.76
X216.154Y-121.92
X225.213Y-96.52
X225.213Y-99.06
X225.213Y-109.22
X225.213Y-111.76
X227.753Y-96.52
X227.753Y-99.06
X227.753Y-109.22
X227.753Y-111.76
X230.293Y-96.52
X230.293Y-99.06
X230.293Y-109.22
X230.293Y-111.76
X232.833Y-96.52
X232.833Y-99.06
X232.833Y-109.22
X232.833Y-111.76
X242.147Y-96.52
X242.147Y-99.06
X242.147Y-109.22
X242.147Y-111.76
X244.687Y-96.52
X244.687Y-99.06
X244.687Y-109.22
X244.687Y-111.76
X247.227Y-96.52
X247.227Y-99.06
X247.227Y-109.22
X247.227Y-111.76
X249.767Y-96.52
X249.767Y-99.06
X249.767Y-109.22
X249.767Y-111.76
X259.08Y-96.52
X259.08Y-99.06
X259.08Y-109.22
X259.08Y-111.76
X261.62Y-96.52
X261.62Y-99.06
X261.62Y-109.22
X261.62Y-111.76
X264.16Y-96.52
X264.16Y-99.06
X264.16Y-109.22
X264.16Y-111.76
X266.7Y-96.52
X266.7Y-99.06
X266.7Y-109.22
X266.7Y-111.76
T5
X22.301Y-126.746
X23.546Y-96.749
X23.546Y-101.829
X27.381Y-126.746
T6
X135.55Y-54.99
X135.55Y-73.66
X135.73Y-69.34
X201.03Y-69.34
X201.21Y-54.99
X201.21Y-73.66
X204.65Y-54.99
X204.65Y-73.66
X204.83Y-69.34
X270.13Y-69.34
X270.31Y-54.99
X270.31Y-73.66
T0
M30
