%TF.GenerationSoftware,KiCad,Pcbnew,5.1.9-1.fc32*%
%TF.CreationDate,2021-03-28T01:57:51+02:00*%
%TF.ProjectId,lightController,6c696768-7443-46f6-9e74-726f6c6c6572,rev?*%
%TF.SameCoordinates,Original*%
%TF.FileFunction,Legend,Top*%
%TF.FilePolarity,Positive*%
%FSLAX46Y46*%
G04 Gerber Fmt 4.6, Leading zero omitted, Abs format (unit mm)*
G04 Created by KiCad (PCBNEW 5.1.9-1.fc32) date 2021-03-28 01:57:51*
%MOMM*%
%LPD*%
G01*
G04 APERTURE LIST*
%ADD10C,0.300000*%
%ADD11C,0.150000*%
%ADD12C,0.400000*%
%ADD13C,0.200000*%
%ADD14C,0.120000*%
%ADD15C,0.010000*%
%ADD16C,0.100000*%
G04 APERTURE END LIST*
D10*
X49370362Y-76351391D02*
X50227505Y-76351391D01*
X49798934Y-77851391D02*
X49798934Y-76351391D01*
X50941791Y-77851391D02*
X50798934Y-77779962D01*
X50727505Y-77708534D01*
X50656077Y-77565677D01*
X50656077Y-77137105D01*
X50727505Y-76994248D01*
X50798934Y-76922820D01*
X50941791Y-76851391D01*
X51156077Y-76851391D01*
X51298934Y-76922820D01*
X51370362Y-76994248D01*
X51441791Y-77137105D01*
X51441791Y-77565677D01*
X51370362Y-77708534D01*
X51298934Y-77779962D01*
X51156077Y-77851391D01*
X50941791Y-77851391D01*
X53941791Y-77851391D02*
X53227505Y-77851391D01*
X53227505Y-76351391D01*
X54441791Y-77065677D02*
X54941791Y-77065677D01*
X55156077Y-77851391D02*
X54441791Y-77851391D01*
X54441791Y-76351391D01*
X55156077Y-76351391D01*
X55798934Y-77851391D02*
X55798934Y-76351391D01*
X56156077Y-76351391D01*
X56370362Y-76422820D01*
X56513220Y-76565677D01*
X56584648Y-76708534D01*
X56656077Y-76994248D01*
X56656077Y-77208534D01*
X56584648Y-77494248D01*
X56513220Y-77637105D01*
X56370362Y-77779962D01*
X56156077Y-77851391D01*
X55798934Y-77851391D01*
X58441791Y-77851391D02*
X58441791Y-76351391D01*
X58798934Y-76351391D01*
X59013220Y-76422820D01*
X59156077Y-76565677D01*
X59227505Y-76708534D01*
X59298934Y-76994248D01*
X59298934Y-77208534D01*
X59227505Y-77494248D01*
X59156077Y-77637105D01*
X59013220Y-77779962D01*
X58798934Y-77851391D01*
X58441791Y-77851391D01*
X59941791Y-77851391D02*
X59941791Y-76851391D01*
X59941791Y-77137105D02*
X60013220Y-76994248D01*
X60084648Y-76922820D01*
X60227505Y-76851391D01*
X60370362Y-76851391D01*
X60870362Y-77851391D02*
X60870362Y-76851391D01*
X60870362Y-76351391D02*
X60798934Y-76422820D01*
X60870362Y-76494248D01*
X60941791Y-76422820D01*
X60870362Y-76351391D01*
X60870362Y-76494248D01*
X61441791Y-76851391D02*
X61798934Y-77851391D01*
X62156077Y-76851391D01*
X63298934Y-77779962D02*
X63156077Y-77851391D01*
X62870362Y-77851391D01*
X62727505Y-77779962D01*
X62656077Y-77637105D01*
X62656077Y-77065677D01*
X62727505Y-76922820D01*
X62870362Y-76851391D01*
X63156077Y-76851391D01*
X63298934Y-76922820D01*
X63370362Y-77065677D01*
X63370362Y-77208534D01*
X62656077Y-77351391D01*
X64013220Y-77851391D02*
X64013220Y-76851391D01*
X64013220Y-77137105D02*
X64084648Y-76994248D01*
X64156077Y-76922820D01*
X64298934Y-76851391D01*
X64441791Y-76851391D01*
X64870362Y-77779962D02*
X65013220Y-77851391D01*
X65298934Y-77851391D01*
X65441791Y-77779962D01*
X65513220Y-77637105D01*
X65513220Y-77565677D01*
X65441791Y-77422820D01*
X65298934Y-77351391D01*
X65084648Y-77351391D01*
X64941791Y-77279962D01*
X64870362Y-77137105D01*
X64870362Y-77065677D01*
X64941791Y-76922820D01*
X65084648Y-76851391D01*
X65298934Y-76851391D01*
X65441791Y-76922820D01*
D11*
X32956523Y-94686380D02*
X32385095Y-94686380D01*
X32670809Y-94686380D02*
X32670809Y-93686380D01*
X32575571Y-93829238D01*
X32480333Y-93924476D01*
X32385095Y-93972095D01*
X33813666Y-93686380D02*
X33623190Y-93686380D01*
X33527952Y-93734000D01*
X33480333Y-93781619D01*
X33385095Y-93924476D01*
X33337476Y-94114952D01*
X33337476Y-94495904D01*
X33385095Y-94591142D01*
X33432714Y-94638761D01*
X33527952Y-94686380D01*
X33718428Y-94686380D01*
X33813666Y-94638761D01*
X33861285Y-94591142D01*
X33908904Y-94495904D01*
X33908904Y-94257809D01*
X33861285Y-94162571D01*
X33813666Y-94114952D01*
X33718428Y-94067333D01*
X33527952Y-94067333D01*
X33432714Y-94114952D01*
X33385095Y-94162571D01*
X33337476Y-94257809D01*
X203231761Y-114307952D02*
X203136523Y-114260333D01*
X203088904Y-114212714D01*
X203041285Y-114117476D01*
X203041285Y-114069857D01*
X203088904Y-113974619D01*
X203136523Y-113927000D01*
X203231761Y-113879380D01*
X203422238Y-113879380D01*
X203517476Y-113927000D01*
X203565095Y-113974619D01*
X203612714Y-114069857D01*
X203612714Y-114117476D01*
X203565095Y-114212714D01*
X203517476Y-114260333D01*
X203422238Y-114307952D01*
X203231761Y-114307952D01*
X203136523Y-114355571D01*
X203088904Y-114403190D01*
X203041285Y-114498428D01*
X203041285Y-114688904D01*
X203088904Y-114784142D01*
X203136523Y-114831761D01*
X203231761Y-114879380D01*
X203422238Y-114879380D01*
X203517476Y-114831761D01*
X203565095Y-114784142D01*
X203612714Y-114688904D01*
X203612714Y-114498428D01*
X203565095Y-114403190D01*
X203517476Y-114355571D01*
X203422238Y-114307952D01*
X203517476Y-104052714D02*
X203517476Y-104719380D01*
X203279380Y-103671761D02*
X203041285Y-104386047D01*
X203660333Y-104386047D01*
X202993666Y-101179380D02*
X203612714Y-101179380D01*
X203279380Y-101560333D01*
X203422238Y-101560333D01*
X203517476Y-101607952D01*
X203565095Y-101655571D01*
X203612714Y-101750809D01*
X203612714Y-101988904D01*
X203565095Y-102084142D01*
X203517476Y-102131761D01*
X203422238Y-102179380D01*
X203136523Y-102179380D01*
X203041285Y-102131761D01*
X202993666Y-102084142D01*
X203517476Y-108799380D02*
X203327000Y-108799380D01*
X203231761Y-108847000D01*
X203184142Y-108894619D01*
X203088904Y-109037476D01*
X203041285Y-109227952D01*
X203041285Y-109608904D01*
X203088904Y-109704142D01*
X203136523Y-109751761D01*
X203231761Y-109799380D01*
X203422238Y-109799380D01*
X203517476Y-109751761D01*
X203565095Y-109704142D01*
X203612714Y-109608904D01*
X203612714Y-109370809D01*
X203565095Y-109275571D01*
X203517476Y-109227952D01*
X203422238Y-109180333D01*
X203231761Y-109180333D01*
X203136523Y-109227952D01*
X203088904Y-109275571D01*
X203041285Y-109370809D01*
X203041285Y-98734619D02*
X203088904Y-98687000D01*
X203184142Y-98639380D01*
X203422238Y-98639380D01*
X203517476Y-98687000D01*
X203565095Y-98734619D01*
X203612714Y-98829857D01*
X203612714Y-98925095D01*
X203565095Y-99067952D01*
X202993666Y-99639380D01*
X203612714Y-99639380D01*
X202993666Y-111339380D02*
X203660333Y-111339380D01*
X203231761Y-112339380D01*
X203565095Y-106386380D02*
X203088904Y-106386380D01*
X203041285Y-106862571D01*
X203088904Y-106814952D01*
X203184142Y-106767333D01*
X203422238Y-106767333D01*
X203517476Y-106814952D01*
X203565095Y-106862571D01*
X203612714Y-106957809D01*
X203612714Y-107195904D01*
X203565095Y-107291142D01*
X203517476Y-107338761D01*
X203422238Y-107386380D01*
X203184142Y-107386380D01*
X203088904Y-107338761D01*
X203041285Y-107291142D01*
X203612714Y-97099380D02*
X203041285Y-97099380D01*
X203327000Y-97099380D02*
X203327000Y-96099380D01*
X203231761Y-96242238D01*
X203136523Y-96337476D01*
X203041285Y-96385095D01*
X185451761Y-114307952D02*
X185356523Y-114260333D01*
X185308904Y-114212714D01*
X185261285Y-114117476D01*
X185261285Y-114069857D01*
X185308904Y-113974619D01*
X185356523Y-113927000D01*
X185451761Y-113879380D01*
X185642238Y-113879380D01*
X185737476Y-113927000D01*
X185785095Y-113974619D01*
X185832714Y-114069857D01*
X185832714Y-114117476D01*
X185785095Y-114212714D01*
X185737476Y-114260333D01*
X185642238Y-114307952D01*
X185451761Y-114307952D01*
X185356523Y-114355571D01*
X185308904Y-114403190D01*
X185261285Y-114498428D01*
X185261285Y-114688904D01*
X185308904Y-114784142D01*
X185356523Y-114831761D01*
X185451761Y-114879380D01*
X185642238Y-114879380D01*
X185737476Y-114831761D01*
X185785095Y-114784142D01*
X185832714Y-114688904D01*
X185832714Y-114498428D01*
X185785095Y-114403190D01*
X185737476Y-114355571D01*
X185642238Y-114307952D01*
X185737476Y-108799380D02*
X185547000Y-108799380D01*
X185451761Y-108847000D01*
X185404142Y-108894619D01*
X185308904Y-109037476D01*
X185261285Y-109227952D01*
X185261285Y-109608904D01*
X185308904Y-109704142D01*
X185356523Y-109751761D01*
X185451761Y-109799380D01*
X185642238Y-109799380D01*
X185737476Y-109751761D01*
X185785095Y-109704142D01*
X185832714Y-109608904D01*
X185832714Y-109370809D01*
X185785095Y-109275571D01*
X185737476Y-109227952D01*
X185642238Y-109180333D01*
X185451761Y-109180333D01*
X185356523Y-109227952D01*
X185308904Y-109275571D01*
X185261285Y-109370809D01*
X185737476Y-104052714D02*
X185737476Y-104719380D01*
X185499380Y-103671761D02*
X185261285Y-104386047D01*
X185880333Y-104386047D01*
X185785095Y-106386380D02*
X185308904Y-106386380D01*
X185261285Y-106862571D01*
X185308904Y-106814952D01*
X185404142Y-106767333D01*
X185642238Y-106767333D01*
X185737476Y-106814952D01*
X185785095Y-106862571D01*
X185832714Y-106957809D01*
X185832714Y-107195904D01*
X185785095Y-107291142D01*
X185737476Y-107338761D01*
X185642238Y-107386380D01*
X185404142Y-107386380D01*
X185308904Y-107338761D01*
X185261285Y-107291142D01*
X185832714Y-97099380D02*
X185261285Y-97099380D01*
X185547000Y-97099380D02*
X185547000Y-96099380D01*
X185451761Y-96242238D01*
X185356523Y-96337476D01*
X185261285Y-96385095D01*
X185213666Y-101179380D02*
X185832714Y-101179380D01*
X185499380Y-101560333D01*
X185642238Y-101560333D01*
X185737476Y-101607952D01*
X185785095Y-101655571D01*
X185832714Y-101750809D01*
X185832714Y-101988904D01*
X185785095Y-102084142D01*
X185737476Y-102131761D01*
X185642238Y-102179380D01*
X185356523Y-102179380D01*
X185261285Y-102131761D01*
X185213666Y-102084142D01*
X185261285Y-98734619D02*
X185308904Y-98687000D01*
X185404142Y-98639380D01*
X185642238Y-98639380D01*
X185737476Y-98687000D01*
X185785095Y-98734619D01*
X185832714Y-98829857D01*
X185832714Y-98925095D01*
X185785095Y-99067952D01*
X185213666Y-99639380D01*
X185832714Y-99639380D01*
X185213666Y-111339380D02*
X185880333Y-111339380D01*
X185451761Y-112339380D01*
X167433666Y-100925380D02*
X168052714Y-100925380D01*
X167719380Y-101306333D01*
X167862238Y-101306333D01*
X167957476Y-101353952D01*
X168005095Y-101401571D01*
X168052714Y-101496809D01*
X168052714Y-101734904D01*
X168005095Y-101830142D01*
X167957476Y-101877761D01*
X167862238Y-101925380D01*
X167576523Y-101925380D01*
X167481285Y-101877761D01*
X167433666Y-101830142D01*
X167957476Y-103798714D02*
X167957476Y-104465380D01*
X167719380Y-103417761D02*
X167481285Y-104132047D01*
X168100333Y-104132047D01*
X167957476Y-108545380D02*
X167767000Y-108545380D01*
X167671761Y-108593000D01*
X167624142Y-108640619D01*
X167528904Y-108783476D01*
X167481285Y-108973952D01*
X167481285Y-109354904D01*
X167528904Y-109450142D01*
X167576523Y-109497761D01*
X167671761Y-109545380D01*
X167862238Y-109545380D01*
X167957476Y-109497761D01*
X168005095Y-109450142D01*
X168052714Y-109354904D01*
X168052714Y-109116809D01*
X168005095Y-109021571D01*
X167957476Y-108973952D01*
X167862238Y-108926333D01*
X167671761Y-108926333D01*
X167576523Y-108973952D01*
X167528904Y-109021571D01*
X167481285Y-109116809D01*
X168005095Y-106132380D02*
X167528904Y-106132380D01*
X167481285Y-106608571D01*
X167528904Y-106560952D01*
X167624142Y-106513333D01*
X167862238Y-106513333D01*
X167957476Y-106560952D01*
X168005095Y-106608571D01*
X168052714Y-106703809D01*
X168052714Y-106941904D01*
X168005095Y-107037142D01*
X167957476Y-107084761D01*
X167862238Y-107132380D01*
X167624142Y-107132380D01*
X167528904Y-107084761D01*
X167481285Y-107037142D01*
X167433666Y-111085380D02*
X168100333Y-111085380D01*
X167671761Y-112085380D01*
X168052714Y-96845380D02*
X167481285Y-96845380D01*
X167767000Y-96845380D02*
X167767000Y-95845380D01*
X167671761Y-95988238D01*
X167576523Y-96083476D01*
X167481285Y-96131095D01*
X167481285Y-98480619D02*
X167528904Y-98433000D01*
X167624142Y-98385380D01*
X167862238Y-98385380D01*
X167957476Y-98433000D01*
X168005095Y-98480619D01*
X168052714Y-98575857D01*
X168052714Y-98671095D01*
X168005095Y-98813952D01*
X167433666Y-99385380D01*
X168052714Y-99385380D01*
X167671761Y-114053952D02*
X167576523Y-114006333D01*
X167528904Y-113958714D01*
X167481285Y-113863476D01*
X167481285Y-113815857D01*
X167528904Y-113720619D01*
X167576523Y-113673000D01*
X167671761Y-113625380D01*
X167862238Y-113625380D01*
X167957476Y-113673000D01*
X168005095Y-113720619D01*
X168052714Y-113815857D01*
X168052714Y-113863476D01*
X168005095Y-113958714D01*
X167957476Y-114006333D01*
X167862238Y-114053952D01*
X167671761Y-114053952D01*
X167576523Y-114101571D01*
X167528904Y-114149190D01*
X167481285Y-114244428D01*
X167481285Y-114434904D01*
X167528904Y-114530142D01*
X167576523Y-114577761D01*
X167671761Y-114625380D01*
X167862238Y-114625380D01*
X167957476Y-114577761D01*
X168005095Y-114530142D01*
X168052714Y-114434904D01*
X168052714Y-114244428D01*
X168005095Y-114149190D01*
X167957476Y-114101571D01*
X167862238Y-114053952D01*
X149891761Y-114180952D02*
X149796523Y-114133333D01*
X149748904Y-114085714D01*
X149701285Y-113990476D01*
X149701285Y-113942857D01*
X149748904Y-113847619D01*
X149796523Y-113800000D01*
X149891761Y-113752380D01*
X150082238Y-113752380D01*
X150177476Y-113800000D01*
X150225095Y-113847619D01*
X150272714Y-113942857D01*
X150272714Y-113990476D01*
X150225095Y-114085714D01*
X150177476Y-114133333D01*
X150082238Y-114180952D01*
X149891761Y-114180952D01*
X149796523Y-114228571D01*
X149748904Y-114276190D01*
X149701285Y-114371428D01*
X149701285Y-114561904D01*
X149748904Y-114657142D01*
X149796523Y-114704761D01*
X149891761Y-114752380D01*
X150082238Y-114752380D01*
X150177476Y-114704761D01*
X150225095Y-114657142D01*
X150272714Y-114561904D01*
X150272714Y-114371428D01*
X150225095Y-114276190D01*
X150177476Y-114228571D01*
X150082238Y-114180952D01*
X149653666Y-111212380D02*
X150320333Y-111212380D01*
X149891761Y-112212380D01*
X150177476Y-108672380D02*
X149987000Y-108672380D01*
X149891761Y-108720000D01*
X149844142Y-108767619D01*
X149748904Y-108910476D01*
X149701285Y-109100952D01*
X149701285Y-109481904D01*
X149748904Y-109577142D01*
X149796523Y-109624761D01*
X149891761Y-109672380D01*
X150082238Y-109672380D01*
X150177476Y-109624761D01*
X150225095Y-109577142D01*
X150272714Y-109481904D01*
X150272714Y-109243809D01*
X150225095Y-109148571D01*
X150177476Y-109100952D01*
X150082238Y-109053333D01*
X149891761Y-109053333D01*
X149796523Y-109100952D01*
X149748904Y-109148571D01*
X149701285Y-109243809D01*
X150225095Y-106259380D02*
X149748904Y-106259380D01*
X149701285Y-106735571D01*
X149748904Y-106687952D01*
X149844142Y-106640333D01*
X150082238Y-106640333D01*
X150177476Y-106687952D01*
X150225095Y-106735571D01*
X150272714Y-106830809D01*
X150272714Y-107068904D01*
X150225095Y-107164142D01*
X150177476Y-107211761D01*
X150082238Y-107259380D01*
X149844142Y-107259380D01*
X149748904Y-107211761D01*
X149701285Y-107164142D01*
X150177476Y-103925714D02*
X150177476Y-104592380D01*
X149939380Y-103544761D02*
X149701285Y-104259047D01*
X150320333Y-104259047D01*
X149653666Y-101052380D02*
X150272714Y-101052380D01*
X149939380Y-101433333D01*
X150082238Y-101433333D01*
X150177476Y-101480952D01*
X150225095Y-101528571D01*
X150272714Y-101623809D01*
X150272714Y-101861904D01*
X150225095Y-101957142D01*
X150177476Y-102004761D01*
X150082238Y-102052380D01*
X149796523Y-102052380D01*
X149701285Y-102004761D01*
X149653666Y-101957142D01*
X149701285Y-98607619D02*
X149748904Y-98560000D01*
X149844142Y-98512380D01*
X150082238Y-98512380D01*
X150177476Y-98560000D01*
X150225095Y-98607619D01*
X150272714Y-98702857D01*
X150272714Y-98798095D01*
X150225095Y-98940952D01*
X149653666Y-99512380D01*
X150272714Y-99512380D01*
X150272714Y-96972380D02*
X149701285Y-96972380D01*
X149987000Y-96972380D02*
X149987000Y-95972380D01*
X149891761Y-96115238D01*
X149796523Y-96210476D01*
X149701285Y-96258095D01*
X115649523Y-95349961D02*
X115792380Y-95397580D01*
X116030476Y-95397580D01*
X116125714Y-95349961D01*
X116173333Y-95302342D01*
X116220952Y-95207104D01*
X116220952Y-95111866D01*
X116173333Y-95016628D01*
X116125714Y-94969009D01*
X116030476Y-94921390D01*
X115840000Y-94873771D01*
X115744761Y-94826152D01*
X115697142Y-94778533D01*
X115649523Y-94683295D01*
X115649523Y-94588057D01*
X115697142Y-94492819D01*
X115744761Y-94445200D01*
X115840000Y-94397580D01*
X116078095Y-94397580D01*
X116220952Y-94445200D01*
X117220952Y-95302342D02*
X117173333Y-95349961D01*
X117030476Y-95397580D01*
X116935238Y-95397580D01*
X116792380Y-95349961D01*
X116697142Y-95254723D01*
X116649523Y-95159485D01*
X116601904Y-94969009D01*
X116601904Y-94826152D01*
X116649523Y-94635676D01*
X116697142Y-94540438D01*
X116792380Y-94445200D01*
X116935238Y-94397580D01*
X117030476Y-94397580D01*
X117173333Y-94445200D01*
X117220952Y-94492819D01*
X118125714Y-95397580D02*
X117649523Y-95397580D01*
X117649523Y-94397580D01*
X115879714Y-103909761D02*
X116022571Y-103957380D01*
X116260666Y-103957380D01*
X116355904Y-103909761D01*
X116403523Y-103862142D01*
X116451142Y-103766904D01*
X116451142Y-103671666D01*
X116403523Y-103576428D01*
X116355904Y-103528809D01*
X116260666Y-103481190D01*
X116070190Y-103433571D01*
X115974952Y-103385952D01*
X115927333Y-103338333D01*
X115879714Y-103243095D01*
X115879714Y-103147857D01*
X115927333Y-103052619D01*
X115974952Y-103005000D01*
X116070190Y-102957380D01*
X116308285Y-102957380D01*
X116451142Y-103005000D01*
X116879714Y-103957380D02*
X116879714Y-102957380D01*
X117117809Y-102957380D01*
X117260666Y-103005000D01*
X117355904Y-103100238D01*
X117403523Y-103195476D01*
X117451142Y-103385952D01*
X117451142Y-103528809D01*
X117403523Y-103719285D01*
X117355904Y-103814523D01*
X117260666Y-103909761D01*
X117117809Y-103957380D01*
X116879714Y-103957380D01*
X117832095Y-103671666D02*
X118308285Y-103671666D01*
X117736857Y-103957380D02*
X118070190Y-102957380D01*
X118403523Y-103957380D01*
X110537809Y-94270580D02*
X111156857Y-94270580D01*
X110823523Y-94651533D01*
X110966380Y-94651533D01*
X111061619Y-94699152D01*
X111109238Y-94746771D01*
X111156857Y-94842009D01*
X111156857Y-95080104D01*
X111109238Y-95175342D01*
X111061619Y-95222961D01*
X110966380Y-95270580D01*
X110680666Y-95270580D01*
X110585428Y-95222961D01*
X110537809Y-95175342D01*
X111633047Y-95222961D02*
X111633047Y-95270580D01*
X111585428Y-95365819D01*
X111537809Y-95413438D01*
X111966380Y-94270580D02*
X112585428Y-94270580D01*
X112252095Y-94651533D01*
X112394952Y-94651533D01*
X112490190Y-94699152D01*
X112537809Y-94746771D01*
X112585428Y-94842009D01*
X112585428Y-95080104D01*
X112537809Y-95175342D01*
X112490190Y-95222961D01*
X112394952Y-95270580D01*
X112109238Y-95270580D01*
X112014000Y-95222961D01*
X111966380Y-95175342D01*
X112871142Y-94270580D02*
X113204476Y-95270580D01*
X113537809Y-94270580D01*
X67830723Y-127722380D02*
X67354533Y-127722380D01*
X67306914Y-128198571D01*
X67354533Y-128150952D01*
X67449771Y-128103333D01*
X67687866Y-128103333D01*
X67783104Y-128150952D01*
X67830723Y-128198571D01*
X67878342Y-128293809D01*
X67878342Y-128531904D01*
X67830723Y-128627142D01*
X67783104Y-128674761D01*
X67687866Y-128722380D01*
X67449771Y-128722380D01*
X67354533Y-128674761D01*
X67306914Y-128627142D01*
X68164057Y-127722380D02*
X68497390Y-128722380D01*
X68830723Y-127722380D01*
X100901523Y-100061780D02*
X100425333Y-100061780D01*
X100377714Y-100537971D01*
X100425333Y-100490352D01*
X100520571Y-100442733D01*
X100758666Y-100442733D01*
X100853904Y-100490352D01*
X100901523Y-100537971D01*
X100949142Y-100633209D01*
X100949142Y-100871304D01*
X100901523Y-100966542D01*
X100853904Y-101014161D01*
X100758666Y-101061780D01*
X100520571Y-101061780D01*
X100425333Y-101014161D01*
X100377714Y-100966542D01*
X101234857Y-100061780D02*
X101568190Y-101061780D01*
X101901523Y-100061780D01*
X195030132Y-126301761D02*
X194982512Y-126396999D01*
X194982512Y-126539857D01*
X195030132Y-126682714D01*
X195125370Y-126777952D01*
X195220608Y-126825571D01*
X195411084Y-126873190D01*
X195553941Y-126873190D01*
X195744417Y-126825571D01*
X195839655Y-126777952D01*
X195934893Y-126682714D01*
X195982512Y-126539857D01*
X195982512Y-126444618D01*
X195934893Y-126301761D01*
X195887274Y-126254142D01*
X195553941Y-126254142D01*
X195553941Y-126444618D01*
X195982512Y-125825571D02*
X194982512Y-125825571D01*
X195982512Y-125254142D01*
X194982512Y-125254142D01*
X195982512Y-124777952D02*
X194982512Y-124777952D01*
X194982512Y-124539857D01*
X195030132Y-124396999D01*
X195125370Y-124301761D01*
X195220608Y-124254142D01*
X195411084Y-124206523D01*
X195553941Y-124206523D01*
X195744417Y-124254142D01*
X195839655Y-124301761D01*
X195934893Y-124396999D01*
X195982512Y-124539857D01*
X195982512Y-124777952D01*
X193310227Y-126873189D02*
X193357846Y-126730332D01*
X193357846Y-126492237D01*
X193310227Y-126396999D01*
X193262608Y-126349380D01*
X193167370Y-126301761D01*
X193072132Y-126301761D01*
X192976894Y-126349380D01*
X192929275Y-126396999D01*
X192881656Y-126492237D01*
X192834037Y-126682713D01*
X192786418Y-126777951D01*
X192738799Y-126825570D01*
X192643561Y-126873189D01*
X192548323Y-126873189D01*
X192453085Y-126825570D01*
X192405466Y-126777951D01*
X192357846Y-126682713D01*
X192357846Y-126444618D01*
X192405466Y-126301761D01*
X193357846Y-125873189D02*
X192357846Y-125873189D01*
X192357846Y-125635094D01*
X192405466Y-125492237D01*
X192500704Y-125396999D01*
X192595942Y-125349380D01*
X192786418Y-125301761D01*
X192929275Y-125301761D01*
X193119751Y-125349380D01*
X193214989Y-125396999D01*
X193310227Y-125492237D01*
X193357846Y-125635094D01*
X193357846Y-125873189D01*
X193072132Y-124920808D02*
X193072132Y-124444618D01*
X193357846Y-125016046D02*
X192357846Y-124682713D01*
X193357846Y-124349380D01*
X197607180Y-126920809D02*
X197607180Y-126301761D01*
X197988133Y-126635095D01*
X197988133Y-126492238D01*
X198035752Y-126396999D01*
X198083371Y-126349380D01*
X198178609Y-126301761D01*
X198416704Y-126301761D01*
X198511942Y-126349380D01*
X198559561Y-126396999D01*
X198607180Y-126492238D01*
X198607180Y-126777952D01*
X198559561Y-126873190D01*
X198511942Y-126920809D01*
X198559561Y-125825571D02*
X198607180Y-125825571D01*
X198702419Y-125873190D01*
X198750038Y-125920809D01*
X197607180Y-125492238D02*
X197607180Y-124873190D01*
X197988133Y-125206523D01*
X197988133Y-125063666D01*
X198035752Y-124968428D01*
X198083371Y-124920809D01*
X198178609Y-124873190D01*
X198416704Y-124873190D01*
X198511942Y-124920809D01*
X198559561Y-124968428D01*
X198607180Y-125063666D01*
X198607180Y-125349380D01*
X198559561Y-125444619D01*
X198511942Y-125492238D01*
X197607180Y-124587476D02*
X198607180Y-124254142D01*
X197607180Y-123920809D01*
X190685561Y-126873190D02*
X190733180Y-126730333D01*
X190733180Y-126492237D01*
X190685561Y-126396999D01*
X190637942Y-126349380D01*
X190542704Y-126301761D01*
X190447466Y-126301761D01*
X190352228Y-126349380D01*
X190304609Y-126396999D01*
X190256990Y-126492237D01*
X190209371Y-126682714D01*
X190161752Y-126777952D01*
X190114133Y-126825571D01*
X190018895Y-126873190D01*
X189923657Y-126873190D01*
X189828419Y-126825571D01*
X189780800Y-126777952D01*
X189733180Y-126682714D01*
X189733180Y-126444618D01*
X189780800Y-126301761D01*
X190637942Y-125301761D02*
X190685561Y-125349380D01*
X190733180Y-125492237D01*
X190733180Y-125587475D01*
X190685561Y-125730333D01*
X190590323Y-125825571D01*
X190495085Y-125873190D01*
X190304609Y-125920809D01*
X190161752Y-125920809D01*
X189971276Y-125873190D01*
X189876038Y-125825571D01*
X189780800Y-125730333D01*
X189733180Y-125587475D01*
X189733180Y-125492237D01*
X189780800Y-125349380D01*
X189828419Y-125301761D01*
X190733180Y-124396999D02*
X190733180Y-124873190D01*
X189733180Y-124873190D01*
X179827180Y-126920809D02*
X179827180Y-126301761D01*
X180208133Y-126635095D01*
X180208133Y-126492238D01*
X180255752Y-126396999D01*
X180303371Y-126349380D01*
X180398609Y-126301761D01*
X180636704Y-126301761D01*
X180731942Y-126349380D01*
X180779561Y-126396999D01*
X180827180Y-126492238D01*
X180827180Y-126777952D01*
X180779561Y-126873190D01*
X180731942Y-126920809D01*
X180779561Y-125825571D02*
X180827180Y-125825571D01*
X180922419Y-125873190D01*
X180970038Y-125920809D01*
X179827180Y-125492238D02*
X179827180Y-124873190D01*
X180208133Y-125206523D01*
X180208133Y-125063666D01*
X180255752Y-124968428D01*
X180303371Y-124920809D01*
X180398609Y-124873190D01*
X180636704Y-124873190D01*
X180731942Y-124920809D01*
X180779561Y-124968428D01*
X180827180Y-125063666D01*
X180827180Y-125349380D01*
X180779561Y-125444619D01*
X180731942Y-125492238D01*
X179827180Y-124587476D02*
X180827180Y-124254142D01*
X179827180Y-123920809D01*
X175530227Y-126873189D02*
X175577846Y-126730332D01*
X175577846Y-126492237D01*
X175530227Y-126396999D01*
X175482608Y-126349380D01*
X175387370Y-126301761D01*
X175292132Y-126301761D01*
X175196894Y-126349380D01*
X175149275Y-126396999D01*
X175101656Y-126492237D01*
X175054037Y-126682713D01*
X175006418Y-126777951D01*
X174958799Y-126825570D01*
X174863561Y-126873189D01*
X174768323Y-126873189D01*
X174673085Y-126825570D01*
X174625466Y-126777951D01*
X174577846Y-126682713D01*
X174577846Y-126444618D01*
X174625466Y-126301761D01*
X175577846Y-125873189D02*
X174577846Y-125873189D01*
X174577846Y-125635094D01*
X174625466Y-125492237D01*
X174720704Y-125396999D01*
X174815942Y-125349380D01*
X175006418Y-125301761D01*
X175149275Y-125301761D01*
X175339751Y-125349380D01*
X175434989Y-125396999D01*
X175530227Y-125492237D01*
X175577846Y-125635094D01*
X175577846Y-125873189D01*
X175292132Y-124920808D02*
X175292132Y-124444618D01*
X175577846Y-125016046D02*
X174577846Y-124682713D01*
X175577846Y-124349380D01*
X177250132Y-126301761D02*
X177202512Y-126396999D01*
X177202512Y-126539857D01*
X177250132Y-126682714D01*
X177345370Y-126777952D01*
X177440608Y-126825571D01*
X177631084Y-126873190D01*
X177773941Y-126873190D01*
X177964417Y-126825571D01*
X178059655Y-126777952D01*
X178154893Y-126682714D01*
X178202512Y-126539857D01*
X178202512Y-126444618D01*
X178154893Y-126301761D01*
X178107274Y-126254142D01*
X177773941Y-126254142D01*
X177773941Y-126444618D01*
X178202512Y-125825571D02*
X177202512Y-125825571D01*
X178202512Y-125254142D01*
X177202512Y-125254142D01*
X178202512Y-124777952D02*
X177202512Y-124777952D01*
X177202512Y-124539857D01*
X177250132Y-124396999D01*
X177345370Y-124301761D01*
X177440608Y-124254142D01*
X177631084Y-124206523D01*
X177773941Y-124206523D01*
X177964417Y-124254142D01*
X178059655Y-124301761D01*
X178154893Y-124396999D01*
X178202512Y-124539857D01*
X178202512Y-124777952D01*
X172905561Y-126873190D02*
X172953180Y-126730333D01*
X172953180Y-126492237D01*
X172905561Y-126396999D01*
X172857942Y-126349380D01*
X172762704Y-126301761D01*
X172667466Y-126301761D01*
X172572228Y-126349380D01*
X172524609Y-126396999D01*
X172476990Y-126492237D01*
X172429371Y-126682714D01*
X172381752Y-126777952D01*
X172334133Y-126825571D01*
X172238895Y-126873190D01*
X172143657Y-126873190D01*
X172048419Y-126825571D01*
X172000800Y-126777952D01*
X171953180Y-126682714D01*
X171953180Y-126444618D01*
X172000800Y-126301761D01*
X172857942Y-125301761D02*
X172905561Y-125349380D01*
X172953180Y-125492237D01*
X172953180Y-125587475D01*
X172905561Y-125730333D01*
X172810323Y-125825571D01*
X172715085Y-125873190D01*
X172524609Y-125920809D01*
X172381752Y-125920809D01*
X172191276Y-125873190D01*
X172096038Y-125825571D01*
X172000800Y-125730333D01*
X171953180Y-125587475D01*
X171953180Y-125492237D01*
X172000800Y-125349380D01*
X172048419Y-125301761D01*
X172953180Y-124396999D02*
X172953180Y-124873190D01*
X171953180Y-124873190D01*
X159470132Y-126301761D02*
X159422512Y-126396999D01*
X159422512Y-126539857D01*
X159470132Y-126682714D01*
X159565370Y-126777952D01*
X159660608Y-126825571D01*
X159851084Y-126873190D01*
X159993941Y-126873190D01*
X160184417Y-126825571D01*
X160279655Y-126777952D01*
X160374893Y-126682714D01*
X160422512Y-126539857D01*
X160422512Y-126444618D01*
X160374893Y-126301761D01*
X160327274Y-126254142D01*
X159993941Y-126254142D01*
X159993941Y-126444618D01*
X160422512Y-125825571D02*
X159422512Y-125825571D01*
X160422512Y-125254142D01*
X159422512Y-125254142D01*
X160422512Y-124777952D02*
X159422512Y-124777952D01*
X159422512Y-124539857D01*
X159470132Y-124396999D01*
X159565370Y-124301761D01*
X159660608Y-124254142D01*
X159851084Y-124206523D01*
X159993941Y-124206523D01*
X160184417Y-124254142D01*
X160279655Y-124301761D01*
X160374893Y-124396999D01*
X160422512Y-124539857D01*
X160422512Y-124777952D01*
X155125561Y-126873190D02*
X155173180Y-126730333D01*
X155173180Y-126492237D01*
X155125561Y-126396999D01*
X155077942Y-126349380D01*
X154982704Y-126301761D01*
X154887466Y-126301761D01*
X154792228Y-126349380D01*
X154744609Y-126396999D01*
X154696990Y-126492237D01*
X154649371Y-126682714D01*
X154601752Y-126777952D01*
X154554133Y-126825571D01*
X154458895Y-126873190D01*
X154363657Y-126873190D01*
X154268419Y-126825571D01*
X154220800Y-126777952D01*
X154173180Y-126682714D01*
X154173180Y-126444618D01*
X154220800Y-126301761D01*
X155077942Y-125301761D02*
X155125561Y-125349380D01*
X155173180Y-125492237D01*
X155173180Y-125587475D01*
X155125561Y-125730333D01*
X155030323Y-125825571D01*
X154935085Y-125873190D01*
X154744609Y-125920809D01*
X154601752Y-125920809D01*
X154411276Y-125873190D01*
X154316038Y-125825571D01*
X154220800Y-125730333D01*
X154173180Y-125587475D01*
X154173180Y-125492237D01*
X154220800Y-125349380D01*
X154268419Y-125301761D01*
X155173180Y-124396999D02*
X155173180Y-124873190D01*
X154173180Y-124873190D01*
X157750227Y-126873189D02*
X157797846Y-126730332D01*
X157797846Y-126492237D01*
X157750227Y-126396999D01*
X157702608Y-126349380D01*
X157607370Y-126301761D01*
X157512132Y-126301761D01*
X157416894Y-126349380D01*
X157369275Y-126396999D01*
X157321656Y-126492237D01*
X157274037Y-126682713D01*
X157226418Y-126777951D01*
X157178799Y-126825570D01*
X157083561Y-126873189D01*
X156988323Y-126873189D01*
X156893085Y-126825570D01*
X156845466Y-126777951D01*
X156797846Y-126682713D01*
X156797846Y-126444618D01*
X156845466Y-126301761D01*
X157797846Y-125873189D02*
X156797846Y-125873189D01*
X156797846Y-125635094D01*
X156845466Y-125492237D01*
X156940704Y-125396999D01*
X157035942Y-125349380D01*
X157226418Y-125301761D01*
X157369275Y-125301761D01*
X157559751Y-125349380D01*
X157654989Y-125396999D01*
X157750227Y-125492237D01*
X157797846Y-125635094D01*
X157797846Y-125873189D01*
X157512132Y-124920808D02*
X157512132Y-124444618D01*
X157797846Y-125016046D02*
X156797846Y-124682713D01*
X157797846Y-124349380D01*
X162047180Y-126920809D02*
X162047180Y-126301761D01*
X162428133Y-126635095D01*
X162428133Y-126492238D01*
X162475752Y-126396999D01*
X162523371Y-126349380D01*
X162618609Y-126301761D01*
X162856704Y-126301761D01*
X162951942Y-126349380D01*
X162999561Y-126396999D01*
X163047180Y-126492238D01*
X163047180Y-126777952D01*
X162999561Y-126873190D01*
X162951942Y-126920809D01*
X162999561Y-125825571D02*
X163047180Y-125825571D01*
X163142419Y-125873190D01*
X163190038Y-125920809D01*
X162047180Y-125492238D02*
X162047180Y-124873190D01*
X162428133Y-125206523D01*
X162428133Y-125063666D01*
X162475752Y-124968428D01*
X162523371Y-124920809D01*
X162618609Y-124873190D01*
X162856704Y-124873190D01*
X162951942Y-124920809D01*
X162999561Y-124968428D01*
X163047180Y-125063666D01*
X163047180Y-125349380D01*
X162999561Y-125444619D01*
X162951942Y-125492238D01*
X162047180Y-124587476D02*
X163047180Y-124254142D01*
X162047180Y-123920809D01*
X137345561Y-126873190D02*
X137393180Y-126730333D01*
X137393180Y-126492237D01*
X137345561Y-126396999D01*
X137297942Y-126349380D01*
X137202704Y-126301761D01*
X137107466Y-126301761D01*
X137012228Y-126349380D01*
X136964609Y-126396999D01*
X136916990Y-126492237D01*
X136869371Y-126682714D01*
X136821752Y-126777952D01*
X136774133Y-126825571D01*
X136678895Y-126873190D01*
X136583657Y-126873190D01*
X136488419Y-126825571D01*
X136440800Y-126777952D01*
X136393180Y-126682714D01*
X136393180Y-126444618D01*
X136440800Y-126301761D01*
X137297942Y-125301761D02*
X137345561Y-125349380D01*
X137393180Y-125492237D01*
X137393180Y-125587475D01*
X137345561Y-125730333D01*
X137250323Y-125825571D01*
X137155085Y-125873190D01*
X136964609Y-125920809D01*
X136821752Y-125920809D01*
X136631276Y-125873190D01*
X136536038Y-125825571D01*
X136440800Y-125730333D01*
X136393180Y-125587475D01*
X136393180Y-125492237D01*
X136440800Y-125349380D01*
X136488419Y-125301761D01*
X137393180Y-124396999D02*
X137393180Y-124873190D01*
X136393180Y-124873190D01*
X144267180Y-126920809D02*
X144267180Y-126301761D01*
X144648133Y-126635095D01*
X144648133Y-126492238D01*
X144695752Y-126396999D01*
X144743371Y-126349380D01*
X144838609Y-126301761D01*
X145076704Y-126301761D01*
X145171942Y-126349380D01*
X145219561Y-126396999D01*
X145267180Y-126492238D01*
X145267180Y-126777952D01*
X145219561Y-126873190D01*
X145171942Y-126920809D01*
X145219561Y-125825571D02*
X145267180Y-125825571D01*
X145362419Y-125873190D01*
X145410038Y-125920809D01*
X144267180Y-125492238D02*
X144267180Y-124873190D01*
X144648133Y-125206523D01*
X144648133Y-125063666D01*
X144695752Y-124968428D01*
X144743371Y-124920809D01*
X144838609Y-124873190D01*
X145076704Y-124873190D01*
X145171942Y-124920809D01*
X145219561Y-124968428D01*
X145267180Y-125063666D01*
X145267180Y-125349380D01*
X145219561Y-125444619D01*
X145171942Y-125492238D01*
X144267180Y-124587476D02*
X145267180Y-124254142D01*
X144267180Y-123920809D01*
X139970227Y-126873189D02*
X140017846Y-126730332D01*
X140017846Y-126492237D01*
X139970227Y-126396999D01*
X139922608Y-126349380D01*
X139827370Y-126301761D01*
X139732132Y-126301761D01*
X139636894Y-126349380D01*
X139589275Y-126396999D01*
X139541656Y-126492237D01*
X139494037Y-126682713D01*
X139446418Y-126777951D01*
X139398799Y-126825570D01*
X139303561Y-126873189D01*
X139208323Y-126873189D01*
X139113085Y-126825570D01*
X139065466Y-126777951D01*
X139017846Y-126682713D01*
X139017846Y-126444618D01*
X139065466Y-126301761D01*
X140017846Y-125873189D02*
X139017846Y-125873189D01*
X139017846Y-125635094D01*
X139065466Y-125492237D01*
X139160704Y-125396999D01*
X139255942Y-125349380D01*
X139446418Y-125301761D01*
X139589275Y-125301761D01*
X139779751Y-125349380D01*
X139874989Y-125396999D01*
X139970227Y-125492237D01*
X140017846Y-125635094D01*
X140017846Y-125873189D01*
X139732132Y-124920808D02*
X139732132Y-124444618D01*
X140017846Y-125016046D02*
X139017846Y-124682713D01*
X140017846Y-124349380D01*
X141690132Y-126301761D02*
X141642512Y-126396999D01*
X141642512Y-126539857D01*
X141690132Y-126682714D01*
X141785370Y-126777952D01*
X141880608Y-126825571D01*
X142071084Y-126873190D01*
X142213941Y-126873190D01*
X142404417Y-126825571D01*
X142499655Y-126777952D01*
X142594893Y-126682714D01*
X142642512Y-126539857D01*
X142642512Y-126444618D01*
X142594893Y-126301761D01*
X142547274Y-126254142D01*
X142213941Y-126254142D01*
X142213941Y-126444618D01*
X142642512Y-125825571D02*
X141642512Y-125825571D01*
X142642512Y-125254142D01*
X141642512Y-125254142D01*
X142642512Y-124777952D02*
X141642512Y-124777952D01*
X141642512Y-124539857D01*
X141690132Y-124396999D01*
X141785370Y-124301761D01*
X141880608Y-124254142D01*
X142071084Y-124206523D01*
X142213941Y-124206523D01*
X142404417Y-124254142D01*
X142499655Y-124301761D01*
X142594893Y-124396999D01*
X142642512Y-124539857D01*
X142642512Y-124777952D01*
X86066380Y-126920428D02*
X86066380Y-126301380D01*
X86447333Y-126634714D01*
X86447333Y-126491857D01*
X86494952Y-126396618D01*
X86542571Y-126348999D01*
X86637809Y-126301380D01*
X86875904Y-126301380D01*
X86971142Y-126348999D01*
X87018761Y-126396618D01*
X87066380Y-126491857D01*
X87066380Y-126777571D01*
X87018761Y-126872809D01*
X86971142Y-126920428D01*
X87018761Y-125825190D02*
X87066380Y-125825190D01*
X87161619Y-125872809D01*
X87209238Y-125920428D01*
X86066380Y-125491857D02*
X86066380Y-124872809D01*
X86447333Y-125206142D01*
X86447333Y-125063285D01*
X86494952Y-124968047D01*
X86542571Y-124920428D01*
X86637809Y-124872809D01*
X86875904Y-124872809D01*
X86971142Y-124920428D01*
X87018761Y-124968047D01*
X87066380Y-125063285D01*
X87066380Y-125348999D01*
X87018761Y-125444238D01*
X86971142Y-125491857D01*
X86066380Y-124587095D02*
X87066380Y-124253761D01*
X86066380Y-123920428D01*
X89558761Y-126444237D02*
X89606380Y-126301380D01*
X89606380Y-126063285D01*
X89558761Y-125968047D01*
X89511142Y-125920428D01*
X89415904Y-125872809D01*
X89320666Y-125872809D01*
X89225428Y-125920428D01*
X89177809Y-125968047D01*
X89130190Y-126063285D01*
X89082571Y-126253761D01*
X89034952Y-126348999D01*
X88987333Y-126396618D01*
X88892095Y-126444237D01*
X88796857Y-126444237D01*
X88701619Y-126396618D01*
X88654000Y-126348999D01*
X88606380Y-126253761D01*
X88606380Y-126015666D01*
X88654000Y-125872809D01*
X89606380Y-125444237D02*
X88606380Y-125444237D01*
X88606380Y-125206142D01*
X88654000Y-125063285D01*
X88749238Y-124968047D01*
X88844476Y-124920428D01*
X89034952Y-124872809D01*
X89177809Y-124872809D01*
X89368285Y-124920428D01*
X89463523Y-124968047D01*
X89558761Y-125063285D01*
X89606380Y-125206142D01*
X89606380Y-125444237D01*
X89320666Y-124491856D02*
X89320666Y-124015666D01*
X89606380Y-124587094D02*
X88606380Y-124253761D01*
X89606380Y-123920428D01*
X92098761Y-126396619D02*
X92146380Y-126253762D01*
X92146380Y-126015666D01*
X92098761Y-125920428D01*
X92051142Y-125872809D01*
X91955904Y-125825190D01*
X91860666Y-125825190D01*
X91765428Y-125872809D01*
X91717809Y-125920428D01*
X91670190Y-126015666D01*
X91622571Y-126206143D01*
X91574952Y-126301381D01*
X91527333Y-126349000D01*
X91432095Y-126396619D01*
X91336857Y-126396619D01*
X91241619Y-126349000D01*
X91194000Y-126301381D01*
X91146380Y-126206143D01*
X91146380Y-125968047D01*
X91194000Y-125825190D01*
X92051142Y-124825190D02*
X92098761Y-124872809D01*
X92146380Y-125015666D01*
X92146380Y-125110904D01*
X92098761Y-125253762D01*
X92003523Y-125349000D01*
X91908285Y-125396619D01*
X91717809Y-125444238D01*
X91574952Y-125444238D01*
X91384476Y-125396619D01*
X91289238Y-125349000D01*
X91194000Y-125253762D01*
X91146380Y-125110904D01*
X91146380Y-125015666D01*
X91194000Y-124872809D01*
X91241619Y-124825190D01*
X92146380Y-123920428D02*
X92146380Y-124396619D01*
X91146380Y-124396619D01*
X93734000Y-126110904D02*
X93686380Y-126206142D01*
X93686380Y-126349000D01*
X93734000Y-126491857D01*
X93829238Y-126587095D01*
X93924476Y-126634714D01*
X94114952Y-126682333D01*
X94257809Y-126682333D01*
X94448285Y-126634714D01*
X94543523Y-126587095D01*
X94638761Y-126491857D01*
X94686380Y-126349000D01*
X94686380Y-126253761D01*
X94638761Y-126110904D01*
X94591142Y-126063285D01*
X94257809Y-126063285D01*
X94257809Y-126253761D01*
X94686380Y-125634714D02*
X93686380Y-125634714D01*
X94686380Y-125063285D01*
X93686380Y-125063285D01*
X94686380Y-124587095D02*
X93686380Y-124587095D01*
X93686380Y-124349000D01*
X93734000Y-124206142D01*
X93829238Y-124110904D01*
X93924476Y-124063285D01*
X94114952Y-124015666D01*
X94257809Y-124015666D01*
X94448285Y-124063285D01*
X94543523Y-124110904D01*
X94638761Y-124206142D01*
X94686380Y-124349000D01*
X94686380Y-124587095D01*
X111125095Y-103005000D02*
X111029857Y-102957380D01*
X110887000Y-102957380D01*
X110744142Y-103005000D01*
X110648904Y-103100238D01*
X110601285Y-103195476D01*
X110553666Y-103385952D01*
X110553666Y-103528809D01*
X110601285Y-103719285D01*
X110648904Y-103814523D01*
X110744142Y-103909761D01*
X110887000Y-103957380D01*
X110982238Y-103957380D01*
X111125095Y-103909761D01*
X111172714Y-103862142D01*
X111172714Y-103528809D01*
X110982238Y-103528809D01*
X111601285Y-103957380D02*
X111601285Y-102957380D01*
X112172714Y-103957380D01*
X112172714Y-102957380D01*
X112648904Y-103957380D02*
X112648904Y-102957380D01*
X112887000Y-102957380D01*
X113029857Y-103005000D01*
X113125095Y-103100238D01*
X113172714Y-103195476D01*
X113220333Y-103385952D01*
X113220333Y-103528809D01*
X113172714Y-103719285D01*
X113125095Y-103814523D01*
X113029857Y-103909761D01*
X112887000Y-103957380D01*
X112648904Y-103957380D01*
X100076095Y-94750000D02*
X99980857Y-94702380D01*
X99838000Y-94702380D01*
X99695142Y-94750000D01*
X99599904Y-94845238D01*
X99552285Y-94940476D01*
X99504666Y-95130952D01*
X99504666Y-95273809D01*
X99552285Y-95464285D01*
X99599904Y-95559523D01*
X99695142Y-95654761D01*
X99838000Y-95702380D01*
X99933238Y-95702380D01*
X100076095Y-95654761D01*
X100123714Y-95607142D01*
X100123714Y-95273809D01*
X99933238Y-95273809D01*
X100552285Y-95702380D02*
X100552285Y-94702380D01*
X101123714Y-95702380D01*
X101123714Y-94702380D01*
X101599904Y-95702380D02*
X101599904Y-94702380D01*
X101838000Y-94702380D01*
X101980857Y-94750000D01*
X102076095Y-94845238D01*
X102123714Y-94940476D01*
X102171333Y-95130952D01*
X102171333Y-95273809D01*
X102123714Y-95464285D01*
X102076095Y-95559523D01*
X101980857Y-95654761D01*
X101838000Y-95702380D01*
X101599904Y-95702380D01*
X89789095Y-108847000D02*
X89693857Y-108799380D01*
X89551000Y-108799380D01*
X89408142Y-108847000D01*
X89312904Y-108942238D01*
X89265285Y-109037476D01*
X89217666Y-109227952D01*
X89217666Y-109370809D01*
X89265285Y-109561285D01*
X89312904Y-109656523D01*
X89408142Y-109751761D01*
X89551000Y-109799380D01*
X89646238Y-109799380D01*
X89789095Y-109751761D01*
X89836714Y-109704142D01*
X89836714Y-109370809D01*
X89646238Y-109370809D01*
X90265285Y-109799380D02*
X90265285Y-108799380D01*
X90836714Y-109799380D01*
X90836714Y-108799380D01*
X91312904Y-109799380D02*
X91312904Y-108799380D01*
X91551000Y-108799380D01*
X91693857Y-108847000D01*
X91789095Y-108942238D01*
X91836714Y-109037476D01*
X91884333Y-109227952D01*
X91884333Y-109370809D01*
X91836714Y-109561285D01*
X91789095Y-109656523D01*
X91693857Y-109751761D01*
X91551000Y-109799380D01*
X91312904Y-109799380D01*
X89360523Y-104544761D02*
X89503380Y-104592380D01*
X89741476Y-104592380D01*
X89836714Y-104544761D01*
X89884333Y-104497142D01*
X89931952Y-104401904D01*
X89931952Y-104306666D01*
X89884333Y-104211428D01*
X89836714Y-104163809D01*
X89741476Y-104116190D01*
X89551000Y-104068571D01*
X89455761Y-104020952D01*
X89408142Y-103973333D01*
X89360523Y-103878095D01*
X89360523Y-103782857D01*
X89408142Y-103687619D01*
X89455761Y-103640000D01*
X89551000Y-103592380D01*
X89789095Y-103592380D01*
X89931952Y-103640000D01*
X90931952Y-104497142D02*
X90884333Y-104544761D01*
X90741476Y-104592380D01*
X90646238Y-104592380D01*
X90503380Y-104544761D01*
X90408142Y-104449523D01*
X90360523Y-104354285D01*
X90312904Y-104163809D01*
X90312904Y-104020952D01*
X90360523Y-103830476D01*
X90408142Y-103735238D01*
X90503380Y-103640000D01*
X90646238Y-103592380D01*
X90741476Y-103592380D01*
X90884333Y-103640000D01*
X90931952Y-103687619D01*
X91836714Y-104592380D02*
X91360523Y-104592380D01*
X91360523Y-103592380D01*
X89336714Y-102131761D02*
X89479571Y-102179380D01*
X89717666Y-102179380D01*
X89812904Y-102131761D01*
X89860523Y-102084142D01*
X89908142Y-101988904D01*
X89908142Y-101893666D01*
X89860523Y-101798428D01*
X89812904Y-101750809D01*
X89717666Y-101703190D01*
X89527190Y-101655571D01*
X89431952Y-101607952D01*
X89384333Y-101560333D01*
X89336714Y-101465095D01*
X89336714Y-101369857D01*
X89384333Y-101274619D01*
X89431952Y-101227000D01*
X89527190Y-101179380D01*
X89765285Y-101179380D01*
X89908142Y-101227000D01*
X90336714Y-102179380D02*
X90336714Y-101179380D01*
X90574809Y-101179380D01*
X90717666Y-101227000D01*
X90812904Y-101322238D01*
X90860523Y-101417476D01*
X90908142Y-101607952D01*
X90908142Y-101750809D01*
X90860523Y-101941285D01*
X90812904Y-102036523D01*
X90717666Y-102131761D01*
X90574809Y-102179380D01*
X90336714Y-102179380D01*
X91289095Y-101893666D02*
X91765285Y-101893666D01*
X91193857Y-102179380D02*
X91527190Y-101179380D01*
X91860523Y-102179380D01*
X89074809Y-98766380D02*
X89693857Y-98766380D01*
X89360523Y-99147333D01*
X89503380Y-99147333D01*
X89598619Y-99194952D01*
X89646238Y-99242571D01*
X89693857Y-99337809D01*
X89693857Y-99575904D01*
X89646238Y-99671142D01*
X89598619Y-99718761D01*
X89503380Y-99766380D01*
X89217666Y-99766380D01*
X89122428Y-99718761D01*
X89074809Y-99671142D01*
X90170047Y-99718761D02*
X90170047Y-99766380D01*
X90122428Y-99861619D01*
X90074809Y-99909238D01*
X90503380Y-98766380D02*
X91122428Y-98766380D01*
X90789095Y-99147333D01*
X90931952Y-99147333D01*
X91027190Y-99194952D01*
X91074809Y-99242571D01*
X91122428Y-99337809D01*
X91122428Y-99575904D01*
X91074809Y-99671142D01*
X91027190Y-99718761D01*
X90931952Y-99766380D01*
X90646238Y-99766380D01*
X90551000Y-99718761D01*
X90503380Y-99671142D01*
X91408142Y-98766380D02*
X91741476Y-99766380D01*
X92074809Y-98766380D01*
D10*
X20939476Y-107230161D02*
X20939476Y-105230161D01*
X21701380Y-105230161D01*
X21891857Y-105325400D01*
X21987095Y-105420638D01*
X22082333Y-105611114D01*
X22082333Y-105896828D01*
X21987095Y-106087304D01*
X21891857Y-106182542D01*
X21701380Y-106277780D01*
X20939476Y-106277780D01*
X22749000Y-105230161D02*
X23225190Y-107230161D01*
X23606142Y-105801590D01*
X23987095Y-107230161D01*
X24463285Y-105230161D01*
X25225190Y-107230161D02*
X25225190Y-105230161D01*
X25891857Y-106658733D01*
X26558523Y-105230161D01*
X26558523Y-107230161D01*
X22129952Y-109482542D02*
X21463285Y-109482542D01*
X21463285Y-110530161D02*
X21463285Y-108530161D01*
X22415666Y-108530161D01*
X23082333Y-109958733D02*
X24034714Y-109958733D01*
X22891857Y-110530161D02*
X23558523Y-108530161D01*
X24225190Y-110530161D01*
X24891857Y-110530161D02*
X24891857Y-108530161D01*
X26034714Y-110530161D01*
X26034714Y-108530161D01*
D12*
X27830970Y-101740934D02*
X30878589Y-101740934D01*
X20815490Y-120501374D02*
X23863109Y-120501374D01*
D10*
X31781904Y-127904761D02*
X30639047Y-127904761D01*
X31210476Y-127904761D02*
X31210476Y-125904761D01*
X31020000Y-126190476D01*
X30829523Y-126380952D01*
X30639047Y-126476190D01*
X32543809Y-126095238D02*
X32639047Y-126000000D01*
X32829523Y-125904761D01*
X33305714Y-125904761D01*
X33496190Y-126000000D01*
X33591428Y-126095238D01*
X33686666Y-126285714D01*
X33686666Y-126476190D01*
X33591428Y-126761904D01*
X32448571Y-127904761D01*
X33686666Y-127904761D01*
X34258095Y-125904761D02*
X34924761Y-127904761D01*
X35591428Y-125904761D01*
D12*
X25941210Y-120473434D02*
X28988829Y-120473434D01*
X27465020Y-121997243D02*
X27465020Y-118949624D01*
X27830970Y-96701574D02*
X30878589Y-96701574D01*
X29354780Y-98225383D02*
X29354780Y-95177764D01*
X223028678Y-127468142D02*
X223403678Y-124468142D01*
X224885821Y-127468142D02*
X224617964Y-127325285D01*
X224510821Y-127039571D01*
X224832250Y-124468142D01*
X226457250Y-127468142D02*
X226189392Y-127325285D01*
X226082250Y-127039571D01*
X226403678Y-124468142D01*
X229135821Y-125468142D02*
X228885821Y-127468142D01*
X227850107Y-125468142D02*
X227653678Y-127039571D01*
X227760821Y-127325285D01*
X228028678Y-127468142D01*
X228457250Y-127468142D01*
X228760821Y-127325285D01*
X228921535Y-127182428D01*
X230314392Y-127468142D02*
X230564392Y-125468142D01*
X230528678Y-125753857D02*
X230689392Y-125611000D01*
X230992964Y-125468142D01*
X231421535Y-125468142D01*
X231689392Y-125611000D01*
X231796535Y-125896714D01*
X231600107Y-127468142D01*
X231796535Y-125896714D02*
X231975107Y-125611000D01*
X232278678Y-125468142D01*
X232707250Y-125468142D01*
X232975107Y-125611000D01*
X233082250Y-125896714D01*
X232885821Y-127468142D01*
X234314392Y-127468142D02*
X234564392Y-125468142D01*
X234689392Y-124468142D02*
X234528678Y-124611000D01*
X234653678Y-124753857D01*
X234814392Y-124611000D01*
X234689392Y-124468142D01*
X234653678Y-124753857D01*
X235992964Y-125468142D02*
X235742964Y-127468142D01*
X235957250Y-125753857D02*
X236117964Y-125611000D01*
X236421535Y-125468142D01*
X236850107Y-125468142D01*
X237117964Y-125611000D01*
X237225107Y-125896714D01*
X237028678Y-127468142D01*
X239742964Y-127468142D02*
X239939392Y-125896714D01*
X239832250Y-125611000D01*
X239564392Y-125468142D01*
X238992964Y-125468142D01*
X238689392Y-125611000D01*
X239760821Y-127325285D02*
X239457250Y-127468142D01*
X238742964Y-127468142D01*
X238475107Y-127325285D01*
X238367964Y-127039571D01*
X238403678Y-126753857D01*
X238582250Y-126468142D01*
X238885821Y-126325285D01*
X239600107Y-126325285D01*
X239903678Y-126182428D01*
X240992964Y-125468142D02*
X242135821Y-125468142D01*
X241546535Y-124468142D02*
X241225107Y-127039571D01*
X241332250Y-127325285D01*
X241600107Y-127468142D01*
X241885821Y-127468142D01*
X242885821Y-127468142D02*
X243135821Y-125468142D01*
X243260821Y-124468142D02*
X243100107Y-124611000D01*
X243225107Y-124753857D01*
X243385821Y-124611000D01*
X243260821Y-124468142D01*
X243225107Y-124753857D01*
X244742964Y-127468142D02*
X244475107Y-127325285D01*
X244350107Y-127182428D01*
X244242964Y-126896714D01*
X244350107Y-126039571D01*
X244528678Y-125753857D01*
X244689392Y-125611000D01*
X244992964Y-125468142D01*
X245421535Y-125468142D01*
X245689392Y-125611000D01*
X245814392Y-125753857D01*
X245921535Y-126039571D01*
X245814392Y-126896714D01*
X245635821Y-127182428D01*
X245475107Y-127325285D01*
X245171535Y-127468142D01*
X244742964Y-127468142D01*
X249457250Y-126325285D02*
X251742964Y-126325285D01*
X257028678Y-127468142D02*
X256207250Y-126039571D01*
X255314392Y-127468142D02*
X255689392Y-124468142D01*
X256832250Y-124468142D01*
X257100107Y-124611000D01*
X257225107Y-124753857D01*
X257332250Y-125039571D01*
X257278678Y-125468142D01*
X257100107Y-125753857D01*
X256939392Y-125896714D01*
X256635821Y-126039571D01*
X255492964Y-126039571D01*
X259475107Y-127325285D02*
X259171535Y-127468142D01*
X258600107Y-127468142D01*
X258332250Y-127325285D01*
X258225107Y-127039571D01*
X258367964Y-125896714D01*
X258546535Y-125611000D01*
X258850107Y-125468142D01*
X259421535Y-125468142D01*
X259689392Y-125611000D01*
X259796535Y-125896714D01*
X259760821Y-126182428D01*
X258296535Y-126468142D01*
X260850107Y-125468142D02*
X261314392Y-127468142D01*
X262278678Y-125468142D01*
X266403678Y-124468142D02*
X266689392Y-124468142D01*
X266957250Y-124611000D01*
X267082250Y-124753857D01*
X267189392Y-125039571D01*
X267260821Y-125611000D01*
X267171535Y-126325285D01*
X266957250Y-126896714D01*
X266778678Y-127182428D01*
X266617964Y-127325285D01*
X266314392Y-127468142D01*
X266028678Y-127468142D01*
X265760821Y-127325285D01*
X265635821Y-127182428D01*
X265528678Y-126896714D01*
X265457250Y-126325285D01*
X265546535Y-125611000D01*
X265760821Y-125039571D01*
X265939392Y-124753857D01*
X266100107Y-124611000D01*
X266403678Y-124468142D01*
X268350107Y-127182428D02*
X268475107Y-127325285D01*
X268314392Y-127468142D01*
X268189392Y-127325285D01*
X268350107Y-127182428D01*
X268314392Y-127468142D01*
X269939392Y-124753857D02*
X270100107Y-124611000D01*
X270403678Y-124468142D01*
X271117964Y-124468142D01*
X271385821Y-124611000D01*
X271510821Y-124753857D01*
X271617964Y-125039571D01*
X271582250Y-125325285D01*
X271385821Y-125753857D01*
X269457250Y-127468142D01*
X271314392Y-127468142D01*
D11*
X203065095Y-117393980D02*
X203588904Y-116727314D01*
X203065095Y-116727314D02*
X203588904Y-117393980D01*
X167606695Y-117520980D02*
X168130504Y-116854314D01*
X167606695Y-116854314D02*
X168130504Y-117520980D01*
D13*
X189836171Y-129227971D02*
X189836171Y-127727971D01*
X190407600Y-127727971D01*
X190550457Y-127799400D01*
X190621885Y-127870828D01*
X190693314Y-128013685D01*
X190693314Y-128227971D01*
X190621885Y-128370828D01*
X190550457Y-128442257D01*
X190407600Y-128513685D01*
X189836171Y-128513685D01*
X191550457Y-129227971D02*
X191407600Y-129156542D01*
X191336171Y-129085114D01*
X191264742Y-128942257D01*
X191264742Y-128513685D01*
X191336171Y-128370828D01*
X191407600Y-128299400D01*
X191550457Y-128227971D01*
X191764742Y-128227971D01*
X191907600Y-128299400D01*
X191979028Y-128370828D01*
X192050457Y-128513685D01*
X192050457Y-128942257D01*
X191979028Y-129085114D01*
X191907600Y-129156542D01*
X191764742Y-129227971D01*
X191550457Y-129227971D01*
X192693314Y-129227971D02*
X192693314Y-128227971D01*
X192693314Y-128513685D02*
X192764742Y-128370828D01*
X192836171Y-128299400D01*
X192979028Y-128227971D01*
X193121885Y-128227971D01*
X193407600Y-128227971D02*
X193979028Y-128227971D01*
X193621885Y-127727971D02*
X193621885Y-129013685D01*
X193693314Y-129156542D01*
X193836171Y-129227971D01*
X193979028Y-129227971D01*
X196407600Y-129227971D02*
X195550457Y-129227971D01*
X195979028Y-129227971D02*
X195979028Y-127727971D01*
X195836171Y-127942257D01*
X195693314Y-128085114D01*
X195550457Y-128156542D01*
X197121885Y-129156542D02*
X197121885Y-129227971D01*
X197050457Y-129370828D01*
X196979028Y-129442257D01*
X197693314Y-127870828D02*
X197764742Y-127799400D01*
X197907600Y-127727971D01*
X198264742Y-127727971D01*
X198407600Y-127799400D01*
X198479028Y-127870828D01*
X198550457Y-128013685D01*
X198550457Y-128156542D01*
X198479028Y-128370828D01*
X197621885Y-129227971D01*
X198550457Y-129227971D01*
D11*
X149801295Y-117368580D02*
X150325104Y-116701914D01*
X149801295Y-116701914D02*
X150325104Y-117368580D01*
X185310495Y-117292380D02*
X185834304Y-116625714D01*
X185310495Y-116625714D02*
X185834304Y-117292380D01*
D13*
X154301571Y-129278771D02*
X154301571Y-127778771D01*
X154873000Y-127778771D01*
X155015857Y-127850200D01*
X155087285Y-127921628D01*
X155158714Y-128064485D01*
X155158714Y-128278771D01*
X155087285Y-128421628D01*
X155015857Y-128493057D01*
X154873000Y-128564485D01*
X154301571Y-128564485D01*
X156015857Y-129278771D02*
X155873000Y-129207342D01*
X155801571Y-129135914D01*
X155730142Y-128993057D01*
X155730142Y-128564485D01*
X155801571Y-128421628D01*
X155873000Y-128350200D01*
X156015857Y-128278771D01*
X156230142Y-128278771D01*
X156373000Y-128350200D01*
X156444428Y-128421628D01*
X156515857Y-128564485D01*
X156515857Y-128993057D01*
X156444428Y-129135914D01*
X156373000Y-129207342D01*
X156230142Y-129278771D01*
X156015857Y-129278771D01*
X157158714Y-129278771D02*
X157158714Y-128278771D01*
X157158714Y-128564485D02*
X157230142Y-128421628D01*
X157301571Y-128350200D01*
X157444428Y-128278771D01*
X157587285Y-128278771D01*
X157873000Y-128278771D02*
X158444428Y-128278771D01*
X158087285Y-127778771D02*
X158087285Y-129064485D01*
X158158714Y-129207342D01*
X158301571Y-129278771D01*
X158444428Y-129278771D01*
X160801571Y-127778771D02*
X160087285Y-127778771D01*
X160015857Y-128493057D01*
X160087285Y-128421628D01*
X160230142Y-128350200D01*
X160587285Y-128350200D01*
X160730142Y-128421628D01*
X160801571Y-128493057D01*
X160873000Y-128635914D01*
X160873000Y-128993057D01*
X160801571Y-129135914D01*
X160730142Y-129207342D01*
X160587285Y-129278771D01*
X160230142Y-129278771D01*
X160087285Y-129207342D01*
X160015857Y-129135914D01*
X161587285Y-129207342D02*
X161587285Y-129278771D01*
X161515857Y-129421628D01*
X161444428Y-129493057D01*
X162873000Y-127778771D02*
X162587285Y-127778771D01*
X162444428Y-127850200D01*
X162373000Y-127921628D01*
X162230142Y-128135914D01*
X162158714Y-128421628D01*
X162158714Y-128993057D01*
X162230142Y-129135914D01*
X162301571Y-129207342D01*
X162444428Y-129278771D01*
X162730142Y-129278771D01*
X162873000Y-129207342D01*
X162944428Y-129135914D01*
X163015857Y-128993057D01*
X163015857Y-128635914D01*
X162944428Y-128493057D01*
X162873000Y-128421628D01*
X162730142Y-128350200D01*
X162444428Y-128350200D01*
X162301571Y-128421628D01*
X162230142Y-128493057D01*
X162158714Y-128635914D01*
X136572371Y-129532771D02*
X136572371Y-128032771D01*
X137143800Y-128032771D01*
X137286657Y-128104200D01*
X137358085Y-128175628D01*
X137429514Y-128318485D01*
X137429514Y-128532771D01*
X137358085Y-128675628D01*
X137286657Y-128747057D01*
X137143800Y-128818485D01*
X136572371Y-128818485D01*
X138286657Y-129532771D02*
X138143800Y-129461342D01*
X138072371Y-129389914D01*
X138000942Y-129247057D01*
X138000942Y-128818485D01*
X138072371Y-128675628D01*
X138143800Y-128604200D01*
X138286657Y-128532771D01*
X138500942Y-128532771D01*
X138643800Y-128604200D01*
X138715228Y-128675628D01*
X138786657Y-128818485D01*
X138786657Y-129247057D01*
X138715228Y-129389914D01*
X138643800Y-129461342D01*
X138500942Y-129532771D01*
X138286657Y-129532771D01*
X139429514Y-129532771D02*
X139429514Y-128532771D01*
X139429514Y-128818485D02*
X139500942Y-128675628D01*
X139572371Y-128604200D01*
X139715228Y-128532771D01*
X139858085Y-128532771D01*
X140143800Y-128532771D02*
X140715228Y-128532771D01*
X140358085Y-128032771D02*
X140358085Y-129318485D01*
X140429514Y-129461342D01*
X140572371Y-129532771D01*
X140715228Y-129532771D01*
X142572371Y-128675628D02*
X142429514Y-128604200D01*
X142358085Y-128532771D01*
X142286657Y-128389914D01*
X142286657Y-128318485D01*
X142358085Y-128175628D01*
X142429514Y-128104200D01*
X142572371Y-128032771D01*
X142858085Y-128032771D01*
X143000942Y-128104200D01*
X143072371Y-128175628D01*
X143143800Y-128318485D01*
X143143800Y-128389914D01*
X143072371Y-128532771D01*
X143000942Y-128604200D01*
X142858085Y-128675628D01*
X142572371Y-128675628D01*
X142429514Y-128747057D01*
X142358085Y-128818485D01*
X142286657Y-128961342D01*
X142286657Y-129247057D01*
X142358085Y-129389914D01*
X142429514Y-129461342D01*
X142572371Y-129532771D01*
X142858085Y-129532771D01*
X143000942Y-129461342D01*
X143072371Y-129389914D01*
X143143800Y-129247057D01*
X143143800Y-128961342D01*
X143072371Y-128818485D01*
X143000942Y-128747057D01*
X142858085Y-128675628D01*
X143858085Y-129461342D02*
X143858085Y-129532771D01*
X143786657Y-129675628D01*
X143715228Y-129747057D01*
X144358085Y-128032771D02*
X145358085Y-128032771D01*
X144715228Y-129532771D01*
X172106971Y-129227971D02*
X172106971Y-127727971D01*
X172678400Y-127727971D01*
X172821257Y-127799400D01*
X172892685Y-127870828D01*
X172964114Y-128013685D01*
X172964114Y-128227971D01*
X172892685Y-128370828D01*
X172821257Y-128442257D01*
X172678400Y-128513685D01*
X172106971Y-128513685D01*
X173821257Y-129227971D02*
X173678400Y-129156542D01*
X173606971Y-129085114D01*
X173535542Y-128942257D01*
X173535542Y-128513685D01*
X173606971Y-128370828D01*
X173678400Y-128299400D01*
X173821257Y-128227971D01*
X174035542Y-128227971D01*
X174178400Y-128299400D01*
X174249828Y-128370828D01*
X174321257Y-128513685D01*
X174321257Y-128942257D01*
X174249828Y-129085114D01*
X174178400Y-129156542D01*
X174035542Y-129227971D01*
X173821257Y-129227971D01*
X174964114Y-129227971D02*
X174964114Y-128227971D01*
X174964114Y-128513685D02*
X175035542Y-128370828D01*
X175106971Y-128299400D01*
X175249828Y-128227971D01*
X175392685Y-128227971D01*
X175678400Y-128227971D02*
X176249828Y-128227971D01*
X175892685Y-127727971D02*
X175892685Y-129013685D01*
X175964114Y-129156542D01*
X176106971Y-129227971D01*
X176249828Y-129227971D01*
X177749828Y-127727971D02*
X178678400Y-127727971D01*
X178178400Y-128299400D01*
X178392685Y-128299400D01*
X178535542Y-128370828D01*
X178606971Y-128442257D01*
X178678400Y-128585114D01*
X178678400Y-128942257D01*
X178606971Y-129085114D01*
X178535542Y-129156542D01*
X178392685Y-129227971D01*
X177964114Y-129227971D01*
X177821257Y-129156542D01*
X177749828Y-129085114D01*
X179392685Y-129156542D02*
X179392685Y-129227971D01*
X179321257Y-129370828D01*
X179249828Y-129442257D01*
X180678400Y-128227971D02*
X180678400Y-129227971D01*
X180321257Y-127656542D02*
X179964114Y-128727971D01*
X180892685Y-128727971D01*
D11*
X115887666Y-106170980D02*
X116078142Y-106170980D01*
X116173380Y-106218600D01*
X116268619Y-106313838D01*
X116316238Y-106504314D01*
X116316238Y-106837647D01*
X116268619Y-107028123D01*
X116173380Y-107123361D01*
X116078142Y-107170980D01*
X115887666Y-107170980D01*
X115792428Y-107123361D01*
X115697190Y-107028123D01*
X115649571Y-106837647D01*
X115649571Y-106504314D01*
X115697190Y-106313838D01*
X115792428Y-106218600D01*
X115887666Y-106170980D01*
X116887666Y-107170980D02*
X116792428Y-107123361D01*
X116744809Y-107028123D01*
X116744809Y-106170980D01*
X117268619Y-107170980D02*
X117268619Y-106504314D01*
X117268619Y-106170980D02*
X117221000Y-106218600D01*
X117268619Y-106266219D01*
X117316238Y-106218600D01*
X117268619Y-106170980D01*
X117268619Y-106266219D01*
X117744809Y-107170980D02*
X117744809Y-106504314D01*
X117744809Y-106599552D02*
X117792428Y-106551933D01*
X117887666Y-106504314D01*
X118030523Y-106504314D01*
X118125761Y-106551933D01*
X118173380Y-106647171D01*
X118173380Y-107170980D01*
X118173380Y-106647171D02*
X118221000Y-106551933D01*
X118316238Y-106504314D01*
X118459095Y-106504314D01*
X118554333Y-106551933D01*
X118601952Y-106647171D01*
X118601952Y-107170980D01*
X119459095Y-107123361D02*
X119363857Y-107170980D01*
X119173380Y-107170980D01*
X119078142Y-107123361D01*
X119030523Y-107028123D01*
X119030523Y-106647171D01*
X119078142Y-106551933D01*
X119173380Y-106504314D01*
X119363857Y-106504314D01*
X119459095Y-106551933D01*
X119506714Y-106647171D01*
X119506714Y-106742409D01*
X119030523Y-106837647D01*
X119840047Y-107170980D02*
X120363857Y-106504314D01*
X119840047Y-106504314D02*
X120363857Y-107170980D01*
X113221000Y-108297171D02*
X113554333Y-108297171D01*
X113697190Y-108820980D02*
X113221000Y-108820980D01*
X113221000Y-107820980D01*
X113697190Y-107820980D01*
X114078142Y-108773361D02*
X114221000Y-108820980D01*
X114459095Y-108820980D01*
X114554333Y-108773361D01*
X114601952Y-108725742D01*
X114649571Y-108630504D01*
X114649571Y-108535266D01*
X114601952Y-108440028D01*
X114554333Y-108392409D01*
X114459095Y-108344790D01*
X114268619Y-108297171D01*
X114173380Y-108249552D01*
X114125761Y-108201933D01*
X114078142Y-108106695D01*
X114078142Y-108011457D01*
X114125761Y-107916219D01*
X114173380Y-107868600D01*
X114268619Y-107820980D01*
X114506714Y-107820980D01*
X114649571Y-107868600D01*
X115078142Y-108820980D02*
X115078142Y-107820980D01*
X115459095Y-107820980D01*
X115554333Y-107868600D01*
X115601952Y-107916219D01*
X115649571Y-108011457D01*
X115649571Y-108154314D01*
X115601952Y-108249552D01*
X115554333Y-108297171D01*
X115459095Y-108344790D01*
X115078142Y-108344790D01*
X115982904Y-107820980D02*
X116601952Y-107820980D01*
X116268619Y-108201933D01*
X116411476Y-108201933D01*
X116506714Y-108249552D01*
X116554333Y-108297171D01*
X116601952Y-108392409D01*
X116601952Y-108630504D01*
X116554333Y-108725742D01*
X116506714Y-108773361D01*
X116411476Y-108820980D01*
X116125761Y-108820980D01*
X116030523Y-108773361D01*
X115982904Y-108725742D01*
X116982904Y-107916219D02*
X117030523Y-107868600D01*
X117125761Y-107820980D01*
X117363857Y-107820980D01*
X117459095Y-107868600D01*
X117506714Y-107916219D01*
X117554333Y-108011457D01*
X117554333Y-108106695D01*
X117506714Y-108249552D01*
X116935285Y-108820980D01*
X117554333Y-108820980D01*
X118744809Y-108820980D02*
X118744809Y-107820980D01*
X119125761Y-107820980D01*
X119221000Y-107868600D01*
X119268619Y-107916219D01*
X119316238Y-108011457D01*
X119316238Y-108154314D01*
X119268619Y-108249552D01*
X119221000Y-108297171D01*
X119125761Y-108344790D01*
X118744809Y-108344790D01*
X119935285Y-107820980D02*
X120125761Y-107820980D01*
X120221000Y-107868600D01*
X120316238Y-107963838D01*
X120363857Y-108154314D01*
X120363857Y-108487647D01*
X120316238Y-108678123D01*
X120221000Y-108773361D01*
X120125761Y-108820980D01*
X119935285Y-108820980D01*
X119840047Y-108773361D01*
X119744809Y-108678123D01*
X119697190Y-108487647D01*
X119697190Y-108154314D01*
X119744809Y-107963838D01*
X119840047Y-107868600D01*
X119935285Y-107820980D01*
X120792428Y-108297171D02*
X121125761Y-108297171D01*
X121268619Y-108820980D02*
X120792428Y-108820980D01*
X120792428Y-107820980D01*
X121268619Y-107820980D01*
X209821733Y-102280980D02*
X209821733Y-101280980D01*
X210202685Y-101280980D01*
X210297923Y-101328600D01*
X210345542Y-101376219D01*
X210393161Y-101471457D01*
X210393161Y-101614314D01*
X210345542Y-101709552D01*
X210297923Y-101757171D01*
X210202685Y-101804790D01*
X209821733Y-101804790D01*
X210964590Y-102280980D02*
X210869352Y-102233361D01*
X210821733Y-102185742D01*
X210774114Y-102090504D01*
X210774114Y-101804790D01*
X210821733Y-101709552D01*
X210869352Y-101661933D01*
X210964590Y-101614314D01*
X211107447Y-101614314D01*
X211202685Y-101661933D01*
X211250304Y-101709552D01*
X211297923Y-101804790D01*
X211297923Y-102090504D01*
X211250304Y-102185742D01*
X211202685Y-102233361D01*
X211107447Y-102280980D01*
X210964590Y-102280980D01*
X211726495Y-102280980D02*
X211726495Y-101614314D01*
X211726495Y-101804790D02*
X211774114Y-101709552D01*
X211821733Y-101661933D01*
X211916971Y-101614314D01*
X212012209Y-101614314D01*
X212202685Y-101614314D02*
X212583638Y-101614314D01*
X212345542Y-101280980D02*
X212345542Y-102138123D01*
X212393161Y-102233361D01*
X212488400Y-102280980D01*
X212583638Y-102280980D01*
X213821733Y-101709552D02*
X213726495Y-101661933D01*
X213678876Y-101614314D01*
X213631257Y-101519076D01*
X213631257Y-101471457D01*
X213678876Y-101376219D01*
X213726495Y-101328600D01*
X213821733Y-101280980D01*
X214012209Y-101280980D01*
X214107447Y-101328600D01*
X214155066Y-101376219D01*
X214202685Y-101471457D01*
X214202685Y-101519076D01*
X214155066Y-101614314D01*
X214107447Y-101661933D01*
X214012209Y-101709552D01*
X213821733Y-101709552D01*
X213726495Y-101757171D01*
X213678876Y-101804790D01*
X213631257Y-101900028D01*
X213631257Y-102090504D01*
X213678876Y-102185742D01*
X213726495Y-102233361D01*
X213821733Y-102280980D01*
X214012209Y-102280980D01*
X214107447Y-102233361D01*
X214155066Y-102185742D01*
X214202685Y-102090504D01*
X214202685Y-101900028D01*
X214155066Y-101804790D01*
X214107447Y-101757171D01*
X214012209Y-101709552D01*
X209897933Y-114777780D02*
X209897933Y-113777780D01*
X210278885Y-113777780D01*
X210374123Y-113825400D01*
X210421742Y-113873019D01*
X210469361Y-113968257D01*
X210469361Y-114111114D01*
X210421742Y-114206352D01*
X210374123Y-114253971D01*
X210278885Y-114301590D01*
X209897933Y-114301590D01*
X211040790Y-114777780D02*
X210945552Y-114730161D01*
X210897933Y-114682542D01*
X210850314Y-114587304D01*
X210850314Y-114301590D01*
X210897933Y-114206352D01*
X210945552Y-114158733D01*
X211040790Y-114111114D01*
X211183647Y-114111114D01*
X211278885Y-114158733D01*
X211326504Y-114206352D01*
X211374123Y-114301590D01*
X211374123Y-114587304D01*
X211326504Y-114682542D01*
X211278885Y-114730161D01*
X211183647Y-114777780D01*
X211040790Y-114777780D01*
X211802695Y-114777780D02*
X211802695Y-114111114D01*
X211802695Y-114301590D02*
X211850314Y-114206352D01*
X211897933Y-114158733D01*
X211993171Y-114111114D01*
X212088409Y-114111114D01*
X212278885Y-114111114D02*
X212659838Y-114111114D01*
X212421742Y-113777780D02*
X212421742Y-114634923D01*
X212469361Y-114730161D01*
X212564600Y-114777780D01*
X212659838Y-114777780D01*
X213659838Y-113777780D02*
X214326504Y-113777780D01*
X213897933Y-114777780D01*
X226763533Y-102280980D02*
X226763533Y-101280980D01*
X227144485Y-101280980D01*
X227239723Y-101328600D01*
X227287342Y-101376219D01*
X227334961Y-101471457D01*
X227334961Y-101614314D01*
X227287342Y-101709552D01*
X227239723Y-101757171D01*
X227144485Y-101804790D01*
X226763533Y-101804790D01*
X227906390Y-102280980D02*
X227811152Y-102233361D01*
X227763533Y-102185742D01*
X227715914Y-102090504D01*
X227715914Y-101804790D01*
X227763533Y-101709552D01*
X227811152Y-101661933D01*
X227906390Y-101614314D01*
X228049247Y-101614314D01*
X228144485Y-101661933D01*
X228192104Y-101709552D01*
X228239723Y-101804790D01*
X228239723Y-102090504D01*
X228192104Y-102185742D01*
X228144485Y-102233361D01*
X228049247Y-102280980D01*
X227906390Y-102280980D01*
X228668295Y-102280980D02*
X228668295Y-101614314D01*
X228668295Y-101804790D02*
X228715914Y-101709552D01*
X228763533Y-101661933D01*
X228858771Y-101614314D01*
X228954009Y-101614314D01*
X229144485Y-101614314D02*
X229525438Y-101614314D01*
X229287342Y-101280980D02*
X229287342Y-102138123D01*
X229334961Y-102233361D01*
X229430200Y-102280980D01*
X229525438Y-102280980D01*
X231049247Y-101280980D02*
X230858771Y-101280980D01*
X230763533Y-101328600D01*
X230715914Y-101376219D01*
X230620676Y-101519076D01*
X230573057Y-101709552D01*
X230573057Y-102090504D01*
X230620676Y-102185742D01*
X230668295Y-102233361D01*
X230763533Y-102280980D01*
X230954009Y-102280980D01*
X231049247Y-102233361D01*
X231096866Y-102185742D01*
X231144485Y-102090504D01*
X231144485Y-101852409D01*
X231096866Y-101757171D01*
X231049247Y-101709552D01*
X230954009Y-101661933D01*
X230763533Y-101661933D01*
X230668295Y-101709552D01*
X230620676Y-101757171D01*
X230573057Y-101852409D01*
X226966733Y-114777780D02*
X226966733Y-113777780D01*
X227347685Y-113777780D01*
X227442923Y-113825400D01*
X227490542Y-113873019D01*
X227538161Y-113968257D01*
X227538161Y-114111114D01*
X227490542Y-114206352D01*
X227442923Y-114253971D01*
X227347685Y-114301590D01*
X226966733Y-114301590D01*
X228109590Y-114777780D02*
X228014352Y-114730161D01*
X227966733Y-114682542D01*
X227919114Y-114587304D01*
X227919114Y-114301590D01*
X227966733Y-114206352D01*
X228014352Y-114158733D01*
X228109590Y-114111114D01*
X228252447Y-114111114D01*
X228347685Y-114158733D01*
X228395304Y-114206352D01*
X228442923Y-114301590D01*
X228442923Y-114587304D01*
X228395304Y-114682542D01*
X228347685Y-114730161D01*
X228252447Y-114777780D01*
X228109590Y-114777780D01*
X228871495Y-114777780D02*
X228871495Y-114111114D01*
X228871495Y-114301590D02*
X228919114Y-114206352D01*
X228966733Y-114158733D01*
X229061971Y-114111114D01*
X229157209Y-114111114D01*
X229347685Y-114111114D02*
X229728638Y-114111114D01*
X229490542Y-113777780D02*
X229490542Y-114634923D01*
X229538161Y-114730161D01*
X229633400Y-114777780D01*
X229728638Y-114777780D01*
X231300066Y-113777780D02*
X230823876Y-113777780D01*
X230776257Y-114253971D01*
X230823876Y-114206352D01*
X230919114Y-114158733D01*
X231157209Y-114158733D01*
X231252447Y-114206352D01*
X231300066Y-114253971D01*
X231347685Y-114349209D01*
X231347685Y-114587304D01*
X231300066Y-114682542D01*
X231252447Y-114730161D01*
X231157209Y-114777780D01*
X230919114Y-114777780D01*
X230823876Y-114730161D01*
X230776257Y-114682542D01*
X243781533Y-102280980D02*
X243781533Y-101280980D01*
X244162485Y-101280980D01*
X244257723Y-101328600D01*
X244305342Y-101376219D01*
X244352961Y-101471457D01*
X244352961Y-101614314D01*
X244305342Y-101709552D01*
X244257723Y-101757171D01*
X244162485Y-101804790D01*
X243781533Y-101804790D01*
X244924390Y-102280980D02*
X244829152Y-102233361D01*
X244781533Y-102185742D01*
X244733914Y-102090504D01*
X244733914Y-101804790D01*
X244781533Y-101709552D01*
X244829152Y-101661933D01*
X244924390Y-101614314D01*
X245067247Y-101614314D01*
X245162485Y-101661933D01*
X245210104Y-101709552D01*
X245257723Y-101804790D01*
X245257723Y-102090504D01*
X245210104Y-102185742D01*
X245162485Y-102233361D01*
X245067247Y-102280980D01*
X244924390Y-102280980D01*
X245686295Y-102280980D02*
X245686295Y-101614314D01*
X245686295Y-101804790D02*
X245733914Y-101709552D01*
X245781533Y-101661933D01*
X245876771Y-101614314D01*
X245972009Y-101614314D01*
X246162485Y-101614314D02*
X246543438Y-101614314D01*
X246305342Y-101280980D02*
X246305342Y-102138123D01*
X246352961Y-102233361D01*
X246448200Y-102280980D01*
X246543438Y-102280980D01*
X248067247Y-101614314D02*
X248067247Y-102280980D01*
X247829152Y-101233361D02*
X247591057Y-101947647D01*
X248210104Y-101947647D01*
X243781533Y-114777780D02*
X243781533Y-113777780D01*
X244162485Y-113777780D01*
X244257723Y-113825400D01*
X244305342Y-113873019D01*
X244352961Y-113968257D01*
X244352961Y-114111114D01*
X244305342Y-114206352D01*
X244257723Y-114253971D01*
X244162485Y-114301590D01*
X243781533Y-114301590D01*
X244924390Y-114777780D02*
X244829152Y-114730161D01*
X244781533Y-114682542D01*
X244733914Y-114587304D01*
X244733914Y-114301590D01*
X244781533Y-114206352D01*
X244829152Y-114158733D01*
X244924390Y-114111114D01*
X245067247Y-114111114D01*
X245162485Y-114158733D01*
X245210104Y-114206352D01*
X245257723Y-114301590D01*
X245257723Y-114587304D01*
X245210104Y-114682542D01*
X245162485Y-114730161D01*
X245067247Y-114777780D01*
X244924390Y-114777780D01*
X245686295Y-114777780D02*
X245686295Y-114111114D01*
X245686295Y-114301590D02*
X245733914Y-114206352D01*
X245781533Y-114158733D01*
X245876771Y-114111114D01*
X245972009Y-114111114D01*
X246162485Y-114111114D02*
X246543438Y-114111114D01*
X246305342Y-113777780D02*
X246305342Y-114634923D01*
X246352961Y-114730161D01*
X246448200Y-114777780D01*
X246543438Y-114777780D01*
X247543438Y-113777780D02*
X248162485Y-113777780D01*
X247829152Y-114158733D01*
X247972009Y-114158733D01*
X248067247Y-114206352D01*
X248114866Y-114253971D01*
X248162485Y-114349209D01*
X248162485Y-114587304D01*
X248114866Y-114682542D01*
X248067247Y-114730161D01*
X247972009Y-114777780D01*
X247686295Y-114777780D01*
X247591057Y-114730161D01*
X247543438Y-114682542D01*
X260850333Y-102280980D02*
X260850333Y-101280980D01*
X261231285Y-101280980D01*
X261326523Y-101328600D01*
X261374142Y-101376219D01*
X261421761Y-101471457D01*
X261421761Y-101614314D01*
X261374142Y-101709552D01*
X261326523Y-101757171D01*
X261231285Y-101804790D01*
X260850333Y-101804790D01*
X261993190Y-102280980D02*
X261897952Y-102233361D01*
X261850333Y-102185742D01*
X261802714Y-102090504D01*
X261802714Y-101804790D01*
X261850333Y-101709552D01*
X261897952Y-101661933D01*
X261993190Y-101614314D01*
X262136047Y-101614314D01*
X262231285Y-101661933D01*
X262278904Y-101709552D01*
X262326523Y-101804790D01*
X262326523Y-102090504D01*
X262278904Y-102185742D01*
X262231285Y-102233361D01*
X262136047Y-102280980D01*
X261993190Y-102280980D01*
X262755095Y-102280980D02*
X262755095Y-101614314D01*
X262755095Y-101804790D02*
X262802714Y-101709552D01*
X262850333Y-101661933D01*
X262945571Y-101614314D01*
X263040809Y-101614314D01*
X263231285Y-101614314D02*
X263612238Y-101614314D01*
X263374142Y-101280980D02*
X263374142Y-102138123D01*
X263421761Y-102233361D01*
X263517000Y-102280980D01*
X263612238Y-102280980D01*
X264659857Y-101376219D02*
X264707476Y-101328600D01*
X264802714Y-101280980D01*
X265040809Y-101280980D01*
X265136047Y-101328600D01*
X265183666Y-101376219D01*
X265231285Y-101471457D01*
X265231285Y-101566695D01*
X265183666Y-101709552D01*
X264612238Y-102280980D01*
X265231285Y-102280980D01*
X260799533Y-114777780D02*
X260799533Y-113777780D01*
X261180485Y-113777780D01*
X261275723Y-113825400D01*
X261323342Y-113873019D01*
X261370961Y-113968257D01*
X261370961Y-114111114D01*
X261323342Y-114206352D01*
X261275723Y-114253971D01*
X261180485Y-114301590D01*
X260799533Y-114301590D01*
X261942390Y-114777780D02*
X261847152Y-114730161D01*
X261799533Y-114682542D01*
X261751914Y-114587304D01*
X261751914Y-114301590D01*
X261799533Y-114206352D01*
X261847152Y-114158733D01*
X261942390Y-114111114D01*
X262085247Y-114111114D01*
X262180485Y-114158733D01*
X262228104Y-114206352D01*
X262275723Y-114301590D01*
X262275723Y-114587304D01*
X262228104Y-114682542D01*
X262180485Y-114730161D01*
X262085247Y-114777780D01*
X261942390Y-114777780D01*
X262704295Y-114777780D02*
X262704295Y-114111114D01*
X262704295Y-114301590D02*
X262751914Y-114206352D01*
X262799533Y-114158733D01*
X262894771Y-114111114D01*
X262990009Y-114111114D01*
X263180485Y-114111114D02*
X263561438Y-114111114D01*
X263323342Y-113777780D02*
X263323342Y-114634923D01*
X263370961Y-114730161D01*
X263466200Y-114777780D01*
X263561438Y-114777780D01*
X265180485Y-114777780D02*
X264609057Y-114777780D01*
X264894771Y-114777780D02*
X264894771Y-113777780D01*
X264799533Y-113920638D01*
X264704295Y-114015876D01*
X264609057Y-114063495D01*
X45729523Y-94660980D02*
X45158095Y-94660980D01*
X45443809Y-94660980D02*
X45443809Y-93660980D01*
X45348571Y-93803838D01*
X45253333Y-93899076D01*
X45158095Y-93946695D01*
X46110476Y-93756219D02*
X46158095Y-93708600D01*
X46253333Y-93660980D01*
X46491428Y-93660980D01*
X46586666Y-93708600D01*
X46634285Y-93756219D01*
X46681904Y-93851457D01*
X46681904Y-93946695D01*
X46634285Y-94089552D01*
X46062857Y-94660980D01*
X46681904Y-94660980D01*
X48415323Y-94660980D02*
X47843895Y-94660980D01*
X48129609Y-94660980D02*
X48129609Y-93660980D01*
X48034371Y-93803838D01*
X47939133Y-93899076D01*
X47843895Y-93946695D01*
X49367704Y-94660980D02*
X48796276Y-94660980D01*
X49081990Y-94660980D02*
X49081990Y-93660980D01*
X48986752Y-93803838D01*
X48891514Y-93899076D01*
X48796276Y-93946695D01*
X50955323Y-94660980D02*
X50383895Y-94660980D01*
X50669609Y-94660980D02*
X50669609Y-93660980D01*
X50574371Y-93803838D01*
X50479133Y-93899076D01*
X50383895Y-93946695D01*
X51574371Y-93660980D02*
X51669609Y-93660980D01*
X51764847Y-93708600D01*
X51812466Y-93756219D01*
X51860085Y-93851457D01*
X51907704Y-94041933D01*
X51907704Y-94280028D01*
X51860085Y-94470504D01*
X51812466Y-94565742D01*
X51764847Y-94613361D01*
X51669609Y-94660980D01*
X51574371Y-94660980D01*
X51479133Y-94613361D01*
X51431514Y-94565742D01*
X51383895Y-94470504D01*
X51336276Y-94280028D01*
X51336276Y-94041933D01*
X51383895Y-93851457D01*
X51431514Y-93756219D01*
X51479133Y-93708600D01*
X51574371Y-93660980D01*
X61058161Y-94165752D02*
X60962923Y-94118133D01*
X60915304Y-94070514D01*
X60867685Y-93975276D01*
X60867685Y-93927657D01*
X60915304Y-93832419D01*
X60962923Y-93784800D01*
X61058161Y-93737180D01*
X61248638Y-93737180D01*
X61343876Y-93784800D01*
X61391495Y-93832419D01*
X61439114Y-93927657D01*
X61439114Y-93975276D01*
X61391495Y-94070514D01*
X61343876Y-94118133D01*
X61248638Y-94165752D01*
X61058161Y-94165752D01*
X60962923Y-94213371D01*
X60915304Y-94260990D01*
X60867685Y-94356228D01*
X60867685Y-94546704D01*
X60915304Y-94641942D01*
X60962923Y-94689561D01*
X61058161Y-94737180D01*
X61248638Y-94737180D01*
X61343876Y-94689561D01*
X61391495Y-94641942D01*
X61439114Y-94546704D01*
X61439114Y-94356228D01*
X61391495Y-94260990D01*
X61343876Y-94213371D01*
X61248638Y-94165752D01*
X63360066Y-93737180D02*
X64026733Y-93737180D01*
X63598161Y-94737180D01*
X66423876Y-93737180D02*
X66233400Y-93737180D01*
X66138161Y-93784800D01*
X66090542Y-93832419D01*
X65995304Y-93975276D01*
X65947685Y-94165752D01*
X65947685Y-94546704D01*
X65995304Y-94641942D01*
X66042923Y-94689561D01*
X66138161Y-94737180D01*
X66328638Y-94737180D01*
X66423876Y-94689561D01*
X66471495Y-94641942D01*
X66519114Y-94546704D01*
X66519114Y-94308609D01*
X66471495Y-94213371D01*
X66423876Y-94165752D01*
X66328638Y-94118133D01*
X66138161Y-94118133D01*
X66042923Y-94165752D01*
X65995304Y-94213371D01*
X65947685Y-94308609D01*
X74043876Y-94070514D02*
X74043876Y-94737180D01*
X73805780Y-93689561D02*
X73567685Y-94403847D01*
X74186733Y-94403847D01*
X76060066Y-93737180D02*
X76679114Y-93737180D01*
X76345780Y-94118133D01*
X76488638Y-94118133D01*
X76583876Y-94165752D01*
X76631495Y-94213371D01*
X76679114Y-94308609D01*
X76679114Y-94546704D01*
X76631495Y-94641942D01*
X76583876Y-94689561D01*
X76488638Y-94737180D01*
X76202923Y-94737180D01*
X76107685Y-94689561D01*
X76060066Y-94641942D01*
X78647685Y-93832419D02*
X78695304Y-93784800D01*
X78790542Y-93737180D01*
X79028638Y-93737180D01*
X79123876Y-93784800D01*
X79171495Y-93832419D01*
X79219114Y-93927657D01*
X79219114Y-94022895D01*
X79171495Y-94165752D01*
X78600066Y-94737180D01*
X79219114Y-94737180D01*
X38109523Y-94686380D02*
X37538095Y-94686380D01*
X37823809Y-94686380D02*
X37823809Y-93686380D01*
X37728571Y-93829238D01*
X37633333Y-93924476D01*
X37538095Y-93972095D01*
X38966666Y-94019714D02*
X38966666Y-94686380D01*
X38728571Y-93638761D02*
X38490476Y-94353047D01*
X39109523Y-94353047D01*
X35498095Y-94686380D02*
X36021904Y-94019714D01*
X35498095Y-94019714D02*
X36021904Y-94686380D01*
X40649523Y-94686380D02*
X40078095Y-94686380D01*
X40363809Y-94686380D02*
X40363809Y-93686380D01*
X40268571Y-93829238D01*
X40173333Y-93924476D01*
X40078095Y-93972095D01*
X40982857Y-93686380D02*
X41601904Y-93686380D01*
X41268571Y-94067333D01*
X41411428Y-94067333D01*
X41506666Y-94114952D01*
X41554285Y-94162571D01*
X41601904Y-94257809D01*
X41601904Y-94495904D01*
X41554285Y-94591142D01*
X41506666Y-94638761D01*
X41411428Y-94686380D01*
X41125714Y-94686380D01*
X41030476Y-94638761D01*
X40982857Y-94591142D01*
X53495323Y-94660980D02*
X53685800Y-94660980D01*
X53781038Y-94613361D01*
X53828657Y-94565742D01*
X53923895Y-94422885D01*
X53971514Y-94232409D01*
X53971514Y-93851457D01*
X53923895Y-93756219D01*
X53876276Y-93708600D01*
X53781038Y-93660980D01*
X53590561Y-93660980D01*
X53495323Y-93708600D01*
X53447704Y-93756219D01*
X53400085Y-93851457D01*
X53400085Y-94089552D01*
X53447704Y-94184790D01*
X53495323Y-94232409D01*
X53590561Y-94280028D01*
X53781038Y-94280028D01*
X53876276Y-94232409D01*
X53923895Y-94184790D01*
X53971514Y-94089552D01*
X69011495Y-93737180D02*
X68535304Y-93737180D01*
X68487685Y-94213371D01*
X68535304Y-94165752D01*
X68630542Y-94118133D01*
X68868638Y-94118133D01*
X68963876Y-94165752D01*
X69011495Y-94213371D01*
X69059114Y-94308609D01*
X69059114Y-94546704D01*
X69011495Y-94641942D01*
X68963876Y-94689561D01*
X68868638Y-94737180D01*
X68630542Y-94737180D01*
X68535304Y-94689561D01*
X68487685Y-94641942D01*
X81759114Y-94737180D02*
X81187685Y-94737180D01*
X81473400Y-94737180D02*
X81473400Y-93737180D01*
X81378161Y-93880038D01*
X81282923Y-93975276D01*
X81187685Y-94022895D01*
D14*
%TO.C,J27*%
X47400000Y-125730000D02*
X44860000Y-125730000D01*
X47400000Y-128270000D02*
X47400000Y-123190000D01*
X47400000Y-123190000D02*
X44860000Y-123190000D01*
X47400000Y-114400000D02*
X44860000Y-114400000D01*
X47400000Y-116940000D02*
X47400000Y-111770000D01*
X47400000Y-116940000D02*
X44860000Y-116940000D01*
X63500000Y-116940000D02*
X63500000Y-111770000D01*
X66040000Y-116940000D02*
X63500000Y-116940000D01*
X66040000Y-114400000D02*
X63500000Y-114400000D01*
X66040000Y-128270000D02*
X44860000Y-128270000D01*
X44860000Y-128270000D02*
X44860000Y-111770000D01*
X66040000Y-111770000D02*
X44860000Y-111770000D01*
X66040000Y-128270000D02*
X66040000Y-111770000D01*
X66040000Y-125630000D02*
X63400000Y-125630000D01*
X63400000Y-128270000D02*
X63400000Y-123090000D01*
X66040000Y-123090000D02*
X63400000Y-123090000D01*
D15*
%TO.C,REF\u002A\u002A*%
G36*
X111686780Y-88720763D02*
G01*
X111798330Y-88776382D01*
X111896788Y-88878791D01*
X111923903Y-88916724D01*
X111953442Y-88966360D01*
X111972608Y-89020272D01*
X111983573Y-89092224D01*
X111988509Y-89195982D01*
X111989593Y-89332961D01*
X111984698Y-89520675D01*
X111967684Y-89661618D01*
X111935057Y-89766768D01*
X111883322Y-89847103D01*
X111808984Y-89913601D01*
X111803522Y-89917538D01*
X111730260Y-89957813D01*
X111642040Y-89977740D01*
X111529842Y-89982653D01*
X111347447Y-89982653D01*
X111347371Y-90159717D01*
X111345673Y-90258330D01*
X111335330Y-90316174D01*
X111308302Y-90350866D01*
X111256548Y-90380024D01*
X111244119Y-90385981D01*
X111185957Y-90413899D01*
X111140924Y-90431532D01*
X111107439Y-90433054D01*
X111083918Y-90412641D01*
X111068780Y-90364467D01*
X111060443Y-90282706D01*
X111057324Y-90161532D01*
X111057840Y-89995120D01*
X111060409Y-89777645D01*
X111061212Y-89712596D01*
X111064102Y-89488362D01*
X111066692Y-89341681D01*
X111347294Y-89341681D01*
X111348871Y-89466186D01*
X111355880Y-89547647D01*
X111371738Y-89601375D01*
X111399861Y-89642683D01*
X111418955Y-89662831D01*
X111497015Y-89721781D01*
X111566127Y-89726580D01*
X111637440Y-89677898D01*
X111639248Y-89676101D01*
X111668263Y-89638478D01*
X111685913Y-89587344D01*
X111694816Y-89508598D01*
X111697589Y-89388136D01*
X111697639Y-89361448D01*
X111690938Y-89195443D01*
X111669128Y-89080365D01*
X111629645Y-89010114D01*
X111569924Y-88978589D01*
X111535408Y-88975412D01*
X111453491Y-88990320D01*
X111397301Y-89039408D01*
X111363478Y-89129222D01*
X111348660Y-89266305D01*
X111347294Y-89341681D01*
X111066692Y-89341681D01*
X111067167Y-89314812D01*
X111071127Y-89184242D01*
X111076706Y-89088947D01*
X111084626Y-89021224D01*
X111095611Y-88973367D01*
X111110381Y-88937673D01*
X111129662Y-88906438D01*
X111137929Y-88894684D01*
X111247592Y-88783657D01*
X111386245Y-88720707D01*
X111546634Y-88703157D01*
X111686780Y-88720763D01*
G37*
X111686780Y-88720763D02*
X111798330Y-88776382D01*
X111896788Y-88878791D01*
X111923903Y-88916724D01*
X111953442Y-88966360D01*
X111972608Y-89020272D01*
X111983573Y-89092224D01*
X111988509Y-89195982D01*
X111989593Y-89332961D01*
X111984698Y-89520675D01*
X111967684Y-89661618D01*
X111935057Y-89766768D01*
X111883322Y-89847103D01*
X111808984Y-89913601D01*
X111803522Y-89917538D01*
X111730260Y-89957813D01*
X111642040Y-89977740D01*
X111529842Y-89982653D01*
X111347447Y-89982653D01*
X111347371Y-90159717D01*
X111345673Y-90258330D01*
X111335330Y-90316174D01*
X111308302Y-90350866D01*
X111256548Y-90380024D01*
X111244119Y-90385981D01*
X111185957Y-90413899D01*
X111140924Y-90431532D01*
X111107439Y-90433054D01*
X111083918Y-90412641D01*
X111068780Y-90364467D01*
X111060443Y-90282706D01*
X111057324Y-90161532D01*
X111057840Y-89995120D01*
X111060409Y-89777645D01*
X111061212Y-89712596D01*
X111064102Y-89488362D01*
X111066692Y-89341681D01*
X111347294Y-89341681D01*
X111348871Y-89466186D01*
X111355880Y-89547647D01*
X111371738Y-89601375D01*
X111399861Y-89642683D01*
X111418955Y-89662831D01*
X111497015Y-89721781D01*
X111566127Y-89726580D01*
X111637440Y-89677898D01*
X111639248Y-89676101D01*
X111668263Y-89638478D01*
X111685913Y-89587344D01*
X111694816Y-89508598D01*
X111697589Y-89388136D01*
X111697639Y-89361448D01*
X111690938Y-89195443D01*
X111669128Y-89080365D01*
X111629645Y-89010114D01*
X111569924Y-88978589D01*
X111535408Y-88975412D01*
X111453491Y-88990320D01*
X111397301Y-89039408D01*
X111363478Y-89129222D01*
X111348660Y-89266305D01*
X111347294Y-89341681D01*
X111066692Y-89341681D01*
X111067167Y-89314812D01*
X111071127Y-89184242D01*
X111076706Y-89088947D01*
X111084626Y-89021224D01*
X111095611Y-88973367D01*
X111110381Y-88937673D01*
X111129662Y-88906438D01*
X111137929Y-88894684D01*
X111247592Y-88783657D01*
X111386245Y-88720707D01*
X111546634Y-88703157D01*
X111686780Y-88720763D01*
G36*
X113932309Y-88736579D02*
G01*
X114026003Y-88790774D01*
X114091144Y-88844567D01*
X114138787Y-88900926D01*
X114171608Y-88969847D01*
X114192286Y-89061328D01*
X114203500Y-89185366D01*
X114207929Y-89351958D01*
X114208443Y-89471711D01*
X114208443Y-89912519D01*
X114084363Y-89968143D01*
X113960282Y-90023767D01*
X113945685Y-89540955D01*
X113939653Y-89360639D01*
X113933325Y-89229761D01*
X113925486Y-89139371D01*
X113914917Y-89080524D01*
X113900403Y-89044273D01*
X113880728Y-89021670D01*
X113874415Y-89016777D01*
X113778768Y-88978566D01*
X113682087Y-88993687D01*
X113624535Y-89033803D01*
X113601125Y-89062230D01*
X113584919Y-89099532D01*
X113574621Y-89156083D01*
X113568929Y-89242254D01*
X113566544Y-89368418D01*
X113566144Y-89499902D01*
X113566066Y-89664859D01*
X113563241Y-89781621D01*
X113553787Y-89860370D01*
X113533820Y-89911291D01*
X113499456Y-89944566D01*
X113446812Y-89970380D01*
X113376497Y-89997204D01*
X113299700Y-90026402D01*
X113308842Y-89508206D01*
X113312523Y-89321399D01*
X113316830Y-89183350D01*
X113323003Y-89084428D01*
X113332282Y-89015005D01*
X113345907Y-88965450D01*
X113365119Y-88926133D01*
X113388282Y-88891444D01*
X113500032Y-88780630D01*
X113636393Y-88716549D01*
X113784705Y-88701199D01*
X113932309Y-88736579D01*
G37*
X113932309Y-88736579D02*
X114026003Y-88790774D01*
X114091144Y-88844567D01*
X114138787Y-88900926D01*
X114171608Y-88969847D01*
X114192286Y-89061328D01*
X114203500Y-89185366D01*
X114207929Y-89351958D01*
X114208443Y-89471711D01*
X114208443Y-89912519D01*
X114084363Y-89968143D01*
X113960282Y-90023767D01*
X113945685Y-89540955D01*
X113939653Y-89360639D01*
X113933325Y-89229761D01*
X113925486Y-89139371D01*
X113914917Y-89080524D01*
X113900403Y-89044273D01*
X113880728Y-89021670D01*
X113874415Y-89016777D01*
X113778768Y-88978566D01*
X113682087Y-88993687D01*
X113624535Y-89033803D01*
X113601125Y-89062230D01*
X113584919Y-89099532D01*
X113574621Y-89156083D01*
X113568929Y-89242254D01*
X113566544Y-89368418D01*
X113566144Y-89499902D01*
X113566066Y-89664859D01*
X113563241Y-89781621D01*
X113553787Y-89860370D01*
X113533820Y-89911291D01*
X113499456Y-89944566D01*
X113446812Y-89970380D01*
X113376497Y-89997204D01*
X113299700Y-90026402D01*
X113308842Y-89508206D01*
X113312523Y-89321399D01*
X113316830Y-89183350D01*
X113323003Y-89084428D01*
X113332282Y-89015005D01*
X113345907Y-88965450D01*
X113365119Y-88926133D01*
X113388282Y-88891444D01*
X113500032Y-88780630D01*
X113636393Y-88716549D01*
X113784705Y-88701199D01*
X113932309Y-88736579D01*
G36*
X110563101Y-88724875D02*
G01*
X110699941Y-88796828D01*
X110800931Y-88912626D01*
X110836805Y-88987073D01*
X110864719Y-89098852D01*
X110879009Y-89240087D01*
X110880364Y-89394231D01*
X110869475Y-89544739D01*
X110847033Y-89675065D01*
X110813730Y-89768663D01*
X110803495Y-89784782D01*
X110682262Y-89905109D01*
X110538267Y-89977177D01*
X110382019Y-89998268D01*
X110224028Y-89965662D01*
X110180060Y-89946113D01*
X110094436Y-89885872D01*
X110019288Y-89805995D01*
X110012186Y-89795864D01*
X109983319Y-89747041D01*
X109964237Y-89694850D01*
X109952964Y-89626145D01*
X109947525Y-89527778D01*
X109945942Y-89386604D01*
X109945915Y-89354952D01*
X109945987Y-89344879D01*
X110237869Y-89344879D01*
X110239567Y-89478116D01*
X110246252Y-89566534D01*
X110260305Y-89623645D01*
X110284109Y-89662962D01*
X110296259Y-89676101D01*
X110366116Y-89726032D01*
X110433939Y-89723755D01*
X110502515Y-89680444D01*
X110543415Y-89634206D01*
X110567638Y-89566717D01*
X110581241Y-89460293D01*
X110582174Y-89447880D01*
X110584496Y-89255007D01*
X110560230Y-89111760D01*
X110509704Y-89019020D01*
X110433248Y-88977667D01*
X110405956Y-88975412D01*
X110334291Y-88986753D01*
X110285270Y-89026044D01*
X110255298Y-89101186D01*
X110240779Y-89220082D01*
X110237869Y-89344879D01*
X109945987Y-89344879D01*
X109947002Y-89204519D01*
X109951568Y-89099409D01*
X109961568Y-89026574D01*
X109978959Y-88972968D01*
X110005696Y-88925541D01*
X110011604Y-88916724D01*
X110110912Y-88797867D01*
X110219122Y-88728868D01*
X110350861Y-88701479D01*
X110395597Y-88700141D01*
X110563101Y-88724875D01*
G37*
X110563101Y-88724875D02*
X110699941Y-88796828D01*
X110800931Y-88912626D01*
X110836805Y-88987073D01*
X110864719Y-89098852D01*
X110879009Y-89240087D01*
X110880364Y-89394231D01*
X110869475Y-89544739D01*
X110847033Y-89675065D01*
X110813730Y-89768663D01*
X110803495Y-89784782D01*
X110682262Y-89905109D01*
X110538267Y-89977177D01*
X110382019Y-89998268D01*
X110224028Y-89965662D01*
X110180060Y-89946113D01*
X110094436Y-89885872D01*
X110019288Y-89805995D01*
X110012186Y-89795864D01*
X109983319Y-89747041D01*
X109964237Y-89694850D01*
X109952964Y-89626145D01*
X109947525Y-89527778D01*
X109945942Y-89386604D01*
X109945915Y-89354952D01*
X109945987Y-89344879D01*
X110237869Y-89344879D01*
X110239567Y-89478116D01*
X110246252Y-89566534D01*
X110260305Y-89623645D01*
X110284109Y-89662962D01*
X110296259Y-89676101D01*
X110366116Y-89726032D01*
X110433939Y-89723755D01*
X110502515Y-89680444D01*
X110543415Y-89634206D01*
X110567638Y-89566717D01*
X110581241Y-89460293D01*
X110582174Y-89447880D01*
X110584496Y-89255007D01*
X110560230Y-89111760D01*
X110509704Y-89019020D01*
X110433248Y-88977667D01*
X110405956Y-88975412D01*
X110334291Y-88986753D01*
X110285270Y-89026044D01*
X110255298Y-89101186D01*
X110240779Y-89220082D01*
X110237869Y-89344879D01*
X109945987Y-89344879D01*
X109947002Y-89204519D01*
X109951568Y-89099409D01*
X109961568Y-89026574D01*
X109978959Y-88972968D01*
X110005696Y-88925541D01*
X110011604Y-88916724D01*
X110110912Y-88797867D01*
X110219122Y-88728868D01*
X110350861Y-88701479D01*
X110395597Y-88700141D01*
X110563101Y-88724875D01*
G36*
X112830432Y-88743536D02*
G01*
X112945538Y-88820971D01*
X113034491Y-88932809D01*
X113087629Y-89075125D01*
X113098377Y-89179875D01*
X113097156Y-89223586D01*
X113086936Y-89257054D01*
X113058841Y-89287039D01*
X113003996Y-89320300D01*
X112913525Y-89363598D01*
X112778552Y-89423693D01*
X112777869Y-89423994D01*
X112653631Y-89480897D01*
X112551753Y-89531425D01*
X112482647Y-89570140D01*
X112456726Y-89591600D01*
X112456719Y-89591773D01*
X112479565Y-89638504D01*
X112532989Y-89690014D01*
X112594322Y-89727121D01*
X112625395Y-89734492D01*
X112710169Y-89708998D01*
X112783173Y-89645151D01*
X112818793Y-89574954D01*
X112853060Y-89523203D01*
X112920183Y-89464269D01*
X112999088Y-89413356D01*
X113068701Y-89385669D01*
X113083257Y-89384147D01*
X113099643Y-89409181D01*
X113100630Y-89473171D01*
X113088588Y-89559453D01*
X113065887Y-89651361D01*
X113034894Y-89732229D01*
X113033328Y-89735369D01*
X112940061Y-89865594D01*
X112819184Y-89954171D01*
X112681907Y-89997646D01*
X112539440Y-89992566D01*
X112402992Y-89935476D01*
X112396925Y-89931462D01*
X112289590Y-89834186D01*
X112219012Y-89707269D01*
X112179954Y-89540386D01*
X112174712Y-89493499D01*
X112165428Y-89272189D01*
X112176558Y-89168984D01*
X112456719Y-89168984D01*
X112460359Y-89233363D01*
X112480269Y-89252151D01*
X112529906Y-89238095D01*
X112608147Y-89204869D01*
X112695606Y-89163219D01*
X112697779Y-89162116D01*
X112771910Y-89123125D01*
X112801661Y-89097104D01*
X112794325Y-89069825D01*
X112763433Y-89033981D01*
X112684840Y-88982111D01*
X112600203Y-88978299D01*
X112524283Y-89016049D01*
X112471845Y-89088861D01*
X112456719Y-89168984D01*
X112176558Y-89168984D01*
X112184524Y-89095121D01*
X112233514Y-88954689D01*
X112301716Y-88856307D01*
X112424815Y-88756890D01*
X112560408Y-88707571D01*
X112698835Y-88704428D01*
X112830432Y-88743536D01*
G37*
X112830432Y-88743536D02*
X112945538Y-88820971D01*
X113034491Y-88932809D01*
X113087629Y-89075125D01*
X113098377Y-89179875D01*
X113097156Y-89223586D01*
X113086936Y-89257054D01*
X113058841Y-89287039D01*
X113003996Y-89320300D01*
X112913525Y-89363598D01*
X112778552Y-89423693D01*
X112777869Y-89423994D01*
X112653631Y-89480897D01*
X112551753Y-89531425D01*
X112482647Y-89570140D01*
X112456726Y-89591600D01*
X112456719Y-89591773D01*
X112479565Y-89638504D01*
X112532989Y-89690014D01*
X112594322Y-89727121D01*
X112625395Y-89734492D01*
X112710169Y-89708998D01*
X112783173Y-89645151D01*
X112818793Y-89574954D01*
X112853060Y-89523203D01*
X112920183Y-89464269D01*
X112999088Y-89413356D01*
X113068701Y-89385669D01*
X113083257Y-89384147D01*
X113099643Y-89409181D01*
X113100630Y-89473171D01*
X113088588Y-89559453D01*
X113065887Y-89651361D01*
X113034894Y-89732229D01*
X113033328Y-89735369D01*
X112940061Y-89865594D01*
X112819184Y-89954171D01*
X112681907Y-89997646D01*
X112539440Y-89992566D01*
X112402992Y-89935476D01*
X112396925Y-89931462D01*
X112289590Y-89834186D01*
X112219012Y-89707269D01*
X112179954Y-89540386D01*
X112174712Y-89493499D01*
X112165428Y-89272189D01*
X112176558Y-89168984D01*
X112456719Y-89168984D01*
X112460359Y-89233363D01*
X112480269Y-89252151D01*
X112529906Y-89238095D01*
X112608147Y-89204869D01*
X112695606Y-89163219D01*
X112697779Y-89162116D01*
X112771910Y-89123125D01*
X112801661Y-89097104D01*
X112794325Y-89069825D01*
X112763433Y-89033981D01*
X112684840Y-88982111D01*
X112600203Y-88978299D01*
X112524283Y-89016049D01*
X112471845Y-89088861D01*
X112456719Y-89168984D01*
X112176558Y-89168984D01*
X112184524Y-89095121D01*
X112233514Y-88954689D01*
X112301716Y-88856307D01*
X112424815Y-88756890D01*
X112560408Y-88707571D01*
X112698835Y-88704428D01*
X112830432Y-88743536D01*
G36*
X115259478Y-88582717D02*
G01*
X115268034Y-88702048D01*
X115277861Y-88772366D01*
X115291479Y-88803039D01*
X115311407Y-88803431D01*
X115317869Y-88799770D01*
X115403820Y-88773258D01*
X115515625Y-88774806D01*
X115629294Y-88802059D01*
X115700390Y-88837315D01*
X115773285Y-88893638D01*
X115826573Y-88957379D01*
X115863155Y-89038370D01*
X115885930Y-89146446D01*
X115897799Y-89291440D01*
X115901662Y-89483186D01*
X115901731Y-89519969D01*
X115901777Y-89933148D01*
X115809834Y-89965199D01*
X115744532Y-89987004D01*
X115708704Y-89997157D01*
X115707650Y-89997251D01*
X115704122Y-89969720D01*
X115701119Y-89893783D01*
X115698870Y-89779425D01*
X115697604Y-89636629D01*
X115697409Y-89549811D01*
X115697003Y-89378633D01*
X115694912Y-89255948D01*
X115689827Y-89171860D01*
X115680440Y-89116474D01*
X115665441Y-89079892D01*
X115643522Y-89052219D01*
X115629837Y-89038892D01*
X115535829Y-88985188D01*
X115433244Y-88981167D01*
X115340170Y-89026585D01*
X115322958Y-89042983D01*
X115297712Y-89073817D01*
X115280200Y-89110391D01*
X115269022Y-89163275D01*
X115262776Y-89243037D01*
X115260062Y-89360245D01*
X115259478Y-89521851D01*
X115259478Y-89933148D01*
X115167535Y-89965199D01*
X115102233Y-89987004D01*
X115066405Y-89997157D01*
X115065351Y-89997251D01*
X115062655Y-89969308D01*
X115060225Y-89890490D01*
X115058158Y-89768313D01*
X115056551Y-89610292D01*
X115055503Y-89423943D01*
X115055111Y-89216780D01*
X115055110Y-89207566D01*
X115055110Y-88417880D01*
X115149995Y-88377857D01*
X115244880Y-88337833D01*
X115259478Y-88582717D01*
G37*
X115259478Y-88582717D02*
X115268034Y-88702048D01*
X115277861Y-88772366D01*
X115291479Y-88803039D01*
X115311407Y-88803431D01*
X115317869Y-88799770D01*
X115403820Y-88773258D01*
X115515625Y-88774806D01*
X115629294Y-88802059D01*
X115700390Y-88837315D01*
X115773285Y-88893638D01*
X115826573Y-88957379D01*
X115863155Y-89038370D01*
X115885930Y-89146446D01*
X115897799Y-89291440D01*
X115901662Y-89483186D01*
X115901731Y-89519969D01*
X115901777Y-89933148D01*
X115809834Y-89965199D01*
X115744532Y-89987004D01*
X115708704Y-89997157D01*
X115707650Y-89997251D01*
X115704122Y-89969720D01*
X115701119Y-89893783D01*
X115698870Y-89779425D01*
X115697604Y-89636629D01*
X115697409Y-89549811D01*
X115697003Y-89378633D01*
X115694912Y-89255948D01*
X115689827Y-89171860D01*
X115680440Y-89116474D01*
X115665441Y-89079892D01*
X115643522Y-89052219D01*
X115629837Y-89038892D01*
X115535829Y-88985188D01*
X115433244Y-88981167D01*
X115340170Y-89026585D01*
X115322958Y-89042983D01*
X115297712Y-89073817D01*
X115280200Y-89110391D01*
X115269022Y-89163275D01*
X115262776Y-89243037D01*
X115260062Y-89360245D01*
X115259478Y-89521851D01*
X115259478Y-89933148D01*
X115167535Y-89965199D01*
X115102233Y-89987004D01*
X115066405Y-89997157D01*
X115065351Y-89997251D01*
X115062655Y-89969308D01*
X115060225Y-89890490D01*
X115058158Y-89768313D01*
X115056551Y-89610292D01*
X115055503Y-89423943D01*
X115055111Y-89216780D01*
X115055110Y-89207566D01*
X115055110Y-88417880D01*
X115149995Y-88377857D01*
X115244880Y-88337833D01*
X115259478Y-88582717D01*
G36*
X116594824Y-88783220D02*
G01*
X116709223Y-88825702D01*
X116710532Y-88826518D01*
X116781283Y-88878590D01*
X116833516Y-88939444D01*
X116870251Y-89018747D01*
X116894514Y-89126169D01*
X116909325Y-89271377D01*
X116917709Y-89464039D01*
X116918444Y-89491488D01*
X116929000Y-89905381D01*
X116840171Y-89951316D01*
X116775898Y-89982358D01*
X116737090Y-89997066D01*
X116735295Y-89997251D01*
X116728580Y-89970110D01*
X116723245Y-89896901D01*
X116719963Y-89789941D01*
X116719248Y-89703329D01*
X116719231Y-89563022D01*
X116712817Y-89474911D01*
X116690460Y-89432885D01*
X116642612Y-89430835D01*
X116559729Y-89462650D01*
X116434593Y-89521132D01*
X116342577Y-89569705D01*
X116295251Y-89611846D01*
X116281338Y-89657776D01*
X116281317Y-89660049D01*
X116304275Y-89739171D01*
X116372250Y-89781915D01*
X116476278Y-89788106D01*
X116551210Y-89787032D01*
X116590719Y-89808613D01*
X116615358Y-89860451D01*
X116629539Y-89926492D01*
X116609103Y-89963964D01*
X116601408Y-89969327D01*
X116528963Y-89990866D01*
X116427513Y-89993915D01*
X116323037Y-89979638D01*
X116249005Y-89953548D01*
X116146652Y-89866645D01*
X116088471Y-89745676D01*
X116076949Y-89651168D01*
X116085742Y-89565922D01*
X116117560Y-89496336D01*
X116180564Y-89434532D01*
X116282911Y-89372632D01*
X116432762Y-89302757D01*
X116441892Y-89298808D01*
X116576877Y-89236448D01*
X116660174Y-89185306D01*
X116695877Y-89139348D01*
X116688083Y-89092543D01*
X116640887Y-89038858D01*
X116626774Y-89026504D01*
X116532239Y-88978601D01*
X116434286Y-88980618D01*
X116348977Y-89027584D01*
X116292376Y-89114529D01*
X116287117Y-89131594D01*
X116235903Y-89214364D01*
X116170917Y-89254232D01*
X116076949Y-89293742D01*
X116076949Y-89191518D01*
X116105533Y-89042932D01*
X116190375Y-88906644D01*
X116234525Y-88861051D01*
X116334885Y-88802534D01*
X116462515Y-88776044D01*
X116594824Y-88783220D01*
G37*
X116594824Y-88783220D02*
X116709223Y-88825702D01*
X116710532Y-88826518D01*
X116781283Y-88878590D01*
X116833516Y-88939444D01*
X116870251Y-89018747D01*
X116894514Y-89126169D01*
X116909325Y-89271377D01*
X116917709Y-89464039D01*
X116918444Y-89491488D01*
X116929000Y-89905381D01*
X116840171Y-89951316D01*
X116775898Y-89982358D01*
X116737090Y-89997066D01*
X116735295Y-89997251D01*
X116728580Y-89970110D01*
X116723245Y-89896901D01*
X116719963Y-89789941D01*
X116719248Y-89703329D01*
X116719231Y-89563022D01*
X116712817Y-89474911D01*
X116690460Y-89432885D01*
X116642612Y-89430835D01*
X116559729Y-89462650D01*
X116434593Y-89521132D01*
X116342577Y-89569705D01*
X116295251Y-89611846D01*
X116281338Y-89657776D01*
X116281317Y-89660049D01*
X116304275Y-89739171D01*
X116372250Y-89781915D01*
X116476278Y-89788106D01*
X116551210Y-89787032D01*
X116590719Y-89808613D01*
X116615358Y-89860451D01*
X116629539Y-89926492D01*
X116609103Y-89963964D01*
X116601408Y-89969327D01*
X116528963Y-89990866D01*
X116427513Y-89993915D01*
X116323037Y-89979638D01*
X116249005Y-89953548D01*
X116146652Y-89866645D01*
X116088471Y-89745676D01*
X116076949Y-89651168D01*
X116085742Y-89565922D01*
X116117560Y-89496336D01*
X116180564Y-89434532D01*
X116282911Y-89372632D01*
X116432762Y-89302757D01*
X116441892Y-89298808D01*
X116576877Y-89236448D01*
X116660174Y-89185306D01*
X116695877Y-89139348D01*
X116688083Y-89092543D01*
X116640887Y-89038858D01*
X116626774Y-89026504D01*
X116532239Y-88978601D01*
X116434286Y-88980618D01*
X116348977Y-89027584D01*
X116292376Y-89114529D01*
X116287117Y-89131594D01*
X116235903Y-89214364D01*
X116170917Y-89254232D01*
X116076949Y-89293742D01*
X116076949Y-89191518D01*
X116105533Y-89042932D01*
X116190375Y-88906644D01*
X116234525Y-88861051D01*
X116334885Y-88802534D01*
X116462515Y-88776044D01*
X116594824Y-88783220D01*
G36*
X117580823Y-88780780D02*
G01*
X117713445Y-88829719D01*
X117820890Y-88916279D01*
X117862912Y-88977212D01*
X117908723Y-89089021D01*
X117907771Y-89169866D01*
X117859688Y-89224238D01*
X117841897Y-89233484D01*
X117765084Y-89262310D01*
X117725856Y-89254925D01*
X117712569Y-89206518D01*
X117711892Y-89179780D01*
X117687566Y-89081408D01*
X117624161Y-89012594D01*
X117536034Y-88979358D01*
X117437543Y-88987721D01*
X117357482Y-89031156D01*
X117330441Y-89055932D01*
X117311274Y-89085989D01*
X117298326Y-89131425D01*
X117289944Y-89202336D01*
X117284473Y-89308820D01*
X117280258Y-89460972D01*
X117279167Y-89509147D01*
X117275187Y-89673955D01*
X117270661Y-89789948D01*
X117263875Y-89866693D01*
X117253111Y-89913753D01*
X117236653Y-89940695D01*
X117212786Y-89957083D01*
X117197506Y-89964323D01*
X117132613Y-89989080D01*
X117094414Y-89997251D01*
X117081792Y-89969963D01*
X117074088Y-89887463D01*
X117071260Y-89748801D01*
X117073266Y-89553022D01*
X117073891Y-89522825D01*
X117078301Y-89344209D01*
X117083515Y-89213783D01*
X117090935Y-89121352D01*
X117101962Y-89056718D01*
X117117997Y-89009685D01*
X117140441Y-88970056D01*
X117152182Y-88953075D01*
X117219499Y-88877940D01*
X117294790Y-88819498D01*
X117304008Y-88814396D01*
X117439013Y-88774120D01*
X117580823Y-88780780D01*
G37*
X117580823Y-88780780D02*
X117713445Y-88829719D01*
X117820890Y-88916279D01*
X117862912Y-88977212D01*
X117908723Y-89089021D01*
X117907771Y-89169866D01*
X117859688Y-89224238D01*
X117841897Y-89233484D01*
X117765084Y-89262310D01*
X117725856Y-89254925D01*
X117712569Y-89206518D01*
X117711892Y-89179780D01*
X117687566Y-89081408D01*
X117624161Y-89012594D01*
X117536034Y-88979358D01*
X117437543Y-88987721D01*
X117357482Y-89031156D01*
X117330441Y-89055932D01*
X117311274Y-89085989D01*
X117298326Y-89131425D01*
X117289944Y-89202336D01*
X117284473Y-89308820D01*
X117280258Y-89460972D01*
X117279167Y-89509147D01*
X117275187Y-89673955D01*
X117270661Y-89789948D01*
X117263875Y-89866693D01*
X117253111Y-89913753D01*
X117236653Y-89940695D01*
X117212786Y-89957083D01*
X117197506Y-89964323D01*
X117132613Y-89989080D01*
X117094414Y-89997251D01*
X117081792Y-89969963D01*
X117074088Y-89887463D01*
X117071260Y-89748801D01*
X117073266Y-89553022D01*
X117073891Y-89522825D01*
X117078301Y-89344209D01*
X117083515Y-89213783D01*
X117090935Y-89121352D01*
X117101962Y-89056718D01*
X117117997Y-89009685D01*
X117140441Y-88970056D01*
X117152182Y-88953075D01*
X117219499Y-88877940D01*
X117294790Y-88819498D01*
X117304008Y-88814396D01*
X117439013Y-88774120D01*
X117580823Y-88780780D01*
G36*
X118908794Y-89013315D02*
G01*
X118908423Y-89231521D01*
X118906988Y-89399379D01*
X118903882Y-89524930D01*
X118898502Y-89616215D01*
X118890242Y-89681275D01*
X118878496Y-89728151D01*
X118862661Y-89764884D01*
X118850670Y-89785851D01*
X118751370Y-89899554D01*
X118625468Y-89970825D01*
X118486171Y-89996398D01*
X118346685Y-89973010D01*
X118263623Y-89930979D01*
X118176425Y-89858271D01*
X118116997Y-89769472D01*
X118081141Y-89653180D01*
X118064661Y-89497995D01*
X118062327Y-89384147D01*
X118062641Y-89375966D01*
X118266604Y-89375966D01*
X118267850Y-89506517D01*
X118273558Y-89592940D01*
X118286684Y-89649478D01*
X118310186Y-89690374D01*
X118338266Y-89721222D01*
X118432568Y-89780765D01*
X118533820Y-89785852D01*
X118629516Y-89736139D01*
X118636964Y-89729403D01*
X118668754Y-89694362D01*
X118688688Y-89652671D01*
X118699480Y-89590622D01*
X118703845Y-89494504D01*
X118704535Y-89388239D01*
X118703039Y-89254740D01*
X118696844Y-89165682D01*
X118683394Y-89107153D01*
X118660131Y-89065242D01*
X118641055Y-89042983D01*
X118552443Y-88986845D01*
X118450388Y-88980095D01*
X118352975Y-89022974D01*
X118334176Y-89038892D01*
X118302173Y-89074242D01*
X118282198Y-89116362D01*
X118271473Y-89179111D01*
X118267219Y-89276347D01*
X118266604Y-89375966D01*
X118062641Y-89375966D01*
X118069384Y-89200807D01*
X118093352Y-89063055D01*
X118138428Y-88959492D01*
X118208808Y-88878716D01*
X118263623Y-88837315D01*
X118363256Y-88792588D01*
X118478735Y-88771827D01*
X118586079Y-88777385D01*
X118646144Y-88799803D01*
X118669715Y-88806183D01*
X118685357Y-88782395D01*
X118696275Y-88718648D01*
X118704535Y-88621547D01*
X118713579Y-88513401D01*
X118726141Y-88448335D01*
X118748999Y-88411128D01*
X118788931Y-88386559D01*
X118814018Y-88375679D01*
X118908903Y-88335932D01*
X118908794Y-89013315D01*
G37*
X118908794Y-89013315D02*
X118908423Y-89231521D01*
X118906988Y-89399379D01*
X118903882Y-89524930D01*
X118898502Y-89616215D01*
X118890242Y-89681275D01*
X118878496Y-89728151D01*
X118862661Y-89764884D01*
X118850670Y-89785851D01*
X118751370Y-89899554D01*
X118625468Y-89970825D01*
X118486171Y-89996398D01*
X118346685Y-89973010D01*
X118263623Y-89930979D01*
X118176425Y-89858271D01*
X118116997Y-89769472D01*
X118081141Y-89653180D01*
X118064661Y-89497995D01*
X118062327Y-89384147D01*
X118062641Y-89375966D01*
X118266604Y-89375966D01*
X118267850Y-89506517D01*
X118273558Y-89592940D01*
X118286684Y-89649478D01*
X118310186Y-89690374D01*
X118338266Y-89721222D01*
X118432568Y-89780765D01*
X118533820Y-89785852D01*
X118629516Y-89736139D01*
X118636964Y-89729403D01*
X118668754Y-89694362D01*
X118688688Y-89652671D01*
X118699480Y-89590622D01*
X118703845Y-89494504D01*
X118704535Y-89388239D01*
X118703039Y-89254740D01*
X118696844Y-89165682D01*
X118683394Y-89107153D01*
X118660131Y-89065242D01*
X118641055Y-89042983D01*
X118552443Y-88986845D01*
X118450388Y-88980095D01*
X118352975Y-89022974D01*
X118334176Y-89038892D01*
X118302173Y-89074242D01*
X118282198Y-89116362D01*
X118271473Y-89179111D01*
X118267219Y-89276347D01*
X118266604Y-89375966D01*
X118062641Y-89375966D01*
X118069384Y-89200807D01*
X118093352Y-89063055D01*
X118138428Y-88959492D01*
X118208808Y-88878716D01*
X118263623Y-88837315D01*
X118363256Y-88792588D01*
X118478735Y-88771827D01*
X118586079Y-88777385D01*
X118646144Y-88799803D01*
X118669715Y-88806183D01*
X118685357Y-88782395D01*
X118696275Y-88718648D01*
X118704535Y-88621547D01*
X118713579Y-88513401D01*
X118726141Y-88448335D01*
X118748999Y-88411128D01*
X118788931Y-88386559D01*
X118814018Y-88375679D01*
X118908903Y-88335932D01*
X118908794Y-89013315D01*
G36*
X120095004Y-88798700D02*
G01*
X120099459Y-88875513D01*
X120102951Y-88992251D01*
X120105195Y-89139681D01*
X120105915Y-89294315D01*
X120105915Y-89817587D01*
X120013525Y-89909977D01*
X119949858Y-89966907D01*
X119893969Y-89989967D01*
X119817582Y-89988507D01*
X119787260Y-89984794D01*
X119692490Y-89973986D01*
X119614102Y-89967793D01*
X119594995Y-89967221D01*
X119530579Y-89970962D01*
X119438451Y-89980354D01*
X119402730Y-89984794D01*
X119314994Y-89991661D01*
X119256033Y-89976745D01*
X119197570Y-89930695D01*
X119176465Y-89909977D01*
X119084075Y-89817587D01*
X119084075Y-88838807D01*
X119158438Y-88804926D01*
X119222470Y-88779830D01*
X119259932Y-88771044D01*
X119269537Y-88798810D01*
X119278515Y-88876390D01*
X119286266Y-88995208D01*
X119292194Y-89146688D01*
X119295053Y-89274665D01*
X119303041Y-89778285D01*
X119372728Y-89788138D01*
X119436109Y-89781249D01*
X119467166Y-89758943D01*
X119475847Y-89717239D01*
X119483258Y-89628404D01*
X119488811Y-89503694D01*
X119491916Y-89354367D01*
X119492364Y-89277521D01*
X119492811Y-88835147D01*
X119584754Y-88803095D01*
X119649829Y-88781303D01*
X119685227Y-88771141D01*
X119686248Y-88771044D01*
X119689800Y-88798669D01*
X119693703Y-88875271D01*
X119697631Y-88991439D01*
X119701256Y-89137764D01*
X119703788Y-89274665D01*
X119711777Y-89778285D01*
X119886949Y-89778285D01*
X119894987Y-89318825D01*
X119903026Y-88859365D01*
X119988423Y-88815204D01*
X120051473Y-88784879D01*
X120088790Y-88771118D01*
X120089867Y-88771044D01*
X120095004Y-88798700D01*
G37*
X120095004Y-88798700D02*
X120099459Y-88875513D01*
X120102951Y-88992251D01*
X120105195Y-89139681D01*
X120105915Y-89294315D01*
X120105915Y-89817587D01*
X120013525Y-89909977D01*
X119949858Y-89966907D01*
X119893969Y-89989967D01*
X119817582Y-89988507D01*
X119787260Y-89984794D01*
X119692490Y-89973986D01*
X119614102Y-89967793D01*
X119594995Y-89967221D01*
X119530579Y-89970962D01*
X119438451Y-89980354D01*
X119402730Y-89984794D01*
X119314994Y-89991661D01*
X119256033Y-89976745D01*
X119197570Y-89930695D01*
X119176465Y-89909977D01*
X119084075Y-89817587D01*
X119084075Y-88838807D01*
X119158438Y-88804926D01*
X119222470Y-88779830D01*
X119259932Y-88771044D01*
X119269537Y-88798810D01*
X119278515Y-88876390D01*
X119286266Y-88995208D01*
X119292194Y-89146688D01*
X119295053Y-89274665D01*
X119303041Y-89778285D01*
X119372728Y-89788138D01*
X119436109Y-89781249D01*
X119467166Y-89758943D01*
X119475847Y-89717239D01*
X119483258Y-89628404D01*
X119488811Y-89503694D01*
X119491916Y-89354367D01*
X119492364Y-89277521D01*
X119492811Y-88835147D01*
X119584754Y-88803095D01*
X119649829Y-88781303D01*
X119685227Y-88771141D01*
X119686248Y-88771044D01*
X119689800Y-88798669D01*
X119693703Y-88875271D01*
X119697631Y-88991439D01*
X119701256Y-89137764D01*
X119703788Y-89274665D01*
X119711777Y-89778285D01*
X119886949Y-89778285D01*
X119894987Y-89318825D01*
X119903026Y-88859365D01*
X119988423Y-88815204D01*
X120051473Y-88784879D01*
X120088790Y-88771118D01*
X120089867Y-88771044D01*
X120095004Y-88798700D01*
G36*
X120829286Y-88794016D02*
G01*
X120913349Y-88832253D01*
X120979330Y-88878586D01*
X121027674Y-88930392D01*
X121061052Y-88997223D01*
X121082133Y-89088629D01*
X121093587Y-89214161D01*
X121098083Y-89383368D01*
X121098558Y-89494793D01*
X121098558Y-89929487D01*
X121024196Y-89963369D01*
X120965626Y-89988132D01*
X120936610Y-89997251D01*
X120931059Y-89970117D01*
X120926655Y-89896954D01*
X120923958Y-89790123D01*
X120923386Y-89705297D01*
X120920926Y-89582747D01*
X120914292Y-89485528D01*
X120904606Y-89425994D01*
X120896912Y-89413343D01*
X120845191Y-89426262D01*
X120763997Y-89459399D01*
X120669982Y-89504321D01*
X120579797Y-89552595D01*
X120510095Y-89595788D01*
X120477528Y-89625468D01*
X120477399Y-89625789D01*
X120480200Y-89680717D01*
X120505319Y-89733152D01*
X120549421Y-89775741D01*
X120613789Y-89789986D01*
X120668801Y-89788326D01*
X120746715Y-89787105D01*
X120787612Y-89805358D01*
X120812175Y-89853586D01*
X120815272Y-89862680D01*
X120825920Y-89931458D01*
X120797445Y-89973220D01*
X120723224Y-89993123D01*
X120643048Y-89996804D01*
X120498770Y-89969518D01*
X120424083Y-89930550D01*
X120331843Y-89839008D01*
X120282923Y-89726642D01*
X120278534Y-89607911D01*
X120319881Y-89497271D01*
X120382077Y-89427940D01*
X120444174Y-89389125D01*
X120541775Y-89339985D01*
X120655512Y-89290152D01*
X120674470Y-89282537D01*
X120799401Y-89227405D01*
X120871419Y-89178814D01*
X120894580Y-89130507D01*
X120872944Y-89076230D01*
X120835800Y-89033803D01*
X120748007Y-88981562D01*
X120651410Y-88977644D01*
X120562824Y-89017901D01*
X120499066Y-89098186D01*
X120490697Y-89118900D01*
X120441976Y-89195085D01*
X120370845Y-89251645D01*
X120281087Y-89298061D01*
X120281087Y-89166444D01*
X120286370Y-89086028D01*
X120309022Y-89022646D01*
X120359247Y-88955023D01*
X120407462Y-88902936D01*
X120482434Y-88829182D01*
X120540686Y-88789562D01*
X120603252Y-88773670D01*
X120674073Y-88771044D01*
X120829286Y-88794016D01*
G37*
X120829286Y-88794016D02*
X120913349Y-88832253D01*
X120979330Y-88878586D01*
X121027674Y-88930392D01*
X121061052Y-88997223D01*
X121082133Y-89088629D01*
X121093587Y-89214161D01*
X121098083Y-89383368D01*
X121098558Y-89494793D01*
X121098558Y-89929487D01*
X121024196Y-89963369D01*
X120965626Y-89988132D01*
X120936610Y-89997251D01*
X120931059Y-89970117D01*
X120926655Y-89896954D01*
X120923958Y-89790123D01*
X120923386Y-89705297D01*
X120920926Y-89582747D01*
X120914292Y-89485528D01*
X120904606Y-89425994D01*
X120896912Y-89413343D01*
X120845191Y-89426262D01*
X120763997Y-89459399D01*
X120669982Y-89504321D01*
X120579797Y-89552595D01*
X120510095Y-89595788D01*
X120477528Y-89625468D01*
X120477399Y-89625789D01*
X120480200Y-89680717D01*
X120505319Y-89733152D01*
X120549421Y-89775741D01*
X120613789Y-89789986D01*
X120668801Y-89788326D01*
X120746715Y-89787105D01*
X120787612Y-89805358D01*
X120812175Y-89853586D01*
X120815272Y-89862680D01*
X120825920Y-89931458D01*
X120797445Y-89973220D01*
X120723224Y-89993123D01*
X120643048Y-89996804D01*
X120498770Y-89969518D01*
X120424083Y-89930550D01*
X120331843Y-89839008D01*
X120282923Y-89726642D01*
X120278534Y-89607911D01*
X120319881Y-89497271D01*
X120382077Y-89427940D01*
X120444174Y-89389125D01*
X120541775Y-89339985D01*
X120655512Y-89290152D01*
X120674470Y-89282537D01*
X120799401Y-89227405D01*
X120871419Y-89178814D01*
X120894580Y-89130507D01*
X120872944Y-89076230D01*
X120835800Y-89033803D01*
X120748007Y-88981562D01*
X120651410Y-88977644D01*
X120562824Y-89017901D01*
X120499066Y-89098186D01*
X120490697Y-89118900D01*
X120441976Y-89195085D01*
X120370845Y-89251645D01*
X120281087Y-89298061D01*
X120281087Y-89166444D01*
X120286370Y-89086028D01*
X120309022Y-89022646D01*
X120359247Y-88955023D01*
X120407462Y-88902936D01*
X120482434Y-88829182D01*
X120540686Y-88789562D01*
X120603252Y-88773670D01*
X120674073Y-88771044D01*
X120829286Y-88794016D01*
G36*
X121850570Y-88798878D02*
G01*
X121885465Y-88814129D01*
X121968757Y-88880095D01*
X122039983Y-88975478D01*
X122084033Y-89077266D01*
X122091202Y-89127447D01*
X122067165Y-89197507D01*
X122014441Y-89234577D01*
X121957911Y-89257024D01*
X121932026Y-89261160D01*
X121919422Y-89231143D01*
X121894534Y-89165821D01*
X121883615Y-89136305D01*
X121822388Y-89034208D01*
X121733741Y-88983283D01*
X121620073Y-88984849D01*
X121611654Y-88986854D01*
X121550968Y-89015627D01*
X121506354Y-89071719D01*
X121475882Y-89162023D01*
X121457624Y-89293431D01*
X121449651Y-89472834D01*
X121448903Y-89568293D01*
X121448532Y-89718773D01*
X121446103Y-89821355D01*
X121439640Y-89886532D01*
X121427168Y-89924798D01*
X121406713Y-89946645D01*
X121376299Y-89962567D01*
X121374541Y-89963369D01*
X121315971Y-89988132D01*
X121286955Y-89997251D01*
X121282496Y-89969682D01*
X121278679Y-89893480D01*
X121275779Y-89778401D01*
X121274071Y-89634201D01*
X121273731Y-89528674D01*
X121275468Y-89324473D01*
X121282262Y-89169557D01*
X121296487Y-89054884D01*
X121320518Y-88971411D01*
X121356728Y-88910096D01*
X121407492Y-88861894D01*
X121457619Y-88828253D01*
X121578155Y-88783479D01*
X121718437Y-88773381D01*
X121850570Y-88798878D01*
G37*
X121850570Y-88798878D02*
X121885465Y-88814129D01*
X121968757Y-88880095D01*
X122039983Y-88975478D01*
X122084033Y-89077266D01*
X122091202Y-89127447D01*
X122067165Y-89197507D01*
X122014441Y-89234577D01*
X121957911Y-89257024D01*
X121932026Y-89261160D01*
X121919422Y-89231143D01*
X121894534Y-89165821D01*
X121883615Y-89136305D01*
X121822388Y-89034208D01*
X121733741Y-88983283D01*
X121620073Y-88984849D01*
X121611654Y-88986854D01*
X121550968Y-89015627D01*
X121506354Y-89071719D01*
X121475882Y-89162023D01*
X121457624Y-89293431D01*
X121449651Y-89472834D01*
X121448903Y-89568293D01*
X121448532Y-89718773D01*
X121446103Y-89821355D01*
X121439640Y-89886532D01*
X121427168Y-89924798D01*
X121406713Y-89946645D01*
X121376299Y-89962567D01*
X121374541Y-89963369D01*
X121315971Y-89988132D01*
X121286955Y-89997251D01*
X121282496Y-89969682D01*
X121278679Y-89893480D01*
X121275779Y-89778401D01*
X121274071Y-89634201D01*
X121273731Y-89528674D01*
X121275468Y-89324473D01*
X121282262Y-89169557D01*
X121296487Y-89054884D01*
X121320518Y-88971411D01*
X121356728Y-88910096D01*
X121407492Y-88861894D01*
X121457619Y-88828253D01*
X121578155Y-88783479D01*
X121718437Y-88773381D01*
X121850570Y-88798878D01*
G36*
X122858319Y-88815400D02*
G01*
X122973830Y-88890894D01*
X123029544Y-88958477D01*
X123073684Y-89081115D01*
X123077189Y-89178158D01*
X123069248Y-89307916D01*
X122769995Y-89438899D01*
X122624491Y-89505818D01*
X122529417Y-89559650D01*
X122479981Y-89606276D01*
X122471391Y-89651580D01*
X122498852Y-89701442D01*
X122529133Y-89734492D01*
X122617243Y-89787493D01*
X122713076Y-89791207D01*
X122801092Y-89749901D01*
X122865749Y-89667843D01*
X122877313Y-89638868D01*
X122932705Y-89548369D01*
X122996433Y-89509800D01*
X123083846Y-89476806D01*
X123083846Y-89601894D01*
X123076118Y-89687016D01*
X123045846Y-89758798D01*
X122982398Y-89841216D01*
X122972968Y-89851926D01*
X122902393Y-89925251D01*
X122841727Y-89964602D01*
X122765830Y-89982705D01*
X122702910Y-89988634D01*
X122590367Y-89990111D01*
X122510250Y-89971395D01*
X122460270Y-89943607D01*
X122381718Y-89882501D01*
X122327343Y-89816414D01*
X122292932Y-89733301D01*
X122274268Y-89621114D01*
X122267136Y-89467806D01*
X122266567Y-89389996D01*
X122268502Y-89296713D01*
X122444779Y-89296713D01*
X122446824Y-89346756D01*
X122451919Y-89354952D01*
X122485546Y-89343818D01*
X122557910Y-89314353D01*
X122654627Y-89272461D01*
X122674853Y-89263457D01*
X122797083Y-89201302D01*
X122864427Y-89146675D01*
X122879228Y-89095509D01*
X122843827Y-89043736D01*
X122814591Y-89020860D01*
X122709096Y-88975110D01*
X122610356Y-88982668D01*
X122527692Y-89038511D01*
X122470428Y-89137613D01*
X122452068Y-89216274D01*
X122444779Y-89296713D01*
X122268502Y-89296713D01*
X122270339Y-89208211D01*
X122284239Y-89073713D01*
X122311774Y-88975776D01*
X122356452Y-88903671D01*
X122421781Y-88846673D01*
X122450263Y-88828253D01*
X122579643Y-88780282D01*
X122721292Y-88777263D01*
X122858319Y-88815400D01*
G37*
X122858319Y-88815400D02*
X122973830Y-88890894D01*
X123029544Y-88958477D01*
X123073684Y-89081115D01*
X123077189Y-89178158D01*
X123069248Y-89307916D01*
X122769995Y-89438899D01*
X122624491Y-89505818D01*
X122529417Y-89559650D01*
X122479981Y-89606276D01*
X122471391Y-89651580D01*
X122498852Y-89701442D01*
X122529133Y-89734492D01*
X122617243Y-89787493D01*
X122713076Y-89791207D01*
X122801092Y-89749901D01*
X122865749Y-89667843D01*
X122877313Y-89638868D01*
X122932705Y-89548369D01*
X122996433Y-89509800D01*
X123083846Y-89476806D01*
X123083846Y-89601894D01*
X123076118Y-89687016D01*
X123045846Y-89758798D01*
X122982398Y-89841216D01*
X122972968Y-89851926D01*
X122902393Y-89925251D01*
X122841727Y-89964602D01*
X122765830Y-89982705D01*
X122702910Y-89988634D01*
X122590367Y-89990111D01*
X122510250Y-89971395D01*
X122460270Y-89943607D01*
X122381718Y-89882501D01*
X122327343Y-89816414D01*
X122292932Y-89733301D01*
X122274268Y-89621114D01*
X122267136Y-89467806D01*
X122266567Y-89389996D01*
X122268502Y-89296713D01*
X122444779Y-89296713D01*
X122446824Y-89346756D01*
X122451919Y-89354952D01*
X122485546Y-89343818D01*
X122557910Y-89314353D01*
X122654627Y-89272461D01*
X122674853Y-89263457D01*
X122797083Y-89201302D01*
X122864427Y-89146675D01*
X122879228Y-89095509D01*
X122843827Y-89043736D01*
X122814591Y-89020860D01*
X122709096Y-88975110D01*
X122610356Y-88982668D01*
X122527692Y-89038511D01*
X122470428Y-89137613D01*
X122452068Y-89216274D01*
X122444779Y-89296713D01*
X122268502Y-89296713D01*
X122270339Y-89208211D01*
X122284239Y-89073713D01*
X122311774Y-88975776D01*
X122356452Y-88903671D01*
X122421781Y-88846673D01*
X122450263Y-88828253D01*
X122579643Y-88780282D01*
X122721292Y-88777263D01*
X122858319Y-88815400D01*
G36*
X116723894Y-79311858D02*
G01*
X116881886Y-79312723D01*
X116996227Y-79315065D01*
X117074287Y-79319622D01*
X117123434Y-79327130D01*
X117151039Y-79338326D01*
X117164472Y-79353948D01*
X117171101Y-79374733D01*
X117171745Y-79377423D01*
X117181815Y-79425973D01*
X117200455Y-79521765D01*
X117225725Y-79654603D01*
X117255687Y-79814291D01*
X117288402Y-79990634D01*
X117289544Y-79996827D01*
X117322313Y-80169642D01*
X117352973Y-80322329D01*
X117379544Y-80445731D01*
X117400047Y-80530691D01*
X117412506Y-80568050D01*
X117413100Y-80568712D01*
X117449799Y-80586955D01*
X117525466Y-80617357D01*
X117623758Y-80653353D01*
X117624305Y-80653545D01*
X117748113Y-80700082D01*
X117894076Y-80759364D01*
X118031661Y-80818969D01*
X118038173Y-80821916D01*
X118262270Y-80923625D01*
X118758499Y-80584757D01*
X118910726Y-80481452D01*
X119048621Y-80389097D01*
X119164195Y-80312944D01*
X119249459Y-80258245D01*
X119296424Y-80230253D01*
X119300884Y-80228177D01*
X119335014Y-80237420D01*
X119398761Y-80282016D01*
X119494611Y-80364069D01*
X119625049Y-80485681D01*
X119758208Y-80615065D01*
X119886574Y-80742562D01*
X120001461Y-80858906D01*
X120095953Y-80956912D01*
X120163133Y-81029396D01*
X120196086Y-81069173D01*
X120197312Y-81071221D01*
X120200954Y-81098516D01*
X120187230Y-81143094D01*
X120152749Y-81210972D01*
X120094119Y-81308171D01*
X120007950Y-81440711D01*
X119893080Y-81611336D01*
X119791134Y-81761515D01*
X119700003Y-81896210D01*
X119624953Y-82007600D01*
X119571249Y-82087865D01*
X119544160Y-82129185D01*
X119542454Y-82131990D01*
X119545762Y-82171581D01*
X119570833Y-82248529D01*
X119612678Y-82348292D01*
X119627592Y-82380151D01*
X119692666Y-82522086D01*
X119762092Y-82683133D01*
X119818489Y-82822481D01*
X119859127Y-82925904D01*
X119891406Y-83004502D01*
X119910058Y-83045580D01*
X119912377Y-83048745D01*
X119946683Y-83053988D01*
X120027549Y-83068354D01*
X120144223Y-83089797D01*
X120285955Y-83116273D01*
X120441990Y-83145737D01*
X120601578Y-83176143D01*
X120753965Y-83205448D01*
X120888401Y-83231605D01*
X120994132Y-83252570D01*
X121060406Y-83266299D01*
X121076662Y-83270180D01*
X121093453Y-83279760D01*
X121106129Y-83301396D01*
X121115258Y-83342391D01*
X121121411Y-83410049D01*
X121125160Y-83511672D01*
X121127072Y-83654563D01*
X121127720Y-83846025D01*
X121127754Y-83924505D01*
X121127754Y-84562766D01*
X120974478Y-84593020D01*
X120889202Y-84609424D01*
X120761950Y-84633369D01*
X120608195Y-84661967D01*
X120443414Y-84692327D01*
X120397869Y-84700666D01*
X120245812Y-84730230D01*
X120113348Y-84759302D01*
X120011594Y-84785189D01*
X119951668Y-84805197D01*
X119941685Y-84811161D01*
X119917173Y-84853394D01*
X119882028Y-84935230D01*
X119843053Y-85040543D01*
X119835322Y-85063228D01*
X119784240Y-85203878D01*
X119720834Y-85362574D01*
X119658784Y-85505085D01*
X119658478Y-85505746D01*
X119555147Y-85729300D01*
X120234841Y-86729092D01*
X119798501Y-87166160D01*
X119666529Y-87296241D01*
X119546159Y-87410908D01*
X119444153Y-87504041D01*
X119367271Y-87569518D01*
X119322273Y-87601217D01*
X119315818Y-87603228D01*
X119277920Y-87587389D01*
X119200588Y-87543356D01*
X119092269Y-87476350D01*
X118961412Y-87391594D01*
X118819932Y-87296676D01*
X118676341Y-87199858D01*
X118548315Y-87115611D01*
X118443985Y-87049118D01*
X118371480Y-87005562D01*
X118339038Y-86990124D01*
X118299456Y-87003188D01*
X118224399Y-87037610D01*
X118129348Y-87086240D01*
X118119272Y-87091645D01*
X117991271Y-87155840D01*
X117903498Y-87187323D01*
X117848908Y-87187658D01*
X117820455Y-87158408D01*
X117820290Y-87157998D01*
X117806068Y-87123358D01*
X117772149Y-87041129D01*
X117721164Y-86917674D01*
X117655742Y-86759358D01*
X117578514Y-86572546D01*
X117492109Y-86363602D01*
X117408431Y-86161306D01*
X117316468Y-85938060D01*
X117232030Y-85731252D01*
X117157649Y-85547222D01*
X117095854Y-85392311D01*
X117049177Y-85272856D01*
X117020148Y-85195199D01*
X117011202Y-85166216D01*
X117033636Y-85132970D01*
X117092319Y-85079983D01*
X117170569Y-85021564D01*
X117393414Y-84836812D01*
X117567598Y-84625042D01*
X117691034Y-84390716D01*
X117761634Y-84138294D01*
X117777311Y-83872237D01*
X117765916Y-83749435D01*
X117703830Y-83494653D01*
X117596903Y-83269661D01*
X117451769Y-83076677D01*
X117275058Y-82917921D01*
X117073402Y-82795610D01*
X116853434Y-82711965D01*
X116621786Y-82669204D01*
X116385089Y-82669547D01*
X116149975Y-82715212D01*
X115923076Y-82808419D01*
X115711024Y-82951387D01*
X115622516Y-83032243D01*
X115452769Y-83239867D01*
X115334579Y-83466755D01*
X115267158Y-83706293D01*
X115249720Y-83951867D01*
X115281478Y-84196863D01*
X115361645Y-84434668D01*
X115489435Y-84658667D01*
X115664060Y-84862247D01*
X115859192Y-85021564D01*
X115940471Y-85082462D01*
X115997889Y-85134875D01*
X116018558Y-85166266D01*
X116007736Y-85200499D01*
X115976957Y-85282279D01*
X115928754Y-85405267D01*
X115865658Y-85563123D01*
X115790202Y-85749509D01*
X115704918Y-85958086D01*
X115621099Y-86161356D01*
X115528625Y-86384793D01*
X115442969Y-86591844D01*
X115366762Y-86776146D01*
X115302633Y-86931335D01*
X115253212Y-87051048D01*
X115221128Y-87128921D01*
X115209239Y-87157998D01*
X115181154Y-87187537D01*
X115126829Y-87187451D01*
X115039275Y-87156186D01*
X114911499Y-87092189D01*
X114910488Y-87091645D01*
X114814282Y-87041981D01*
X114736511Y-87005805D01*
X114692657Y-86990268D01*
X114690722Y-86990124D01*
X114657709Y-87005884D01*
X114584826Y-87049710D01*
X114480202Y-87116417D01*
X114351970Y-87200824D01*
X114209828Y-87296676D01*
X114065113Y-87393727D01*
X113934684Y-87478130D01*
X113826990Y-87544661D01*
X113750478Y-87588098D01*
X113713942Y-87603228D01*
X113680298Y-87583342D01*
X113612656Y-87527763D01*
X113517773Y-87442614D01*
X113402410Y-87334013D01*
X113273325Y-87208081D01*
X113231109Y-87166009D01*
X112794619Y-86728791D01*
X113126857Y-86241200D01*
X113227826Y-86091465D01*
X113316442Y-85957080D01*
X113387734Y-85845829D01*
X113436730Y-85765499D01*
X113458458Y-85723874D01*
X113459095Y-85720913D01*
X113447640Y-85681678D01*
X113416829Y-85602755D01*
X113371996Y-85497369D01*
X113340527Y-85426814D01*
X113281688Y-85291736D01*
X113226276Y-85155269D01*
X113183316Y-85039963D01*
X113171646Y-85004837D01*
X113138491Y-84911034D01*
X113106081Y-84838554D01*
X113088279Y-84811161D01*
X113048994Y-84794396D01*
X112963254Y-84770630D01*
X112842183Y-84742557D01*
X112696907Y-84712869D01*
X112631892Y-84700666D01*
X112466793Y-84670328D01*
X112308432Y-84640953D01*
X112172284Y-84615429D01*
X112073823Y-84596645D01*
X112055282Y-84593020D01*
X111902007Y-84562766D01*
X111902007Y-83924505D01*
X111902351Y-83714630D01*
X111903764Y-83555840D01*
X111906816Y-83440833D01*
X111912077Y-83362306D01*
X111920117Y-83312956D01*
X111931507Y-83285479D01*
X111946817Y-83272573D01*
X111953098Y-83270180D01*
X111990984Y-83261693D01*
X112074685Y-83244760D01*
X112193447Y-83221426D01*
X112336519Y-83193735D01*
X112493148Y-83163733D01*
X112652583Y-83133464D01*
X112804071Y-83104975D01*
X112936861Y-83080309D01*
X113040199Y-83061511D01*
X113103335Y-83050627D01*
X113117383Y-83048745D01*
X113130110Y-83023564D01*
X113158280Y-82956482D01*
X113196628Y-82860193D01*
X113211271Y-82822481D01*
X113270332Y-82676781D01*
X113339880Y-82515811D01*
X113402168Y-82380151D01*
X113448001Y-82276421D01*
X113478493Y-82191186D01*
X113488672Y-82138986D01*
X113487049Y-82131990D01*
X113465537Y-82098962D01*
X113416415Y-82025503D01*
X113344957Y-81919437D01*
X113256435Y-81788586D01*
X113156121Y-81640772D01*
X113136286Y-81611594D01*
X113019892Y-81438723D01*
X112934332Y-81307086D01*
X112876196Y-81210621D01*
X112842072Y-81143268D01*
X112828549Y-81098966D01*
X112832216Y-81071654D01*
X112832310Y-81071480D01*
X112861173Y-81035606D01*
X112925013Y-80966251D01*
X113016911Y-80870605D01*
X113129947Y-80755859D01*
X113257201Y-80629201D01*
X113271552Y-80615065D01*
X113431923Y-80459763D01*
X113555685Y-80345730D01*
X113645325Y-80270862D01*
X113703328Y-80233056D01*
X113728876Y-80228177D01*
X113766162Y-80249463D01*
X113843537Y-80298633D01*
X113953013Y-80370435D01*
X114086600Y-80459615D01*
X114236310Y-80560923D01*
X114271262Y-80584757D01*
X114767490Y-80923625D01*
X114991587Y-80821916D01*
X115127869Y-80762643D01*
X115274156Y-80703030D01*
X115399915Y-80655500D01*
X115405455Y-80653545D01*
X115503823Y-80617537D01*
X115579651Y-80587089D01*
X115616598Y-80568765D01*
X115616660Y-80568712D01*
X115628384Y-80535589D01*
X115648312Y-80454127D01*
X115674467Y-80333485D01*
X115704870Y-80182819D01*
X115737543Y-80011288D01*
X115740216Y-79996827D01*
X115772990Y-79820095D01*
X115803078Y-79659670D01*
X115828541Y-79525748D01*
X115847439Y-79428523D01*
X115857833Y-79378192D01*
X115858015Y-79377423D01*
X115864341Y-79356013D01*
X115876641Y-79339848D01*
X115902286Y-79328191D01*
X115948645Y-79320305D01*
X116023088Y-79315453D01*
X116132985Y-79312899D01*
X116285705Y-79311905D01*
X116488618Y-79311734D01*
X116514880Y-79311734D01*
X116723894Y-79311858D01*
G37*
X116723894Y-79311858D02*
X116881886Y-79312723D01*
X116996227Y-79315065D01*
X117074287Y-79319622D01*
X117123434Y-79327130D01*
X117151039Y-79338326D01*
X117164472Y-79353948D01*
X117171101Y-79374733D01*
X117171745Y-79377423D01*
X117181815Y-79425973D01*
X117200455Y-79521765D01*
X117225725Y-79654603D01*
X117255687Y-79814291D01*
X117288402Y-79990634D01*
X117289544Y-79996827D01*
X117322313Y-80169642D01*
X117352973Y-80322329D01*
X117379544Y-80445731D01*
X117400047Y-80530691D01*
X117412506Y-80568050D01*
X117413100Y-80568712D01*
X117449799Y-80586955D01*
X117525466Y-80617357D01*
X117623758Y-80653353D01*
X117624305Y-80653545D01*
X117748113Y-80700082D01*
X117894076Y-80759364D01*
X118031661Y-80818969D01*
X118038173Y-80821916D01*
X118262270Y-80923625D01*
X118758499Y-80584757D01*
X118910726Y-80481452D01*
X119048621Y-80389097D01*
X119164195Y-80312944D01*
X119249459Y-80258245D01*
X119296424Y-80230253D01*
X119300884Y-80228177D01*
X119335014Y-80237420D01*
X119398761Y-80282016D01*
X119494611Y-80364069D01*
X119625049Y-80485681D01*
X119758208Y-80615065D01*
X119886574Y-80742562D01*
X120001461Y-80858906D01*
X120095953Y-80956912D01*
X120163133Y-81029396D01*
X120196086Y-81069173D01*
X120197312Y-81071221D01*
X120200954Y-81098516D01*
X120187230Y-81143094D01*
X120152749Y-81210972D01*
X120094119Y-81308171D01*
X120007950Y-81440711D01*
X119893080Y-81611336D01*
X119791134Y-81761515D01*
X119700003Y-81896210D01*
X119624953Y-82007600D01*
X119571249Y-82087865D01*
X119544160Y-82129185D01*
X119542454Y-82131990D01*
X119545762Y-82171581D01*
X119570833Y-82248529D01*
X119612678Y-82348292D01*
X119627592Y-82380151D01*
X119692666Y-82522086D01*
X119762092Y-82683133D01*
X119818489Y-82822481D01*
X119859127Y-82925904D01*
X119891406Y-83004502D01*
X119910058Y-83045580D01*
X119912377Y-83048745D01*
X119946683Y-83053988D01*
X120027549Y-83068354D01*
X120144223Y-83089797D01*
X120285955Y-83116273D01*
X120441990Y-83145737D01*
X120601578Y-83176143D01*
X120753965Y-83205448D01*
X120888401Y-83231605D01*
X120994132Y-83252570D01*
X121060406Y-83266299D01*
X121076662Y-83270180D01*
X121093453Y-83279760D01*
X121106129Y-83301396D01*
X121115258Y-83342391D01*
X121121411Y-83410049D01*
X121125160Y-83511672D01*
X121127072Y-83654563D01*
X121127720Y-83846025D01*
X121127754Y-83924505D01*
X121127754Y-84562766D01*
X120974478Y-84593020D01*
X120889202Y-84609424D01*
X120761950Y-84633369D01*
X120608195Y-84661967D01*
X120443414Y-84692327D01*
X120397869Y-84700666D01*
X120245812Y-84730230D01*
X120113348Y-84759302D01*
X120011594Y-84785189D01*
X119951668Y-84805197D01*
X119941685Y-84811161D01*
X119917173Y-84853394D01*
X119882028Y-84935230D01*
X119843053Y-85040543D01*
X119835322Y-85063228D01*
X119784240Y-85203878D01*
X119720834Y-85362574D01*
X119658784Y-85505085D01*
X119658478Y-85505746D01*
X119555147Y-85729300D01*
X120234841Y-86729092D01*
X119798501Y-87166160D01*
X119666529Y-87296241D01*
X119546159Y-87410908D01*
X119444153Y-87504041D01*
X119367271Y-87569518D01*
X119322273Y-87601217D01*
X119315818Y-87603228D01*
X119277920Y-87587389D01*
X119200588Y-87543356D01*
X119092269Y-87476350D01*
X118961412Y-87391594D01*
X118819932Y-87296676D01*
X118676341Y-87199858D01*
X118548315Y-87115611D01*
X118443985Y-87049118D01*
X118371480Y-87005562D01*
X118339038Y-86990124D01*
X118299456Y-87003188D01*
X118224399Y-87037610D01*
X118129348Y-87086240D01*
X118119272Y-87091645D01*
X117991271Y-87155840D01*
X117903498Y-87187323D01*
X117848908Y-87187658D01*
X117820455Y-87158408D01*
X117820290Y-87157998D01*
X117806068Y-87123358D01*
X117772149Y-87041129D01*
X117721164Y-86917674D01*
X117655742Y-86759358D01*
X117578514Y-86572546D01*
X117492109Y-86363602D01*
X117408431Y-86161306D01*
X117316468Y-85938060D01*
X117232030Y-85731252D01*
X117157649Y-85547222D01*
X117095854Y-85392311D01*
X117049177Y-85272856D01*
X117020148Y-85195199D01*
X117011202Y-85166216D01*
X117033636Y-85132970D01*
X117092319Y-85079983D01*
X117170569Y-85021564D01*
X117393414Y-84836812D01*
X117567598Y-84625042D01*
X117691034Y-84390716D01*
X117761634Y-84138294D01*
X117777311Y-83872237D01*
X117765916Y-83749435D01*
X117703830Y-83494653D01*
X117596903Y-83269661D01*
X117451769Y-83076677D01*
X117275058Y-82917921D01*
X117073402Y-82795610D01*
X116853434Y-82711965D01*
X116621786Y-82669204D01*
X116385089Y-82669547D01*
X116149975Y-82715212D01*
X115923076Y-82808419D01*
X115711024Y-82951387D01*
X115622516Y-83032243D01*
X115452769Y-83239867D01*
X115334579Y-83466755D01*
X115267158Y-83706293D01*
X115249720Y-83951867D01*
X115281478Y-84196863D01*
X115361645Y-84434668D01*
X115489435Y-84658667D01*
X115664060Y-84862247D01*
X115859192Y-85021564D01*
X115940471Y-85082462D01*
X115997889Y-85134875D01*
X116018558Y-85166266D01*
X116007736Y-85200499D01*
X115976957Y-85282279D01*
X115928754Y-85405267D01*
X115865658Y-85563123D01*
X115790202Y-85749509D01*
X115704918Y-85958086D01*
X115621099Y-86161356D01*
X115528625Y-86384793D01*
X115442969Y-86591844D01*
X115366762Y-86776146D01*
X115302633Y-86931335D01*
X115253212Y-87051048D01*
X115221128Y-87128921D01*
X115209239Y-87157998D01*
X115181154Y-87187537D01*
X115126829Y-87187451D01*
X115039275Y-87156186D01*
X114911499Y-87092189D01*
X114910488Y-87091645D01*
X114814282Y-87041981D01*
X114736511Y-87005805D01*
X114692657Y-86990268D01*
X114690722Y-86990124D01*
X114657709Y-87005884D01*
X114584826Y-87049710D01*
X114480202Y-87116417D01*
X114351970Y-87200824D01*
X114209828Y-87296676D01*
X114065113Y-87393727D01*
X113934684Y-87478130D01*
X113826990Y-87544661D01*
X113750478Y-87588098D01*
X113713942Y-87603228D01*
X113680298Y-87583342D01*
X113612656Y-87527763D01*
X113517773Y-87442614D01*
X113402410Y-87334013D01*
X113273325Y-87208081D01*
X113231109Y-87166009D01*
X112794619Y-86728791D01*
X113126857Y-86241200D01*
X113227826Y-86091465D01*
X113316442Y-85957080D01*
X113387734Y-85845829D01*
X113436730Y-85765499D01*
X113458458Y-85723874D01*
X113459095Y-85720913D01*
X113447640Y-85681678D01*
X113416829Y-85602755D01*
X113371996Y-85497369D01*
X113340527Y-85426814D01*
X113281688Y-85291736D01*
X113226276Y-85155269D01*
X113183316Y-85039963D01*
X113171646Y-85004837D01*
X113138491Y-84911034D01*
X113106081Y-84838554D01*
X113088279Y-84811161D01*
X113048994Y-84794396D01*
X112963254Y-84770630D01*
X112842183Y-84742557D01*
X112696907Y-84712869D01*
X112631892Y-84700666D01*
X112466793Y-84670328D01*
X112308432Y-84640953D01*
X112172284Y-84615429D01*
X112073823Y-84596645D01*
X112055282Y-84593020D01*
X111902007Y-84562766D01*
X111902007Y-83924505D01*
X111902351Y-83714630D01*
X111903764Y-83555840D01*
X111906816Y-83440833D01*
X111912077Y-83362306D01*
X111920117Y-83312956D01*
X111931507Y-83285479D01*
X111946817Y-83272573D01*
X111953098Y-83270180D01*
X111990984Y-83261693D01*
X112074685Y-83244760D01*
X112193447Y-83221426D01*
X112336519Y-83193735D01*
X112493148Y-83163733D01*
X112652583Y-83133464D01*
X112804071Y-83104975D01*
X112936861Y-83080309D01*
X113040199Y-83061511D01*
X113103335Y-83050627D01*
X113117383Y-83048745D01*
X113130110Y-83023564D01*
X113158280Y-82956482D01*
X113196628Y-82860193D01*
X113211271Y-82822481D01*
X113270332Y-82676781D01*
X113339880Y-82515811D01*
X113402168Y-82380151D01*
X113448001Y-82276421D01*
X113478493Y-82191186D01*
X113488672Y-82138986D01*
X113487049Y-82131990D01*
X113465537Y-82098962D01*
X113416415Y-82025503D01*
X113344957Y-81919437D01*
X113256435Y-81788586D01*
X113156121Y-81640772D01*
X113136286Y-81611594D01*
X113019892Y-81438723D01*
X112934332Y-81307086D01*
X112876196Y-81210621D01*
X112842072Y-81143268D01*
X112828549Y-81098966D01*
X112832216Y-81071654D01*
X112832310Y-81071480D01*
X112861173Y-81035606D01*
X112925013Y-80966251D01*
X113016911Y-80870605D01*
X113129947Y-80755859D01*
X113257201Y-80629201D01*
X113271552Y-80615065D01*
X113431923Y-80459763D01*
X113555685Y-80345730D01*
X113645325Y-80270862D01*
X113703328Y-80233056D01*
X113728876Y-80228177D01*
X113766162Y-80249463D01*
X113843537Y-80298633D01*
X113953013Y-80370435D01*
X114086600Y-80459615D01*
X114236310Y-80560923D01*
X114271262Y-80584757D01*
X114767490Y-80923625D01*
X114991587Y-80821916D01*
X115127869Y-80762643D01*
X115274156Y-80703030D01*
X115399915Y-80655500D01*
X115405455Y-80653545D01*
X115503823Y-80617537D01*
X115579651Y-80587089D01*
X115616598Y-80568765D01*
X115616660Y-80568712D01*
X115628384Y-80535589D01*
X115648312Y-80454127D01*
X115674467Y-80333485D01*
X115704870Y-80182819D01*
X115737543Y-80011288D01*
X115740216Y-79996827D01*
X115772990Y-79820095D01*
X115803078Y-79659670D01*
X115828541Y-79525748D01*
X115847439Y-79428523D01*
X115857833Y-79378192D01*
X115858015Y-79377423D01*
X115864341Y-79356013D01*
X115876641Y-79339848D01*
X115902286Y-79328191D01*
X115948645Y-79320305D01*
X116023088Y-79315453D01*
X116132985Y-79312899D01*
X116285705Y-79311905D01*
X116488618Y-79311734D01*
X116514880Y-79311734D01*
X116723894Y-79311858D01*
D16*
%TO.C,Q5*%
X72709000Y-89979500D02*
X75709000Y-89979500D01*
X70939000Y-83831500D02*
X70939000Y-89979500D01*
X70939000Y-89979500D02*
X71109000Y-89979500D01*
X77479000Y-83883500D02*
X77479000Y-89979500D01*
X77479000Y-89979500D02*
X77309000Y-89979500D01*
D13*
X71809000Y-92131500D02*
X71809000Y-92131500D01*
X71809000Y-92331500D02*
X71809000Y-92331500D01*
X71809000Y-92131500D02*
G75*
G02*
X71809000Y-92331500I0J-100000D01*
G01*
X71809000Y-92331500D02*
G75*
G02*
X71809000Y-92131500I0J100000D01*
G01*
D14*
%TO.C,J28*%
X92910000Y-120590000D02*
X92910000Y-123250000D01*
X92910000Y-120590000D02*
X85230000Y-120590000D01*
X85230000Y-120590000D02*
X85230000Y-123250000D01*
X92910000Y-123250000D02*
X85230000Y-123250000D01*
X95510000Y-123250000D02*
X94180000Y-123250000D01*
X95510000Y-121920000D02*
X95510000Y-123250000D01*
%TO.C,J30*%
X19761200Y-124206000D02*
X29921200Y-124206000D01*
X19761200Y-122936000D02*
X19761200Y-130556000D01*
X19761200Y-130556000D02*
X29921200Y-130556000D01*
X29921200Y-130556000D02*
X29921200Y-122936000D01*
X29921200Y-122936000D02*
X19761200Y-122936000D01*
%TO.C,J29*%
X26085800Y-94208600D02*
X26085800Y-104368600D01*
X27355800Y-94208600D02*
X19735800Y-94208600D01*
X19735800Y-94208600D02*
X19735800Y-104368600D01*
X19735800Y-104368600D02*
X27355800Y-104368600D01*
X27355800Y-104368600D02*
X27355800Y-94208600D01*
%TO.C,J22*%
X223883333Y-100390000D02*
X223883333Y-97790000D01*
X223883333Y-100390000D02*
X234163333Y-100390000D01*
X234163333Y-100390000D02*
X234163333Y-95190000D01*
X226483333Y-95190000D02*
X234163333Y-95190000D01*
X226483333Y-97790000D02*
X226483333Y-95190000D01*
X223883333Y-97790000D02*
X226483333Y-97790000D01*
X223883333Y-95190000D02*
X225213333Y-95190000D01*
X223883333Y-96520000D02*
X223883333Y-95190000D01*
%TO.C,J12*%
X110530000Y-101670000D02*
X110530000Y-99070000D01*
X110530000Y-101670000D02*
X123350000Y-101670000D01*
X123350000Y-101670000D02*
X123350000Y-96470000D01*
X113130000Y-96470000D02*
X123350000Y-96470000D01*
X113130000Y-99070000D02*
X113130000Y-96470000D01*
X110530000Y-99070000D02*
X113130000Y-99070000D01*
X110530000Y-96470000D02*
X111860000Y-96470000D01*
X110530000Y-97800000D02*
X110530000Y-96470000D01*
%TO.C,J11*%
X196850000Y-120590000D02*
X196850000Y-123250000D01*
X196850000Y-120590000D02*
X189170000Y-120590000D01*
X189170000Y-120590000D02*
X189170000Y-123250000D01*
X196850000Y-123250000D02*
X189170000Y-123250000D01*
X199450000Y-123250000D02*
X198120000Y-123250000D01*
X199450000Y-121920000D02*
X199450000Y-123250000D01*
%TO.C,R18*%
X185901000Y-81772936D02*
X185901000Y-82227064D01*
X184431000Y-81772936D02*
X184431000Y-82227064D01*
%TO.C,R4*%
X74579000Y-101269436D02*
X74579000Y-101723564D01*
X73109000Y-101269436D02*
X73109000Y-101723564D01*
%TO.C,J9*%
X145990000Y-97790000D02*
X148650000Y-97790000D01*
X145990000Y-97790000D02*
X145990000Y-118170000D01*
X145990000Y-118170000D02*
X148650000Y-118170000D01*
X148650000Y-97790000D02*
X148650000Y-118170000D01*
X148650000Y-95190000D02*
X148650000Y-96520000D01*
X147320000Y-95190000D02*
X148650000Y-95190000D01*
%TO.C,R24*%
X136546260Y-81772936D02*
X136546260Y-82227064D01*
X135076260Y-81772936D02*
X135076260Y-82227064D01*
%TO.C,R23*%
X140333400Y-81772936D02*
X140333400Y-82227064D01*
X138863400Y-81772936D02*
X138863400Y-82227064D01*
%TO.C,R22*%
X153135000Y-81772936D02*
X153135000Y-82227064D01*
X151665000Y-81772936D02*
X151665000Y-82227064D01*
%TO.C,R21*%
X156614800Y-81772936D02*
X156614800Y-82227064D01*
X155144800Y-81772936D02*
X155144800Y-82227064D01*
%TO.C,R20*%
X169391000Y-81772936D02*
X169391000Y-82227064D01*
X167921000Y-81772936D02*
X167921000Y-82227064D01*
%TO.C,R19*%
X172870800Y-81772936D02*
X172870800Y-82227064D01*
X171400800Y-81772936D02*
X171400800Y-82227064D01*
%TO.C,R17*%
X189126800Y-81772936D02*
X189126800Y-82227064D01*
X187656800Y-81772936D02*
X187656800Y-82227064D01*
%TO.C,J13*%
X87874000Y-108204000D02*
X85214000Y-108204000D01*
X87874000Y-108204000D02*
X87874000Y-95444000D01*
X87874000Y-95444000D02*
X85214000Y-95444000D01*
X85214000Y-108204000D02*
X85214000Y-95444000D01*
X85214000Y-110804000D02*
X85214000Y-109474000D01*
X86544000Y-110804000D02*
X85214000Y-110804000D01*
%TO.C,J10*%
X163770000Y-97790000D02*
X166430000Y-97790000D01*
X163770000Y-97790000D02*
X163770000Y-118170000D01*
X163770000Y-118170000D02*
X166430000Y-118170000D01*
X166430000Y-97790000D02*
X166430000Y-118170000D01*
X166430000Y-95190000D02*
X166430000Y-96520000D01*
X165100000Y-95190000D02*
X166430000Y-95190000D01*
%TO.C,J8*%
X181550000Y-97790000D02*
X184210000Y-97790000D01*
X181550000Y-97790000D02*
X181550000Y-118170000D01*
X181550000Y-118170000D02*
X184210000Y-118170000D01*
X184210000Y-97790000D02*
X184210000Y-118170000D01*
X184210000Y-95190000D02*
X184210000Y-96520000D01*
X182880000Y-95190000D02*
X184210000Y-95190000D01*
%TO.C,J7*%
X199330000Y-97790000D02*
X201990000Y-97790000D01*
X199330000Y-97790000D02*
X199330000Y-118170000D01*
X199330000Y-118170000D02*
X201990000Y-118170000D01*
X201990000Y-97790000D02*
X201990000Y-118170000D01*
X201990000Y-95190000D02*
X201990000Y-96520000D01*
X200660000Y-95190000D02*
X201990000Y-95190000D01*
%TO.C,J5*%
X67494000Y-95444000D02*
X67494000Y-98104000D01*
X67494000Y-95444000D02*
X59814000Y-95444000D01*
X59814000Y-95444000D02*
X59814000Y-98104000D01*
X67494000Y-98104000D02*
X59814000Y-98104000D01*
X70094000Y-98104000D02*
X68764000Y-98104000D01*
X70094000Y-96774000D02*
X70094000Y-98104000D01*
%TO.C,J4*%
X80194000Y-95444000D02*
X80194000Y-98104000D01*
X80194000Y-95444000D02*
X72514000Y-95444000D01*
X72514000Y-95444000D02*
X72514000Y-98104000D01*
X80194000Y-98104000D02*
X72514000Y-98104000D01*
X82794000Y-98104000D02*
X81464000Y-98104000D01*
X82794000Y-96774000D02*
X82794000Y-98104000D01*
%TO.C,J3*%
X67370000Y-69790000D02*
X67370000Y-72390000D01*
X67370000Y-69790000D02*
X46930000Y-69790000D01*
X46930000Y-69790000D02*
X46930000Y-74990000D01*
X64770000Y-74990000D02*
X46930000Y-74990000D01*
X64770000Y-72390000D02*
X64770000Y-74990000D01*
X67370000Y-72390000D02*
X64770000Y-72390000D01*
X67370000Y-74990000D02*
X66040000Y-74990000D01*
X67370000Y-73660000D02*
X67370000Y-74990000D01*
%TO.C,J2*%
X39554000Y-95444000D02*
X39554000Y-98104000D01*
X39554000Y-95444000D02*
X31874000Y-95444000D01*
X31874000Y-95444000D02*
X31874000Y-98104000D01*
X39554000Y-98104000D02*
X31874000Y-98104000D01*
X42154000Y-98104000D02*
X40824000Y-98104000D01*
X42154000Y-96774000D02*
X42154000Y-98104000D01*
%TO.C,J1*%
X52254000Y-95444000D02*
X52254000Y-98104000D01*
X52254000Y-95444000D02*
X44574000Y-95444000D01*
X44574000Y-95444000D02*
X44574000Y-98104000D01*
X52254000Y-98104000D02*
X44574000Y-98104000D01*
X54854000Y-98104000D02*
X53524000Y-98104000D01*
X54854000Y-96774000D02*
X54854000Y-98104000D01*
%TO.C,J14*%
X143510000Y-120590000D02*
X143510000Y-123250000D01*
X143510000Y-120590000D02*
X135830000Y-120590000D01*
X135830000Y-120590000D02*
X135830000Y-123250000D01*
X143510000Y-123250000D02*
X135830000Y-123250000D01*
X146110000Y-123250000D02*
X144780000Y-123250000D01*
X146110000Y-121920000D02*
X146110000Y-123250000D01*
%TO.C,J15*%
X161290000Y-120590000D02*
X161290000Y-123250000D01*
X161290000Y-120590000D02*
X153610000Y-120590000D01*
X153610000Y-120590000D02*
X153610000Y-123250000D01*
X161290000Y-123250000D02*
X153610000Y-123250000D01*
X163890000Y-123250000D02*
X162560000Y-123250000D01*
X163890000Y-121920000D02*
X163890000Y-123250000D01*
%TO.C,J16*%
X179070000Y-120590000D02*
X179070000Y-123250000D01*
X179070000Y-120590000D02*
X171390000Y-120590000D01*
X171390000Y-120590000D02*
X171390000Y-123250000D01*
X179070000Y-123250000D02*
X171390000Y-123250000D01*
X181670000Y-123250000D02*
X180340000Y-123250000D01*
X181670000Y-121920000D02*
X181670000Y-123250000D01*
%TO.C,J17*%
X257750000Y-100390000D02*
X257750000Y-97790000D01*
X257750000Y-100390000D02*
X268030000Y-100390000D01*
X268030000Y-100390000D02*
X268030000Y-95190000D01*
X260350000Y-95190000D02*
X268030000Y-95190000D01*
X260350000Y-97790000D02*
X260350000Y-95190000D01*
X257750000Y-97790000D02*
X260350000Y-97790000D01*
X257750000Y-95190000D02*
X259080000Y-95190000D01*
X257750000Y-96520000D02*
X257750000Y-95190000D01*
%TO.C,J18*%
X268030000Y-107890000D02*
X268030000Y-110490000D01*
X268030000Y-107890000D02*
X257750000Y-107890000D01*
X257750000Y-107890000D02*
X257750000Y-113090000D01*
X265430000Y-113090000D02*
X257750000Y-113090000D01*
X265430000Y-110490000D02*
X265430000Y-113090000D01*
X268030000Y-110490000D02*
X265430000Y-110490000D01*
X268030000Y-113090000D02*
X266700000Y-113090000D01*
X268030000Y-111760000D02*
X268030000Y-113090000D01*
%TO.C,J20*%
X240816666Y-100390000D02*
X240816666Y-97790000D01*
X240816666Y-100390000D02*
X251096666Y-100390000D01*
X251096666Y-100390000D02*
X251096666Y-95190000D01*
X243416666Y-95190000D02*
X251096666Y-95190000D01*
X243416666Y-97790000D02*
X243416666Y-95190000D01*
X240816666Y-97790000D02*
X243416666Y-97790000D01*
X240816666Y-95190000D02*
X242146666Y-95190000D01*
X240816666Y-96520000D02*
X240816666Y-95190000D01*
%TO.C,J21*%
X251096666Y-107890000D02*
X251096666Y-110490000D01*
X251096666Y-107890000D02*
X240816666Y-107890000D01*
X240816666Y-107890000D02*
X240816666Y-113090000D01*
X248496666Y-113090000D02*
X240816666Y-113090000D01*
X248496666Y-110490000D02*
X248496666Y-113090000D01*
X251096666Y-110490000D02*
X248496666Y-110490000D01*
X251096666Y-113090000D02*
X249766666Y-113090000D01*
X251096666Y-111760000D02*
X251096666Y-113090000D01*
%TO.C,J23*%
X234163333Y-107890000D02*
X234163333Y-110490000D01*
X234163333Y-107890000D02*
X223883333Y-107890000D01*
X223883333Y-107890000D02*
X223883333Y-113090000D01*
X231563333Y-113090000D02*
X223883333Y-113090000D01*
X231563333Y-110490000D02*
X231563333Y-113090000D01*
X234163333Y-110490000D02*
X231563333Y-110490000D01*
X234163333Y-113090000D02*
X232833333Y-113090000D01*
X234163333Y-111760000D02*
X234163333Y-113090000D01*
%TO.C,J24*%
X206950000Y-100390000D02*
X206950000Y-97790000D01*
X206950000Y-100390000D02*
X217230000Y-100390000D01*
X217230000Y-100390000D02*
X217230000Y-95190000D01*
X209550000Y-95190000D02*
X217230000Y-95190000D01*
X209550000Y-97790000D02*
X209550000Y-95190000D01*
X206950000Y-97790000D02*
X209550000Y-97790000D01*
X206950000Y-95190000D02*
X208280000Y-95190000D01*
X206950000Y-96520000D02*
X206950000Y-95190000D01*
%TO.C,J25*%
X217230000Y-107890000D02*
X217230000Y-110490000D01*
X217230000Y-107890000D02*
X206950000Y-107890000D01*
X206950000Y-107890000D02*
X206950000Y-113090000D01*
X214630000Y-113090000D02*
X206950000Y-113090000D01*
X214630000Y-110490000D02*
X214630000Y-113090000D01*
X217230000Y-110490000D02*
X214630000Y-110490000D01*
X217230000Y-113090000D02*
X215900000Y-113090000D01*
X217230000Y-111760000D02*
X217230000Y-113090000D01*
%TO.C,R1*%
X82199000Y-101269436D02*
X82199000Y-101723564D01*
X80729000Y-101269436D02*
X80729000Y-101723564D01*
%TO.C,R2*%
X79659000Y-101269436D02*
X79659000Y-101723564D01*
X78189000Y-101269436D02*
X78189000Y-101723564D01*
%TO.C,R3*%
X77119000Y-101269436D02*
X77119000Y-101723564D01*
X75649000Y-101269436D02*
X75649000Y-101723564D01*
%TO.C,R5*%
X69499000Y-101269436D02*
X69499000Y-101723564D01*
X68029000Y-101269436D02*
X68029000Y-101723564D01*
%TO.C,R6*%
X66959000Y-101269436D02*
X66959000Y-101723564D01*
X65489000Y-101269436D02*
X65489000Y-101723564D01*
%TO.C,R7*%
X64419000Y-101269436D02*
X64419000Y-101723564D01*
X62949000Y-101269436D02*
X62949000Y-101723564D01*
%TO.C,R8*%
X61879000Y-101269436D02*
X61879000Y-101723564D01*
X60409000Y-101269436D02*
X60409000Y-101723564D01*
%TO.C,R9*%
X54259000Y-101269436D02*
X54259000Y-101723564D01*
X52789000Y-101269436D02*
X52789000Y-101723564D01*
%TO.C,R10*%
X51719000Y-101269436D02*
X51719000Y-101723564D01*
X50249000Y-101269436D02*
X50249000Y-101723564D01*
%TO.C,R11*%
X49179000Y-101269436D02*
X49179000Y-101723564D01*
X47709000Y-101269436D02*
X47709000Y-101723564D01*
%TO.C,R12*%
X46639000Y-101269436D02*
X46639000Y-101723564D01*
X45169000Y-101269436D02*
X45169000Y-101723564D01*
%TO.C,R13*%
X41559000Y-101269436D02*
X41559000Y-101723564D01*
X40089000Y-101269436D02*
X40089000Y-101723564D01*
%TO.C,R14*%
X39019000Y-101269436D02*
X39019000Y-101723564D01*
X37549000Y-101269436D02*
X37549000Y-101723564D01*
%TO.C,J26*%
X105590000Y-99070000D02*
X102930000Y-99070000D01*
X105590000Y-99070000D02*
X105590000Y-76150000D01*
X105590000Y-76150000D02*
X102930000Y-76150000D01*
X102930000Y-99070000D02*
X102930000Y-76150000D01*
X102930000Y-101670000D02*
X102930000Y-100340000D01*
X104260000Y-101670000D02*
X102930000Y-101670000D01*
%TO.C,J31*%
X130970000Y-99070000D02*
X128310000Y-99070000D01*
X130970000Y-99070000D02*
X130970000Y-76150000D01*
X130970000Y-76150000D02*
X128310000Y-76150000D01*
X128310000Y-99070000D02*
X128310000Y-76150000D01*
X128310000Y-101670000D02*
X128310000Y-100340000D01*
X129640000Y-101670000D02*
X128310000Y-101670000D01*
D16*
%TO.C,Q1*%
X92140000Y-89979500D02*
X95140000Y-89979500D01*
X90370000Y-83831500D02*
X90370000Y-89979500D01*
X90370000Y-89979500D02*
X90540000Y-89979500D01*
X96910000Y-83883500D02*
X96910000Y-89979500D01*
X96910000Y-89979500D02*
X96740000Y-89979500D01*
D13*
X91240000Y-92131500D02*
X91240000Y-92131500D01*
X91240000Y-92331500D02*
X91240000Y-92331500D01*
X91240000Y-92131500D02*
G75*
G02*
X91240000Y-92331500I0J-100000D01*
G01*
X91240000Y-92331500D02*
G75*
G02*
X91240000Y-92131500I0J100000D01*
G01*
D16*
%TO.C,Q2*%
X92876500Y-55601000D02*
X89876500Y-55601000D01*
X94646500Y-61749000D02*
X94646500Y-55601000D01*
X94646500Y-55601000D02*
X94476500Y-55601000D01*
X88106500Y-61697000D02*
X88106500Y-55601000D01*
X88106500Y-55601000D02*
X88276500Y-55601000D01*
D13*
X93776500Y-53449000D02*
X93776500Y-53449000D01*
X93776500Y-53249000D02*
X93776500Y-53249000D01*
X93776500Y-53449000D02*
G75*
G02*
X93776500Y-53249000I0J100000D01*
G01*
X93776500Y-53249000D02*
G75*
G02*
X93776500Y-53449000I0J-100000D01*
G01*
D16*
%TO.C,Q3*%
X82424500Y-89979500D02*
X85424500Y-89979500D01*
X80654500Y-83831500D02*
X80654500Y-89979500D01*
X80654500Y-89979500D02*
X80824500Y-89979500D01*
X87194500Y-83883500D02*
X87194500Y-89979500D01*
X87194500Y-89979500D02*
X87024500Y-89979500D01*
D13*
X81524500Y-92131500D02*
X81524500Y-92131500D01*
X81524500Y-92331500D02*
X81524500Y-92331500D01*
X81524500Y-92131500D02*
G75*
G02*
X81524500Y-92331500I0J-100000D01*
G01*
X81524500Y-92331500D02*
G75*
G02*
X81524500Y-92131500I0J100000D01*
G01*
D16*
%TO.C,Q4*%
X81969830Y-55474000D02*
X78969830Y-55474000D01*
X83739830Y-61622000D02*
X83739830Y-55474000D01*
X83739830Y-55474000D02*
X83569830Y-55474000D01*
X77199830Y-61570000D02*
X77199830Y-55474000D01*
X77199830Y-55474000D02*
X77369830Y-55474000D01*
D13*
X82869830Y-53322000D02*
X82869830Y-53322000D01*
X82869830Y-53122000D02*
X82869830Y-53122000D01*
X82869830Y-53322000D02*
G75*
G02*
X82869830Y-53122000I0J100000D01*
G01*
X82869830Y-53122000D02*
G75*
G02*
X82869830Y-53322000I0J-100000D01*
G01*
D16*
%TO.C,Q6*%
X71063164Y-55283500D02*
X68063164Y-55283500D01*
X72833164Y-61431500D02*
X72833164Y-55283500D01*
X72833164Y-55283500D02*
X72663164Y-55283500D01*
X66293164Y-61379500D02*
X66293164Y-55283500D01*
X66293164Y-55283500D02*
X66463164Y-55283500D01*
D13*
X71963164Y-53131500D02*
X71963164Y-53131500D01*
X71963164Y-52931500D02*
X71963164Y-52931500D01*
X71963164Y-53131500D02*
G75*
G02*
X71963164Y-52931500I0J100000D01*
G01*
X71963164Y-52931500D02*
G75*
G02*
X71963164Y-53131500I0J-100000D01*
G01*
D16*
%TO.C,Q7*%
X62993500Y-89979500D02*
X65993500Y-89979500D01*
X61223500Y-83831500D02*
X61223500Y-89979500D01*
X61223500Y-89979500D02*
X61393500Y-89979500D01*
X67763500Y-83883500D02*
X67763500Y-89979500D01*
X67763500Y-89979500D02*
X67593500Y-89979500D01*
D13*
X62093500Y-92131500D02*
X62093500Y-92131500D01*
X62093500Y-92331500D02*
X62093500Y-92331500D01*
X62093500Y-92131500D02*
G75*
G02*
X62093500Y-92331500I0J-100000D01*
G01*
X62093500Y-92331500D02*
G75*
G02*
X62093500Y-92131500I0J100000D01*
G01*
D16*
%TO.C,Q8*%
X60156498Y-55347000D02*
X57156498Y-55347000D01*
X61926498Y-61495000D02*
X61926498Y-55347000D01*
X61926498Y-55347000D02*
X61756498Y-55347000D01*
X55386498Y-61443000D02*
X55386498Y-55347000D01*
X55386498Y-55347000D02*
X55556498Y-55347000D01*
D13*
X61056498Y-53195000D02*
X61056498Y-53195000D01*
X61056498Y-52995000D02*
X61056498Y-52995000D01*
X61056498Y-53195000D02*
G75*
G02*
X61056498Y-52995000I0J100000D01*
G01*
X61056498Y-52995000D02*
G75*
G02*
X61056498Y-53195000I0J-100000D01*
G01*
D16*
%TO.C,Q9*%
X53278000Y-89979500D02*
X56278000Y-89979500D01*
X51508000Y-83831500D02*
X51508000Y-89979500D01*
X51508000Y-89979500D02*
X51678000Y-89979500D01*
X58048000Y-83883500D02*
X58048000Y-89979500D01*
X58048000Y-89979500D02*
X57878000Y-89979500D01*
D13*
X52378000Y-92131500D02*
X52378000Y-92131500D01*
X52378000Y-92331500D02*
X52378000Y-92331500D01*
X52378000Y-92131500D02*
G75*
G02*
X52378000Y-92331500I0J-100000D01*
G01*
X52378000Y-92331500D02*
G75*
G02*
X52378000Y-92131500I0J100000D01*
G01*
D16*
%TO.C,Q10*%
X49249832Y-55372000D02*
X46249832Y-55372000D01*
X51019832Y-61520000D02*
X51019832Y-55372000D01*
X51019832Y-55372000D02*
X50849832Y-55372000D01*
X44479832Y-61468000D02*
X44479832Y-55372000D01*
X44479832Y-55372000D02*
X44649832Y-55372000D01*
D13*
X50149832Y-53220000D02*
X50149832Y-53220000D01*
X50149832Y-53020000D02*
X50149832Y-53020000D01*
X50149832Y-53220000D02*
G75*
G02*
X50149832Y-53020000I0J100000D01*
G01*
X50149832Y-53020000D02*
G75*
G02*
X50149832Y-53220000I0J-100000D01*
G01*
D16*
%TO.C,Q11*%
X35543166Y-89916000D02*
X38543166Y-89916000D01*
X33773166Y-83768000D02*
X33773166Y-89916000D01*
X33773166Y-89916000D02*
X33943166Y-89916000D01*
X40313166Y-83820000D02*
X40313166Y-89916000D01*
X40313166Y-89916000D02*
X40143166Y-89916000D01*
D13*
X34643166Y-92068000D02*
X34643166Y-92068000D01*
X34643166Y-92268000D02*
X34643166Y-92268000D01*
X34643166Y-92068000D02*
G75*
G02*
X34643166Y-92268000I0J-100000D01*
G01*
X34643166Y-92268000D02*
G75*
G02*
X34643166Y-92068000I0J100000D01*
G01*
D16*
%TO.C,Q12*%
X38343166Y-55347000D02*
X35343166Y-55347000D01*
X40113166Y-61495000D02*
X40113166Y-55347000D01*
X40113166Y-55347000D02*
X39943166Y-55347000D01*
X33573166Y-61443000D02*
X33573166Y-55347000D01*
X33573166Y-55347000D02*
X33743166Y-55347000D01*
D13*
X39243166Y-53195000D02*
X39243166Y-53195000D01*
X39243166Y-52995000D02*
X39243166Y-52995000D01*
X39243166Y-53195000D02*
G75*
G02*
X39243166Y-52995000I0J100000D01*
G01*
X39243166Y-52995000D02*
G75*
G02*
X39243166Y-53195000I0J-100000D01*
G01*
D16*
%TO.C,Q13*%
X24700000Y-89916000D02*
X27700000Y-89916000D01*
X22930000Y-83768000D02*
X22930000Y-89916000D01*
X22930000Y-89916000D02*
X23100000Y-89916000D01*
X29470000Y-83820000D02*
X29470000Y-89916000D01*
X29470000Y-89916000D02*
X29300000Y-89916000D01*
D13*
X23800000Y-92068000D02*
X23800000Y-92068000D01*
X23800000Y-92268000D02*
X23800000Y-92268000D01*
X23800000Y-92068000D02*
G75*
G02*
X23800000Y-92268000I0J-100000D01*
G01*
X23800000Y-92268000D02*
G75*
G02*
X23800000Y-92068000I0J100000D01*
G01*
D16*
%TO.C,Q14*%
X27436500Y-55347000D02*
X24436500Y-55347000D01*
X29206500Y-61495000D02*
X29206500Y-55347000D01*
X29206500Y-55347000D02*
X29036500Y-55347000D01*
X22666500Y-61443000D02*
X22666500Y-55347000D01*
X22666500Y-55347000D02*
X22836500Y-55347000D01*
D13*
X28336500Y-53195000D02*
X28336500Y-53195000D01*
X28336500Y-52995000D02*
X28336500Y-52995000D01*
X28336500Y-53195000D02*
G75*
G02*
X28336500Y-52995000I0J100000D01*
G01*
X28336500Y-52995000D02*
G75*
G02*
X28336500Y-53195000I0J-100000D01*
G01*
D16*
%TO.C,Q15*%
X31514399Y-109423801D02*
X31514399Y-112423801D01*
X37662399Y-107653801D02*
X31514399Y-107653801D01*
X31514399Y-107653801D02*
X31514399Y-107823801D01*
X37610399Y-114193801D02*
X31514399Y-114193801D01*
X31514399Y-114193801D02*
X31514399Y-114023801D01*
D13*
X29362399Y-108523801D02*
X29362399Y-108523801D01*
X29162399Y-108523801D02*
X29162399Y-108523801D01*
X29162399Y-108523801D02*
G75*
G02*
X29362399Y-108523801I100000J0D01*
G01*
X29362399Y-108523801D02*
G75*
G02*
X29162399Y-108523801I-100000J0D01*
G01*
D14*
%TO.C,R15*%
X33932800Y-101269436D02*
X33932800Y-101723564D01*
X32462800Y-101269436D02*
X32462800Y-101723564D01*
%TO.C,J32*%
X209804000Y-123250000D02*
X209804000Y-120590000D01*
X209804000Y-123250000D02*
X217484000Y-123250000D01*
X217484000Y-123250000D02*
X217484000Y-120590000D01*
X209804000Y-120590000D02*
X217484000Y-120590000D01*
X207204000Y-120590000D02*
X208534000Y-120590000D01*
X207204000Y-121920000D02*
X207204000Y-120590000D01*
%TO.C,J27*%
D11*
X43135657Y-115188904D02*
X43135657Y-113665095D01*
X68046457Y-115163504D02*
X68046457Y-113639695D01*
X42053095Y-125974457D02*
X43576904Y-125974457D01*
X42815000Y-126736361D02*
X42815000Y-125212552D01*
X67319495Y-125847457D02*
X68843304Y-125847457D01*
X68081400Y-126609361D02*
X68081400Y-125085552D01*
X43292780Y-120538809D02*
X42292780Y-120538809D01*
X43292780Y-120062619D02*
X42292780Y-120062619D01*
X43292780Y-119491190D01*
X42292780Y-119491190D01*
X67381380Y-121040400D02*
X67381380Y-120849923D01*
X67429000Y-120754685D01*
X67524238Y-120659447D01*
X67714714Y-120611828D01*
X68048047Y-120611828D01*
X68238523Y-120659447D01*
X68333761Y-120754685D01*
X68381380Y-120849923D01*
X68381380Y-121040400D01*
X68333761Y-121135638D01*
X68238523Y-121230876D01*
X68048047Y-121278495D01*
X67714714Y-121278495D01*
X67524238Y-121230876D01*
X67429000Y-121135638D01*
X67381380Y-121040400D01*
X67381380Y-120183257D02*
X68190904Y-120183257D01*
X68286142Y-120135638D01*
X68333761Y-120088019D01*
X68381380Y-119992780D01*
X68381380Y-119802304D01*
X68333761Y-119707066D01*
X68286142Y-119659447D01*
X68190904Y-119611828D01*
X67381380Y-119611828D01*
X67381380Y-119278495D02*
X67381380Y-118707066D01*
X68381380Y-118992780D02*
X67381380Y-118992780D01*
%TO.C,R18*%
X185618380Y-85944857D02*
X185142190Y-86278190D01*
X185618380Y-86516285D02*
X184618380Y-86516285D01*
X184618380Y-86135333D01*
X184666000Y-86040095D01*
X184713619Y-85992476D01*
X184808857Y-85944857D01*
X184951714Y-85944857D01*
X185046952Y-85992476D01*
X185094571Y-86040095D01*
X185142190Y-86135333D01*
X185142190Y-86516285D01*
X185618380Y-84992476D02*
X185618380Y-85563904D01*
X185618380Y-85278190D02*
X184618380Y-85278190D01*
X184761238Y-85373428D01*
X184856476Y-85468666D01*
X184904095Y-85563904D01*
X185046952Y-84421047D02*
X184999333Y-84516285D01*
X184951714Y-84563904D01*
X184856476Y-84611523D01*
X184808857Y-84611523D01*
X184713619Y-84563904D01*
X184666000Y-84516285D01*
X184618380Y-84421047D01*
X184618380Y-84230571D01*
X184666000Y-84135333D01*
X184713619Y-84087714D01*
X184808857Y-84040095D01*
X184856476Y-84040095D01*
X184951714Y-84087714D01*
X184999333Y-84135333D01*
X185046952Y-84230571D01*
X185046952Y-84421047D01*
X185094571Y-84516285D01*
X185142190Y-84563904D01*
X185237428Y-84611523D01*
X185427904Y-84611523D01*
X185523142Y-84563904D01*
X185570761Y-84516285D01*
X185618380Y-84421047D01*
X185618380Y-84230571D01*
X185570761Y-84135333D01*
X185523142Y-84087714D01*
X185427904Y-84040095D01*
X185237428Y-84040095D01*
X185142190Y-84087714D01*
X185094571Y-84135333D01*
X185046952Y-84230571D01*
%TO.C,R4*%
X74312380Y-104395666D02*
X73836190Y-104729000D01*
X74312380Y-104967095D02*
X73312380Y-104967095D01*
X73312380Y-104586142D01*
X73360000Y-104490904D01*
X73407619Y-104443285D01*
X73502857Y-104395666D01*
X73645714Y-104395666D01*
X73740952Y-104443285D01*
X73788571Y-104490904D01*
X73836190Y-104586142D01*
X73836190Y-104967095D01*
X73645714Y-103538523D02*
X74312380Y-103538523D01*
X73264761Y-103776619D02*
X73979047Y-104014714D01*
X73979047Y-103395666D01*
%TO.C,R24*%
X136342380Y-85944857D02*
X135866190Y-86278190D01*
X136342380Y-86516285D02*
X135342380Y-86516285D01*
X135342380Y-86135333D01*
X135390000Y-86040095D01*
X135437619Y-85992476D01*
X135532857Y-85944857D01*
X135675714Y-85944857D01*
X135770952Y-85992476D01*
X135818571Y-86040095D01*
X135866190Y-86135333D01*
X135866190Y-86516285D01*
X135437619Y-85563904D02*
X135390000Y-85516285D01*
X135342380Y-85421047D01*
X135342380Y-85182952D01*
X135390000Y-85087714D01*
X135437619Y-85040095D01*
X135532857Y-84992476D01*
X135628095Y-84992476D01*
X135770952Y-85040095D01*
X136342380Y-85611523D01*
X136342380Y-84992476D01*
X135675714Y-84135333D02*
X136342380Y-84135333D01*
X135294761Y-84373428D02*
X136009047Y-84611523D01*
X136009047Y-83992476D01*
%TO.C,R23*%
X140129520Y-85944857D02*
X139653330Y-86278190D01*
X140129520Y-86516285D02*
X139129520Y-86516285D01*
X139129520Y-86135333D01*
X139177140Y-86040095D01*
X139224759Y-85992476D01*
X139319997Y-85944857D01*
X139462854Y-85944857D01*
X139558092Y-85992476D01*
X139605711Y-86040095D01*
X139653330Y-86135333D01*
X139653330Y-86516285D01*
X139224759Y-85563904D02*
X139177140Y-85516285D01*
X139129520Y-85421047D01*
X139129520Y-85182952D01*
X139177140Y-85087714D01*
X139224759Y-85040095D01*
X139319997Y-84992476D01*
X139415235Y-84992476D01*
X139558092Y-85040095D01*
X140129520Y-85611523D01*
X140129520Y-84992476D01*
X139129520Y-84659142D02*
X139129520Y-84040095D01*
X139510473Y-84373428D01*
X139510473Y-84230571D01*
X139558092Y-84135333D01*
X139605711Y-84087714D01*
X139700949Y-84040095D01*
X139939044Y-84040095D01*
X140034282Y-84087714D01*
X140081901Y-84135333D01*
X140129520Y-84230571D01*
X140129520Y-84516285D01*
X140081901Y-84611523D01*
X140034282Y-84659142D01*
%TO.C,R22*%
X151757142Y-84907380D02*
X151423809Y-84431190D01*
X151185714Y-84907380D02*
X151185714Y-83907380D01*
X151566666Y-83907380D01*
X151661904Y-83955000D01*
X151709523Y-84002619D01*
X151757142Y-84097857D01*
X151757142Y-84240714D01*
X151709523Y-84335952D01*
X151661904Y-84383571D01*
X151566666Y-84431190D01*
X151185714Y-84431190D01*
X152138095Y-84002619D02*
X152185714Y-83955000D01*
X152280952Y-83907380D01*
X152519047Y-83907380D01*
X152614285Y-83955000D01*
X152661904Y-84002619D01*
X152709523Y-84097857D01*
X152709523Y-84193095D01*
X152661904Y-84335952D01*
X152090476Y-84907380D01*
X152709523Y-84907380D01*
X153090476Y-84002619D02*
X153138095Y-83955000D01*
X153233333Y-83907380D01*
X153471428Y-83907380D01*
X153566666Y-83955000D01*
X153614285Y-84002619D01*
X153661904Y-84097857D01*
X153661904Y-84193095D01*
X153614285Y-84335952D01*
X153042857Y-84907380D01*
X153661904Y-84907380D01*
%TO.C,R21*%
X155313142Y-84907380D02*
X154979809Y-84431190D01*
X154741714Y-84907380D02*
X154741714Y-83907380D01*
X155122666Y-83907380D01*
X155217904Y-83955000D01*
X155265523Y-84002619D01*
X155313142Y-84097857D01*
X155313142Y-84240714D01*
X155265523Y-84335952D01*
X155217904Y-84383571D01*
X155122666Y-84431190D01*
X154741714Y-84431190D01*
X155694095Y-84002619D02*
X155741714Y-83955000D01*
X155836952Y-83907380D01*
X156075047Y-83907380D01*
X156170285Y-83955000D01*
X156217904Y-84002619D01*
X156265523Y-84097857D01*
X156265523Y-84193095D01*
X156217904Y-84335952D01*
X155646476Y-84907380D01*
X156265523Y-84907380D01*
X157217904Y-84907380D02*
X156646476Y-84907380D01*
X156932190Y-84907380D02*
X156932190Y-83907380D01*
X156836952Y-84050238D01*
X156741714Y-84145476D01*
X156646476Y-84193095D01*
%TO.C,R20*%
X169108380Y-85944857D02*
X168632190Y-86278190D01*
X169108380Y-86516285D02*
X168108380Y-86516285D01*
X168108380Y-86135333D01*
X168156000Y-86040095D01*
X168203619Y-85992476D01*
X168298857Y-85944857D01*
X168441714Y-85944857D01*
X168536952Y-85992476D01*
X168584571Y-86040095D01*
X168632190Y-86135333D01*
X168632190Y-86516285D01*
X168203619Y-85563904D02*
X168156000Y-85516285D01*
X168108380Y-85421047D01*
X168108380Y-85182952D01*
X168156000Y-85087714D01*
X168203619Y-85040095D01*
X168298857Y-84992476D01*
X168394095Y-84992476D01*
X168536952Y-85040095D01*
X169108380Y-85611523D01*
X169108380Y-84992476D01*
X168108380Y-84373428D02*
X168108380Y-84278190D01*
X168156000Y-84182952D01*
X168203619Y-84135333D01*
X168298857Y-84087714D01*
X168489333Y-84040095D01*
X168727428Y-84040095D01*
X168917904Y-84087714D01*
X169013142Y-84135333D01*
X169060761Y-84182952D01*
X169108380Y-84278190D01*
X169108380Y-84373428D01*
X169060761Y-84468666D01*
X169013142Y-84516285D01*
X168917904Y-84563904D01*
X168727428Y-84611523D01*
X168489333Y-84611523D01*
X168298857Y-84563904D01*
X168203619Y-84516285D01*
X168156000Y-84468666D01*
X168108380Y-84373428D01*
%TO.C,R19*%
X172588180Y-85944857D02*
X172111990Y-86278190D01*
X172588180Y-86516285D02*
X171588180Y-86516285D01*
X171588180Y-86135333D01*
X171635800Y-86040095D01*
X171683419Y-85992476D01*
X171778657Y-85944857D01*
X171921514Y-85944857D01*
X172016752Y-85992476D01*
X172064371Y-86040095D01*
X172111990Y-86135333D01*
X172111990Y-86516285D01*
X172588180Y-84992476D02*
X172588180Y-85563904D01*
X172588180Y-85278190D02*
X171588180Y-85278190D01*
X171731038Y-85373428D01*
X171826276Y-85468666D01*
X171873895Y-85563904D01*
X172588180Y-84516285D02*
X172588180Y-84325809D01*
X172540561Y-84230571D01*
X172492942Y-84182952D01*
X172350085Y-84087714D01*
X172159609Y-84040095D01*
X171778657Y-84040095D01*
X171683419Y-84087714D01*
X171635800Y-84135333D01*
X171588180Y-84230571D01*
X171588180Y-84421047D01*
X171635800Y-84516285D01*
X171683419Y-84563904D01*
X171778657Y-84611523D01*
X172016752Y-84611523D01*
X172111990Y-84563904D01*
X172159609Y-84516285D01*
X172207228Y-84421047D01*
X172207228Y-84230571D01*
X172159609Y-84135333D01*
X172111990Y-84087714D01*
X172016752Y-84040095D01*
%TO.C,R17*%
X188844180Y-85944857D02*
X188367990Y-86278190D01*
X188844180Y-86516285D02*
X187844180Y-86516285D01*
X187844180Y-86135333D01*
X187891800Y-86040095D01*
X187939419Y-85992476D01*
X188034657Y-85944857D01*
X188177514Y-85944857D01*
X188272752Y-85992476D01*
X188320371Y-86040095D01*
X188367990Y-86135333D01*
X188367990Y-86516285D01*
X188844180Y-84992476D02*
X188844180Y-85563904D01*
X188844180Y-85278190D02*
X187844180Y-85278190D01*
X187987038Y-85373428D01*
X188082276Y-85468666D01*
X188129895Y-85563904D01*
X187844180Y-84659142D02*
X187844180Y-83992476D01*
X188844180Y-84421047D01*
%TO.C,R1*%
X81932380Y-104395666D02*
X81456190Y-104729000D01*
X81932380Y-104967095D02*
X80932380Y-104967095D01*
X80932380Y-104586142D01*
X80980000Y-104490904D01*
X81027619Y-104443285D01*
X81122857Y-104395666D01*
X81265714Y-104395666D01*
X81360952Y-104443285D01*
X81408571Y-104490904D01*
X81456190Y-104586142D01*
X81456190Y-104967095D01*
X81932380Y-103443285D02*
X81932380Y-104014714D01*
X81932380Y-103729000D02*
X80932380Y-103729000D01*
X81075238Y-103824238D01*
X81170476Y-103919476D01*
X81218095Y-104014714D01*
%TO.C,R2*%
X79392380Y-104395666D02*
X78916190Y-104729000D01*
X79392380Y-104967095D02*
X78392380Y-104967095D01*
X78392380Y-104586142D01*
X78440000Y-104490904D01*
X78487619Y-104443285D01*
X78582857Y-104395666D01*
X78725714Y-104395666D01*
X78820952Y-104443285D01*
X78868571Y-104490904D01*
X78916190Y-104586142D01*
X78916190Y-104967095D01*
X78487619Y-104014714D02*
X78440000Y-103967095D01*
X78392380Y-103871857D01*
X78392380Y-103633761D01*
X78440000Y-103538523D01*
X78487619Y-103490904D01*
X78582857Y-103443285D01*
X78678095Y-103443285D01*
X78820952Y-103490904D01*
X79392380Y-104062333D01*
X79392380Y-103443285D01*
%TO.C,R3*%
X76852380Y-104395666D02*
X76376190Y-104729000D01*
X76852380Y-104967095D02*
X75852380Y-104967095D01*
X75852380Y-104586142D01*
X75900000Y-104490904D01*
X75947619Y-104443285D01*
X76042857Y-104395666D01*
X76185714Y-104395666D01*
X76280952Y-104443285D01*
X76328571Y-104490904D01*
X76376190Y-104586142D01*
X76376190Y-104967095D01*
X75852380Y-104062333D02*
X75852380Y-103443285D01*
X76233333Y-103776619D01*
X76233333Y-103633761D01*
X76280952Y-103538523D01*
X76328571Y-103490904D01*
X76423809Y-103443285D01*
X76661904Y-103443285D01*
X76757142Y-103490904D01*
X76804761Y-103538523D01*
X76852380Y-103633761D01*
X76852380Y-103919476D01*
X76804761Y-104014714D01*
X76757142Y-104062333D01*
%TO.C,R5*%
X69232380Y-104395666D02*
X68756190Y-104729000D01*
X69232380Y-104967095D02*
X68232380Y-104967095D01*
X68232380Y-104586142D01*
X68280000Y-104490904D01*
X68327619Y-104443285D01*
X68422857Y-104395666D01*
X68565714Y-104395666D01*
X68660952Y-104443285D01*
X68708571Y-104490904D01*
X68756190Y-104586142D01*
X68756190Y-104967095D01*
X68232380Y-103490904D02*
X68232380Y-103967095D01*
X68708571Y-104014714D01*
X68660952Y-103967095D01*
X68613333Y-103871857D01*
X68613333Y-103633761D01*
X68660952Y-103538523D01*
X68708571Y-103490904D01*
X68803809Y-103443285D01*
X69041904Y-103443285D01*
X69137142Y-103490904D01*
X69184761Y-103538523D01*
X69232380Y-103633761D01*
X69232380Y-103871857D01*
X69184761Y-103967095D01*
X69137142Y-104014714D01*
%TO.C,R6*%
X66692380Y-104395666D02*
X66216190Y-104729000D01*
X66692380Y-104967095D02*
X65692380Y-104967095D01*
X65692380Y-104586142D01*
X65740000Y-104490904D01*
X65787619Y-104443285D01*
X65882857Y-104395666D01*
X66025714Y-104395666D01*
X66120952Y-104443285D01*
X66168571Y-104490904D01*
X66216190Y-104586142D01*
X66216190Y-104967095D01*
X65692380Y-103538523D02*
X65692380Y-103729000D01*
X65740000Y-103824238D01*
X65787619Y-103871857D01*
X65930476Y-103967095D01*
X66120952Y-104014714D01*
X66501904Y-104014714D01*
X66597142Y-103967095D01*
X66644761Y-103919476D01*
X66692380Y-103824238D01*
X66692380Y-103633761D01*
X66644761Y-103538523D01*
X66597142Y-103490904D01*
X66501904Y-103443285D01*
X66263809Y-103443285D01*
X66168571Y-103490904D01*
X66120952Y-103538523D01*
X66073333Y-103633761D01*
X66073333Y-103824238D01*
X66120952Y-103919476D01*
X66168571Y-103967095D01*
X66263809Y-104014714D01*
%TO.C,R7*%
X64152380Y-104395666D02*
X63676190Y-104729000D01*
X64152380Y-104967095D02*
X63152380Y-104967095D01*
X63152380Y-104586142D01*
X63200000Y-104490904D01*
X63247619Y-104443285D01*
X63342857Y-104395666D01*
X63485714Y-104395666D01*
X63580952Y-104443285D01*
X63628571Y-104490904D01*
X63676190Y-104586142D01*
X63676190Y-104967095D01*
X63152380Y-104062333D02*
X63152380Y-103395666D01*
X64152380Y-103824238D01*
%TO.C,R8*%
X61612380Y-104395666D02*
X61136190Y-104729000D01*
X61612380Y-104967095D02*
X60612380Y-104967095D01*
X60612380Y-104586142D01*
X60660000Y-104490904D01*
X60707619Y-104443285D01*
X60802857Y-104395666D01*
X60945714Y-104395666D01*
X61040952Y-104443285D01*
X61088571Y-104490904D01*
X61136190Y-104586142D01*
X61136190Y-104967095D01*
X61040952Y-103824238D02*
X60993333Y-103919476D01*
X60945714Y-103967095D01*
X60850476Y-104014714D01*
X60802857Y-104014714D01*
X60707619Y-103967095D01*
X60660000Y-103919476D01*
X60612380Y-103824238D01*
X60612380Y-103633761D01*
X60660000Y-103538523D01*
X60707619Y-103490904D01*
X60802857Y-103443285D01*
X60850476Y-103443285D01*
X60945714Y-103490904D01*
X60993333Y-103538523D01*
X61040952Y-103633761D01*
X61040952Y-103824238D01*
X61088571Y-103919476D01*
X61136190Y-103967095D01*
X61231428Y-104014714D01*
X61421904Y-104014714D01*
X61517142Y-103967095D01*
X61564761Y-103919476D01*
X61612380Y-103824238D01*
X61612380Y-103633761D01*
X61564761Y-103538523D01*
X61517142Y-103490904D01*
X61421904Y-103443285D01*
X61231428Y-103443285D01*
X61136190Y-103490904D01*
X61088571Y-103538523D01*
X61040952Y-103633761D01*
%TO.C,R9*%
X53992380Y-104522666D02*
X53516190Y-104856000D01*
X53992380Y-105094095D02*
X52992380Y-105094095D01*
X52992380Y-104713142D01*
X53040000Y-104617904D01*
X53087619Y-104570285D01*
X53182857Y-104522666D01*
X53325714Y-104522666D01*
X53420952Y-104570285D01*
X53468571Y-104617904D01*
X53516190Y-104713142D01*
X53516190Y-105094095D01*
X53992380Y-104046476D02*
X53992380Y-103856000D01*
X53944761Y-103760761D01*
X53897142Y-103713142D01*
X53754285Y-103617904D01*
X53563809Y-103570285D01*
X53182857Y-103570285D01*
X53087619Y-103617904D01*
X53040000Y-103665523D01*
X52992380Y-103760761D01*
X52992380Y-103951238D01*
X53040000Y-104046476D01*
X53087619Y-104094095D01*
X53182857Y-104141714D01*
X53420952Y-104141714D01*
X53516190Y-104094095D01*
X53563809Y-104046476D01*
X53611428Y-103951238D01*
X53611428Y-103760761D01*
X53563809Y-103665523D01*
X53516190Y-103617904D01*
X53420952Y-103570285D01*
%TO.C,R10*%
X51442220Y-105415317D02*
X50966030Y-105748650D01*
X51442220Y-105986745D02*
X50442220Y-105986745D01*
X50442220Y-105605793D01*
X50489840Y-105510555D01*
X50537459Y-105462936D01*
X50632697Y-105415317D01*
X50775554Y-105415317D01*
X50870792Y-105462936D01*
X50918411Y-105510555D01*
X50966030Y-105605793D01*
X50966030Y-105986745D01*
X51442220Y-104462936D02*
X51442220Y-105034364D01*
X51442220Y-104748650D02*
X50442220Y-104748650D01*
X50585078Y-104843888D01*
X50680316Y-104939126D01*
X50727935Y-105034364D01*
X50442220Y-103843888D02*
X50442220Y-103748650D01*
X50489840Y-103653412D01*
X50537459Y-103605793D01*
X50632697Y-103558174D01*
X50823173Y-103510555D01*
X51061268Y-103510555D01*
X51251744Y-103558174D01*
X51346982Y-103605793D01*
X51394601Y-103653412D01*
X51442220Y-103748650D01*
X51442220Y-103843888D01*
X51394601Y-103939126D01*
X51346982Y-103986745D01*
X51251744Y-104034364D01*
X51061268Y-104081983D01*
X50823173Y-104081983D01*
X50632697Y-104034364D01*
X50537459Y-103986745D01*
X50489840Y-103939126D01*
X50442220Y-103843888D01*
%TO.C,R11*%
X48902220Y-105288317D02*
X48426030Y-105621650D01*
X48902220Y-105859745D02*
X47902220Y-105859745D01*
X47902220Y-105478793D01*
X47949840Y-105383555D01*
X47997459Y-105335936D01*
X48092697Y-105288317D01*
X48235554Y-105288317D01*
X48330792Y-105335936D01*
X48378411Y-105383555D01*
X48426030Y-105478793D01*
X48426030Y-105859745D01*
X48902220Y-104335936D02*
X48902220Y-104907364D01*
X48902220Y-104621650D02*
X47902220Y-104621650D01*
X48045078Y-104716888D01*
X48140316Y-104812126D01*
X48187935Y-104907364D01*
X48902220Y-103383555D02*
X48902220Y-103954983D01*
X48902220Y-103669269D02*
X47902220Y-103669269D01*
X48045078Y-103764507D01*
X48140316Y-103859745D01*
X48187935Y-103954983D01*
%TO.C,R12*%
X46362220Y-105288317D02*
X45886030Y-105621650D01*
X46362220Y-105859745D02*
X45362220Y-105859745D01*
X45362220Y-105478793D01*
X45409840Y-105383555D01*
X45457459Y-105335936D01*
X45552697Y-105288317D01*
X45695554Y-105288317D01*
X45790792Y-105335936D01*
X45838411Y-105383555D01*
X45886030Y-105478793D01*
X45886030Y-105859745D01*
X46362220Y-104335936D02*
X46362220Y-104907364D01*
X46362220Y-104621650D02*
X45362220Y-104621650D01*
X45505078Y-104716888D01*
X45600316Y-104812126D01*
X45647935Y-104907364D01*
X45457459Y-103954983D02*
X45409840Y-103907364D01*
X45362220Y-103812126D01*
X45362220Y-103574031D01*
X45409840Y-103478793D01*
X45457459Y-103431174D01*
X45552697Y-103383555D01*
X45647935Y-103383555D01*
X45790792Y-103431174D01*
X46362220Y-104002602D01*
X46362220Y-103383555D01*
%TO.C,R13*%
X41282220Y-105288317D02*
X40806030Y-105621650D01*
X41282220Y-105859745D02*
X40282220Y-105859745D01*
X40282220Y-105478793D01*
X40329840Y-105383555D01*
X40377459Y-105335936D01*
X40472697Y-105288317D01*
X40615554Y-105288317D01*
X40710792Y-105335936D01*
X40758411Y-105383555D01*
X40806030Y-105478793D01*
X40806030Y-105859745D01*
X41282220Y-104335936D02*
X41282220Y-104907364D01*
X41282220Y-104621650D02*
X40282220Y-104621650D01*
X40425078Y-104716888D01*
X40520316Y-104812126D01*
X40567935Y-104907364D01*
X40282220Y-104002602D02*
X40282220Y-103383555D01*
X40663173Y-103716888D01*
X40663173Y-103574031D01*
X40710792Y-103478793D01*
X40758411Y-103431174D01*
X40853649Y-103383555D01*
X41091744Y-103383555D01*
X41186982Y-103431174D01*
X41234601Y-103478793D01*
X41282220Y-103574031D01*
X41282220Y-103859745D01*
X41234601Y-103954983D01*
X41186982Y-104002602D01*
%TO.C,R14*%
X38742220Y-105288317D02*
X38266030Y-105621650D01*
X38742220Y-105859745D02*
X37742220Y-105859745D01*
X37742220Y-105478793D01*
X37789840Y-105383555D01*
X37837459Y-105335936D01*
X37932697Y-105288317D01*
X38075554Y-105288317D01*
X38170792Y-105335936D01*
X38218411Y-105383555D01*
X38266030Y-105478793D01*
X38266030Y-105859745D01*
X38742220Y-104335936D02*
X38742220Y-104907364D01*
X38742220Y-104621650D02*
X37742220Y-104621650D01*
X37885078Y-104716888D01*
X37980316Y-104812126D01*
X38027935Y-104907364D01*
X38075554Y-103478793D02*
X38742220Y-103478793D01*
X37694601Y-103716888D02*
X38408887Y-103954983D01*
X38408887Y-103335936D01*
%TO.C,R15*%
X33629860Y-105301017D02*
X33153670Y-105634350D01*
X33629860Y-105872445D02*
X32629860Y-105872445D01*
X32629860Y-105491493D01*
X32677480Y-105396255D01*
X32725099Y-105348636D01*
X32820337Y-105301017D01*
X32963194Y-105301017D01*
X33058432Y-105348636D01*
X33106051Y-105396255D01*
X33153670Y-105491493D01*
X33153670Y-105872445D01*
X33629860Y-104348636D02*
X33629860Y-104920064D01*
X33629860Y-104634350D02*
X32629860Y-104634350D01*
X32772718Y-104729588D01*
X32867956Y-104824826D01*
X32915575Y-104920064D01*
X32629860Y-103443874D02*
X32629860Y-103920064D01*
X33106051Y-103967683D01*
X33058432Y-103920064D01*
X33010813Y-103824826D01*
X33010813Y-103586731D01*
X33058432Y-103491493D01*
X33106051Y-103443874D01*
X33201289Y-103396255D01*
X33439384Y-103396255D01*
X33534622Y-103443874D01*
X33582241Y-103491493D01*
X33629860Y-103586731D01*
X33629860Y-103824826D01*
X33582241Y-103920064D01*
X33534622Y-103967683D01*
%TO.C,J32*%
X209940828Y-125582371D02*
X210083685Y-125629990D01*
X210131304Y-125677609D01*
X210178923Y-125772847D01*
X210178923Y-125915704D01*
X210131304Y-126010942D01*
X210083685Y-126058561D01*
X209988447Y-126106180D01*
X209607495Y-126106180D01*
X209607495Y-125106180D01*
X209940828Y-125106180D01*
X210036066Y-125153800D01*
X210083685Y-125201419D01*
X210131304Y-125296657D01*
X210131304Y-125391895D01*
X210083685Y-125487133D01*
X210036066Y-125534752D01*
X209940828Y-125582371D01*
X209607495Y-125582371D01*
X210607495Y-126106180D02*
X210607495Y-125106180D01*
X210940828Y-125820466D01*
X211274161Y-125106180D01*
X211274161Y-126106180D01*
X211750352Y-126106180D02*
X211750352Y-125106180D01*
X212131304Y-125106180D01*
X212226542Y-125153800D01*
X212274161Y-125201419D01*
X212321780Y-125296657D01*
X212321780Y-125439514D01*
X212274161Y-125534752D01*
X212226542Y-125582371D01*
X212131304Y-125629990D01*
X211750352Y-125629990D01*
X213274161Y-126106180D02*
X212702733Y-126106180D01*
X212988447Y-126106180D02*
X212988447Y-125106180D01*
X212893209Y-125249038D01*
X212797971Y-125344276D01*
X212702733Y-125391895D01*
X213845590Y-125534752D02*
X213750352Y-125487133D01*
X213702733Y-125439514D01*
X213655114Y-125344276D01*
X213655114Y-125296657D01*
X213702733Y-125201419D01*
X213750352Y-125153800D01*
X213845590Y-125106180D01*
X214036066Y-125106180D01*
X214131304Y-125153800D01*
X214178923Y-125201419D01*
X214226542Y-125296657D01*
X214226542Y-125344276D01*
X214178923Y-125439514D01*
X214131304Y-125487133D01*
X214036066Y-125534752D01*
X213845590Y-125534752D01*
X213750352Y-125582371D01*
X213702733Y-125629990D01*
X213655114Y-125725228D01*
X213655114Y-125915704D01*
X213702733Y-126010942D01*
X213750352Y-126058561D01*
X213845590Y-126106180D01*
X214036066Y-126106180D01*
X214131304Y-126058561D01*
X214178923Y-126010942D01*
X214226542Y-125915704D01*
X214226542Y-125725228D01*
X214178923Y-125629990D01*
X214131304Y-125582371D01*
X214036066Y-125534752D01*
X214845590Y-125106180D02*
X214940828Y-125106180D01*
X215036066Y-125153800D01*
X215083685Y-125201419D01*
X215131304Y-125296657D01*
X215178923Y-125487133D01*
X215178923Y-125725228D01*
X215131304Y-125915704D01*
X215083685Y-126010942D01*
X215036066Y-126058561D01*
X214940828Y-126106180D01*
X214845590Y-126106180D01*
X214750352Y-126058561D01*
X214702733Y-126010942D01*
X214655114Y-125915704D01*
X214607495Y-125725228D01*
X214607495Y-125487133D01*
X214655114Y-125296657D01*
X214702733Y-125201419D01*
X214750352Y-125153800D01*
X214845590Y-125106180D01*
%TD*%
M02*
