%TF.GenerationSoftware,KiCad,Pcbnew,5.1.9-1.fc32*%
%TF.CreationDate,2021-03-28T01:57:51+02:00*%
%TF.ProjectId,lightController,6c696768-7443-46f6-9e74-726f6c6c6572,rev?*%
%TF.SameCoordinates,Original*%
%TF.FileFunction,Soldermask,Top*%
%TF.FilePolarity,Negative*%
%FSLAX46Y46*%
G04 Gerber Fmt 4.6, Leading zero omitted, Abs format (unit mm)*
G04 Created by KiCad (PCBNEW 5.1.9-1.fc32) date 2021-03-28 01:57:51*
%MOMM*%
%LPD*%
G01*
G04 APERTURE LIST*
%ADD10C,1.800000*%
%ADD11R,2.200000X2.200000*%
%ADD12C,1.500000*%
%ADD13C,2.300000*%
%ADD14C,3.250000*%
%ADD15C,3.200000*%
%ADD16R,1.250000X2.850000*%
%ADD17R,5.550000X6.500000*%
%ADD18O,1.700000X1.700000*%
%ADD19R,1.700000X1.700000*%
%ADD20C,3.000000*%
%ADD21R,3.000000X3.000000*%
%ADD22R,2.850000X1.250000*%
%ADD23R,6.500000X5.550000*%
G04 APERTURE END LIST*
D10*
%TO.C,J27*%
X46130000Y-113140000D03*
X46130000Y-115680000D03*
D11*
X46130000Y-124460000D03*
X46130000Y-127000000D03*
D10*
X64770000Y-113140000D03*
X64770000Y-115680000D03*
D11*
X64740000Y-124430000D03*
X64740000Y-126970000D03*
%TD*%
%TO.C,J6*%
G36*
G01*
X140235000Y-74805000D02*
X140235000Y-75555000D01*
G75*
G02*
X139860000Y-75930000I-375000J0D01*
G01*
X139110000Y-75930000D01*
G75*
G02*
X138735000Y-75555000I0J375000D01*
G01*
X138735000Y-74805000D01*
G75*
G02*
X139110000Y-74430000I375000J0D01*
G01*
X139860000Y-74430000D01*
G75*
G02*
X140235000Y-74805000I0J-375000D01*
G01*
G37*
D12*
X145835000Y-72640000D03*
X143295000Y-72640000D03*
X142025000Y-75180000D03*
X144565000Y-68580000D03*
G36*
G01*
X149125000Y-65665000D02*
X149125000Y-66415000D01*
G75*
G02*
X148750000Y-66790000I-375000J0D01*
G01*
X148000000Y-66790000D01*
G75*
G02*
X147625000Y-66415000I0J375000D01*
G01*
X147625000Y-65665000D01*
G75*
G02*
X148000000Y-65290000I375000J0D01*
G01*
X148750000Y-65290000D01*
G75*
G02*
X149125000Y-65665000I0J-375000D01*
G01*
G37*
X144565000Y-75180000D03*
X147105000Y-75180000D03*
X148375000Y-72640000D03*
X140755000Y-72640000D03*
X145835000Y-66040000D03*
X163365000Y-68580000D03*
X162095000Y-66040000D03*
X160825000Y-75180000D03*
X159555000Y-72640000D03*
X158285000Y-75180000D03*
X140755000Y-66040000D03*
X139485000Y-68580000D03*
G36*
G01*
X156495000Y-74805000D02*
X156495000Y-75555000D01*
G75*
G02*
X156120000Y-75930000I-375000J0D01*
G01*
X155370000Y-75930000D01*
G75*
G02*
X154995000Y-75555000I0J375000D01*
G01*
X154995000Y-74805000D01*
G75*
G02*
X155370000Y-74430000I375000J0D01*
G01*
X156120000Y-74430000D01*
G75*
G02*
X156495000Y-74805000I0J-375000D01*
G01*
G37*
X155745000Y-68580000D03*
X164635000Y-72640000D03*
X157015000Y-66040000D03*
X163365000Y-75180000D03*
X142025000Y-68580000D03*
X147105000Y-68580000D03*
X162095000Y-72640000D03*
X143295000Y-66040000D03*
X158285000Y-68580000D03*
X159555000Y-66040000D03*
X160825000Y-68580000D03*
G36*
G01*
X165385000Y-65665000D02*
X165385000Y-66415000D01*
G75*
G02*
X165010000Y-66790000I-375000J0D01*
G01*
X164260000Y-66790000D01*
G75*
G02*
X163885000Y-66415000I0J375000D01*
G01*
X163885000Y-65665000D01*
G75*
G02*
X164260000Y-65290000I375000J0D01*
G01*
X165010000Y-65290000D01*
G75*
G02*
X165385000Y-65665000I0J-375000D01*
G01*
G37*
X157015000Y-72640000D03*
X179625000Y-75180000D03*
X175815000Y-72640000D03*
G36*
G01*
X172755000Y-74805000D02*
X172755000Y-75555000D01*
G75*
G02*
X172380000Y-75930000I-375000J0D01*
G01*
X171630000Y-75930000D01*
G75*
G02*
X171255000Y-75555000I0J375000D01*
G01*
X171255000Y-74805000D01*
G75*
G02*
X171630000Y-74430000I375000J0D01*
G01*
X172380000Y-74430000D01*
G75*
G02*
X172755000Y-74805000I0J-375000D01*
G01*
G37*
X173275000Y-66040000D03*
X174545000Y-75180000D03*
X177085000Y-75180000D03*
X180895000Y-72640000D03*
X173275000Y-72640000D03*
X178355000Y-72640000D03*
G36*
G01*
X181645000Y-65665000D02*
X181645000Y-66415000D01*
G75*
G02*
X181270000Y-66790000I-375000J0D01*
G01*
X180520000Y-66790000D01*
G75*
G02*
X180145000Y-66415000I0J375000D01*
G01*
X180145000Y-65665000D01*
G75*
G02*
X180520000Y-65290000I375000J0D01*
G01*
X181270000Y-65290000D01*
G75*
G02*
X181645000Y-65665000I0J-375000D01*
G01*
G37*
X177085000Y-68580000D03*
X178355000Y-66040000D03*
X174545000Y-68580000D03*
X179625000Y-68580000D03*
X172005000Y-68580000D03*
X175815000Y-66040000D03*
X189535000Y-72640000D03*
X197155000Y-72640000D03*
X193345000Y-75180000D03*
X194615000Y-72640000D03*
X190805000Y-75180000D03*
X195885000Y-75180000D03*
G36*
G01*
X189015000Y-74805000D02*
X189015000Y-75555000D01*
G75*
G02*
X188640000Y-75930000I-375000J0D01*
G01*
X187890000Y-75930000D01*
G75*
G02*
X187515000Y-75555000I0J375000D01*
G01*
X187515000Y-74805000D01*
G75*
G02*
X187890000Y-74430000I375000J0D01*
G01*
X188640000Y-74430000D01*
G75*
G02*
X189015000Y-74805000I0J-375000D01*
G01*
G37*
X192075000Y-72640000D03*
X189535000Y-66040000D03*
X192075000Y-66040000D03*
X194615000Y-66040000D03*
G36*
G01*
X197905000Y-65665000D02*
X197905000Y-66415000D01*
G75*
G02*
X197530000Y-66790000I-375000J0D01*
G01*
X196780000Y-66790000D01*
G75*
G02*
X196405000Y-66415000I0J375000D01*
G01*
X196405000Y-65665000D01*
G75*
G02*
X196780000Y-65290000I375000J0D01*
G01*
X197530000Y-65290000D01*
G75*
G02*
X197905000Y-65665000I0J-375000D01*
G01*
G37*
X188265000Y-68580000D03*
X190805000Y-68580000D03*
X193345000Y-68580000D03*
X195885000Y-68580000D03*
X137070000Y-78200000D03*
X167050000Y-78200000D03*
X197030000Y-78200000D03*
X183310000Y-78200000D03*
X150790000Y-78200000D03*
X148250000Y-78200000D03*
X188390000Y-78200000D03*
X180770000Y-78228000D03*
X199570000Y-78200000D03*
X155870000Y-78200000D03*
X164510000Y-78200000D03*
X172130000Y-78200000D03*
X185850000Y-78200000D03*
X139610000Y-78200000D03*
X153330000Y-78200000D03*
X169590000Y-78200000D03*
X148250000Y-57150000D03*
X137070000Y-57150000D03*
X139610000Y-57150000D03*
X153330000Y-57150000D03*
X150790000Y-57150000D03*
X155870000Y-57150000D03*
X164510000Y-57150000D03*
X169590000Y-57150000D03*
X167050000Y-57150000D03*
X172130000Y-57150000D03*
X185850000Y-57150000D03*
X180770000Y-57178000D03*
X188390000Y-57150000D03*
X183310000Y-57150000D03*
X197030000Y-57150000D03*
X199570000Y-57150000D03*
D13*
X135550000Y-73660000D03*
X135550000Y-54990000D03*
X135730000Y-69340000D03*
X201030000Y-69340000D03*
X201210000Y-73660000D03*
X201210000Y-54990000D03*
D14*
X143930000Y-59690000D03*
X192710000Y-59690000D03*
%TD*%
%TO.C,J19*%
G36*
G01*
X209335000Y-74805000D02*
X209335000Y-75555000D01*
G75*
G02*
X208960000Y-75930000I-375000J0D01*
G01*
X208210000Y-75930000D01*
G75*
G02*
X207835000Y-75555000I0J375000D01*
G01*
X207835000Y-74805000D01*
G75*
G02*
X208210000Y-74430000I375000J0D01*
G01*
X208960000Y-74430000D01*
G75*
G02*
X209335000Y-74805000I0J-375000D01*
G01*
G37*
D12*
X214935000Y-72640000D03*
X212395000Y-72640000D03*
X211125000Y-75180000D03*
X213665000Y-68580000D03*
G36*
G01*
X218225000Y-65665000D02*
X218225000Y-66415000D01*
G75*
G02*
X217850000Y-66790000I-375000J0D01*
G01*
X217100000Y-66790000D01*
G75*
G02*
X216725000Y-66415000I0J375000D01*
G01*
X216725000Y-65665000D01*
G75*
G02*
X217100000Y-65290000I375000J0D01*
G01*
X217850000Y-65290000D01*
G75*
G02*
X218225000Y-65665000I0J-375000D01*
G01*
G37*
X213665000Y-75180000D03*
X216205000Y-75180000D03*
X217475000Y-72640000D03*
X209855000Y-72640000D03*
X214935000Y-66040000D03*
X232465000Y-68580000D03*
X231195000Y-66040000D03*
X229925000Y-75180000D03*
X228655000Y-72640000D03*
X227385000Y-75180000D03*
X209855000Y-66040000D03*
X208585000Y-68580000D03*
G36*
G01*
X225595000Y-74805000D02*
X225595000Y-75555000D01*
G75*
G02*
X225220000Y-75930000I-375000J0D01*
G01*
X224470000Y-75930000D01*
G75*
G02*
X224095000Y-75555000I0J375000D01*
G01*
X224095000Y-74805000D01*
G75*
G02*
X224470000Y-74430000I375000J0D01*
G01*
X225220000Y-74430000D01*
G75*
G02*
X225595000Y-74805000I0J-375000D01*
G01*
G37*
X224845000Y-68580000D03*
X233735000Y-72640000D03*
X226115000Y-66040000D03*
X232465000Y-75180000D03*
X211125000Y-68580000D03*
X216205000Y-68580000D03*
X231195000Y-72640000D03*
X212395000Y-66040000D03*
X227385000Y-68580000D03*
X228655000Y-66040000D03*
X229925000Y-68580000D03*
G36*
G01*
X234485000Y-65665000D02*
X234485000Y-66415000D01*
G75*
G02*
X234110000Y-66790000I-375000J0D01*
G01*
X233360000Y-66790000D01*
G75*
G02*
X232985000Y-66415000I0J375000D01*
G01*
X232985000Y-65665000D01*
G75*
G02*
X233360000Y-65290000I375000J0D01*
G01*
X234110000Y-65290000D01*
G75*
G02*
X234485000Y-65665000I0J-375000D01*
G01*
G37*
X226115000Y-72640000D03*
X248725000Y-75180000D03*
X244915000Y-72640000D03*
G36*
G01*
X241855000Y-74805000D02*
X241855000Y-75555000D01*
G75*
G02*
X241480000Y-75930000I-375000J0D01*
G01*
X240730000Y-75930000D01*
G75*
G02*
X240355000Y-75555000I0J375000D01*
G01*
X240355000Y-74805000D01*
G75*
G02*
X240730000Y-74430000I375000J0D01*
G01*
X241480000Y-74430000D01*
G75*
G02*
X241855000Y-74805000I0J-375000D01*
G01*
G37*
X242375000Y-66040000D03*
X243645000Y-75180000D03*
X246185000Y-75180000D03*
X249995000Y-72640000D03*
X242375000Y-72640000D03*
X247455000Y-72640000D03*
G36*
G01*
X250745000Y-65665000D02*
X250745000Y-66415000D01*
G75*
G02*
X250370000Y-66790000I-375000J0D01*
G01*
X249620000Y-66790000D01*
G75*
G02*
X249245000Y-66415000I0J375000D01*
G01*
X249245000Y-65665000D01*
G75*
G02*
X249620000Y-65290000I375000J0D01*
G01*
X250370000Y-65290000D01*
G75*
G02*
X250745000Y-65665000I0J-375000D01*
G01*
G37*
X246185000Y-68580000D03*
X247455000Y-66040000D03*
X243645000Y-68580000D03*
X248725000Y-68580000D03*
X241105000Y-68580000D03*
X244915000Y-66040000D03*
X258635000Y-72640000D03*
X266255000Y-72640000D03*
X262445000Y-75180000D03*
X263715000Y-72640000D03*
X259905000Y-75180000D03*
X264985000Y-75180000D03*
G36*
G01*
X258115000Y-74805000D02*
X258115000Y-75555000D01*
G75*
G02*
X257740000Y-75930000I-375000J0D01*
G01*
X256990000Y-75930000D01*
G75*
G02*
X256615000Y-75555000I0J375000D01*
G01*
X256615000Y-74805000D01*
G75*
G02*
X256990000Y-74430000I375000J0D01*
G01*
X257740000Y-74430000D01*
G75*
G02*
X258115000Y-74805000I0J-375000D01*
G01*
G37*
X261175000Y-72640000D03*
X258635000Y-66040000D03*
X261175000Y-66040000D03*
X263715000Y-66040000D03*
G36*
G01*
X267005000Y-65665000D02*
X267005000Y-66415000D01*
G75*
G02*
X266630000Y-66790000I-375000J0D01*
G01*
X265880000Y-66790000D01*
G75*
G02*
X265505000Y-66415000I0J375000D01*
G01*
X265505000Y-65665000D01*
G75*
G02*
X265880000Y-65290000I375000J0D01*
G01*
X266630000Y-65290000D01*
G75*
G02*
X267005000Y-65665000I0J-375000D01*
G01*
G37*
X257365000Y-68580000D03*
X259905000Y-68580000D03*
X262445000Y-68580000D03*
X264985000Y-68580000D03*
X206170000Y-78200000D03*
X236150000Y-78200000D03*
X266130000Y-78200000D03*
X252410000Y-78200000D03*
X219890000Y-78200000D03*
X217350000Y-78200000D03*
X257490000Y-78200000D03*
X249870000Y-78228000D03*
X268670000Y-78200000D03*
X224970000Y-78200000D03*
X233610000Y-78200000D03*
X241230000Y-78200000D03*
X254950000Y-78200000D03*
X208710000Y-78200000D03*
X222430000Y-78200000D03*
X238690000Y-78200000D03*
X217350000Y-57150000D03*
X206170000Y-57150000D03*
X208710000Y-57150000D03*
X222430000Y-57150000D03*
X219890000Y-57150000D03*
X224970000Y-57150000D03*
X233610000Y-57150000D03*
X238690000Y-57150000D03*
X236150000Y-57150000D03*
X241230000Y-57150000D03*
X254950000Y-57150000D03*
X249870000Y-57178000D03*
X257490000Y-57150000D03*
X252410000Y-57150000D03*
X266130000Y-57150000D03*
X268670000Y-57150000D03*
D13*
X204650000Y-73660000D03*
X204650000Y-54990000D03*
X204830000Y-69340000D03*
X270130000Y-69340000D03*
X270310000Y-73660000D03*
X270310000Y-54990000D03*
D14*
X213030000Y-59690000D03*
X261810000Y-59690000D03*
%TD*%
D15*
%TO.C,H1*%
X46200000Y-88800000D03*
%TD*%
D16*
%TO.C,Q5*%
X76489000Y-90131500D03*
D17*
X74209000Y-83731500D03*
D16*
X71929000Y-90131500D03*
%TD*%
D15*
%TO.C,H3*%
X247400000Y-88800000D03*
%TD*%
%TO.C,H2*%
X152800000Y-88800000D03*
%TD*%
D18*
%TO.C,J28*%
X86560000Y-121920000D03*
X89100000Y-121920000D03*
X91640000Y-121920000D03*
D19*
X94180000Y-121920000D03*
%TD*%
D20*
%TO.C,J30*%
X22301200Y-126746000D03*
D21*
X27381200Y-126746000D03*
%TD*%
D20*
%TO.C,J29*%
X23545800Y-96748600D03*
D21*
X23545800Y-101828600D03*
%TD*%
D18*
%TO.C,J22*%
X232833333Y-99060000D03*
X232833333Y-96520000D03*
X230293333Y-99060000D03*
X230293333Y-96520000D03*
X227753333Y-99060000D03*
X227753333Y-96520000D03*
X225213333Y-99060000D03*
D19*
X225213333Y-96520000D03*
%TD*%
D18*
%TO.C,J12*%
X122020000Y-100340000D03*
X122020000Y-97800000D03*
X119480000Y-100340000D03*
X119480000Y-97800000D03*
X116940000Y-100340000D03*
X116940000Y-97800000D03*
X114400000Y-100340000D03*
X114400000Y-97800000D03*
X111860000Y-100340000D03*
D19*
X111860000Y-97800000D03*
%TD*%
D18*
%TO.C,J11*%
X190500000Y-121920000D03*
X193040000Y-121920000D03*
X195580000Y-121920000D03*
D19*
X198120000Y-121920000D03*
%TD*%
%TO.C,R18*%
G36*
G01*
X184715998Y-82400000D02*
X185616002Y-82400000D01*
G75*
G02*
X185866000Y-82649998I0J-249998D01*
G01*
X185866000Y-83175002D01*
G75*
G02*
X185616002Y-83425000I-249998J0D01*
G01*
X184715998Y-83425000D01*
G75*
G02*
X184466000Y-83175002I0J249998D01*
G01*
X184466000Y-82649998D01*
G75*
G02*
X184715998Y-82400000I249998J0D01*
G01*
G37*
G36*
G01*
X184715998Y-80575000D02*
X185616002Y-80575000D01*
G75*
G02*
X185866000Y-80824998I0J-249998D01*
G01*
X185866000Y-81350002D01*
G75*
G02*
X185616002Y-81600000I-249998J0D01*
G01*
X184715998Y-81600000D01*
G75*
G02*
X184466000Y-81350002I0J249998D01*
G01*
X184466000Y-80824998D01*
G75*
G02*
X184715998Y-80575000I249998J0D01*
G01*
G37*
%TD*%
%TO.C,R4*%
G36*
G01*
X73393998Y-101896500D02*
X74294002Y-101896500D01*
G75*
G02*
X74544000Y-102146498I0J-249998D01*
G01*
X74544000Y-102671502D01*
G75*
G02*
X74294002Y-102921500I-249998J0D01*
G01*
X73393998Y-102921500D01*
G75*
G02*
X73144000Y-102671502I0J249998D01*
G01*
X73144000Y-102146498D01*
G75*
G02*
X73393998Y-101896500I249998J0D01*
G01*
G37*
G36*
G01*
X73393998Y-100071500D02*
X74294002Y-100071500D01*
G75*
G02*
X74544000Y-100321498I0J-249998D01*
G01*
X74544000Y-100846502D01*
G75*
G02*
X74294002Y-101096500I-249998J0D01*
G01*
X73393998Y-101096500D01*
G75*
G02*
X73144000Y-100846502I0J249998D01*
G01*
X73144000Y-100321498D01*
G75*
G02*
X73393998Y-100071500I249998J0D01*
G01*
G37*
%TD*%
D18*
%TO.C,J9*%
X147320000Y-116840000D03*
X147320000Y-114300000D03*
X147320000Y-111760000D03*
X147320000Y-109220000D03*
X147320000Y-106680000D03*
X147320000Y-104140000D03*
X147320000Y-101600000D03*
X147320000Y-99060000D03*
D19*
X147320000Y-96520000D03*
%TD*%
%TO.C,R24*%
G36*
G01*
X135361258Y-82400000D02*
X136261262Y-82400000D01*
G75*
G02*
X136511260Y-82649998I0J-249998D01*
G01*
X136511260Y-83175002D01*
G75*
G02*
X136261262Y-83425000I-249998J0D01*
G01*
X135361258Y-83425000D01*
G75*
G02*
X135111260Y-83175002I0J249998D01*
G01*
X135111260Y-82649998D01*
G75*
G02*
X135361258Y-82400000I249998J0D01*
G01*
G37*
G36*
G01*
X135361258Y-80575000D02*
X136261262Y-80575000D01*
G75*
G02*
X136511260Y-80824998I0J-249998D01*
G01*
X136511260Y-81350002D01*
G75*
G02*
X136261262Y-81600000I-249998J0D01*
G01*
X135361258Y-81600000D01*
G75*
G02*
X135111260Y-81350002I0J249998D01*
G01*
X135111260Y-80824998D01*
G75*
G02*
X135361258Y-80575000I249998J0D01*
G01*
G37*
%TD*%
%TO.C,R23*%
G36*
G01*
X139148398Y-82400000D02*
X140048402Y-82400000D01*
G75*
G02*
X140298400Y-82649998I0J-249998D01*
G01*
X140298400Y-83175002D01*
G75*
G02*
X140048402Y-83425000I-249998J0D01*
G01*
X139148398Y-83425000D01*
G75*
G02*
X138898400Y-83175002I0J249998D01*
G01*
X138898400Y-82649998D01*
G75*
G02*
X139148398Y-82400000I249998J0D01*
G01*
G37*
G36*
G01*
X139148398Y-80575000D02*
X140048402Y-80575000D01*
G75*
G02*
X140298400Y-80824998I0J-249998D01*
G01*
X140298400Y-81350002D01*
G75*
G02*
X140048402Y-81600000I-249998J0D01*
G01*
X139148398Y-81600000D01*
G75*
G02*
X138898400Y-81350002I0J249998D01*
G01*
X138898400Y-80824998D01*
G75*
G02*
X139148398Y-80575000I249998J0D01*
G01*
G37*
%TD*%
%TO.C,R22*%
G36*
G01*
X151949998Y-82400000D02*
X152850002Y-82400000D01*
G75*
G02*
X153100000Y-82649998I0J-249998D01*
G01*
X153100000Y-83175002D01*
G75*
G02*
X152850002Y-83425000I-249998J0D01*
G01*
X151949998Y-83425000D01*
G75*
G02*
X151700000Y-83175002I0J249998D01*
G01*
X151700000Y-82649998D01*
G75*
G02*
X151949998Y-82400000I249998J0D01*
G01*
G37*
G36*
G01*
X151949998Y-80575000D02*
X152850002Y-80575000D01*
G75*
G02*
X153100000Y-80824998I0J-249998D01*
G01*
X153100000Y-81350002D01*
G75*
G02*
X152850002Y-81600000I-249998J0D01*
G01*
X151949998Y-81600000D01*
G75*
G02*
X151700000Y-81350002I0J249998D01*
G01*
X151700000Y-80824998D01*
G75*
G02*
X151949998Y-80575000I249998J0D01*
G01*
G37*
%TD*%
%TO.C,R21*%
G36*
G01*
X155429798Y-82400000D02*
X156329802Y-82400000D01*
G75*
G02*
X156579800Y-82649998I0J-249998D01*
G01*
X156579800Y-83175002D01*
G75*
G02*
X156329802Y-83425000I-249998J0D01*
G01*
X155429798Y-83425000D01*
G75*
G02*
X155179800Y-83175002I0J249998D01*
G01*
X155179800Y-82649998D01*
G75*
G02*
X155429798Y-82400000I249998J0D01*
G01*
G37*
G36*
G01*
X155429798Y-80575000D02*
X156329802Y-80575000D01*
G75*
G02*
X156579800Y-80824998I0J-249998D01*
G01*
X156579800Y-81350002D01*
G75*
G02*
X156329802Y-81600000I-249998J0D01*
G01*
X155429798Y-81600000D01*
G75*
G02*
X155179800Y-81350002I0J249998D01*
G01*
X155179800Y-80824998D01*
G75*
G02*
X155429798Y-80575000I249998J0D01*
G01*
G37*
%TD*%
%TO.C,R20*%
G36*
G01*
X168205998Y-82400000D02*
X169106002Y-82400000D01*
G75*
G02*
X169356000Y-82649998I0J-249998D01*
G01*
X169356000Y-83175002D01*
G75*
G02*
X169106002Y-83425000I-249998J0D01*
G01*
X168205998Y-83425000D01*
G75*
G02*
X167956000Y-83175002I0J249998D01*
G01*
X167956000Y-82649998D01*
G75*
G02*
X168205998Y-82400000I249998J0D01*
G01*
G37*
G36*
G01*
X168205998Y-80575000D02*
X169106002Y-80575000D01*
G75*
G02*
X169356000Y-80824998I0J-249998D01*
G01*
X169356000Y-81350002D01*
G75*
G02*
X169106002Y-81600000I-249998J0D01*
G01*
X168205998Y-81600000D01*
G75*
G02*
X167956000Y-81350002I0J249998D01*
G01*
X167956000Y-80824998D01*
G75*
G02*
X168205998Y-80575000I249998J0D01*
G01*
G37*
%TD*%
%TO.C,R19*%
G36*
G01*
X171685798Y-82400000D02*
X172585802Y-82400000D01*
G75*
G02*
X172835800Y-82649998I0J-249998D01*
G01*
X172835800Y-83175002D01*
G75*
G02*
X172585802Y-83425000I-249998J0D01*
G01*
X171685798Y-83425000D01*
G75*
G02*
X171435800Y-83175002I0J249998D01*
G01*
X171435800Y-82649998D01*
G75*
G02*
X171685798Y-82400000I249998J0D01*
G01*
G37*
G36*
G01*
X171685798Y-80575000D02*
X172585802Y-80575000D01*
G75*
G02*
X172835800Y-80824998I0J-249998D01*
G01*
X172835800Y-81350002D01*
G75*
G02*
X172585802Y-81600000I-249998J0D01*
G01*
X171685798Y-81600000D01*
G75*
G02*
X171435800Y-81350002I0J249998D01*
G01*
X171435800Y-80824998D01*
G75*
G02*
X171685798Y-80575000I249998J0D01*
G01*
G37*
%TD*%
%TO.C,R17*%
G36*
G01*
X187941798Y-82400000D02*
X188841802Y-82400000D01*
G75*
G02*
X189091800Y-82649998I0J-249998D01*
G01*
X189091800Y-83175002D01*
G75*
G02*
X188841802Y-83425000I-249998J0D01*
G01*
X187941798Y-83425000D01*
G75*
G02*
X187691800Y-83175002I0J249998D01*
G01*
X187691800Y-82649998D01*
G75*
G02*
X187941798Y-82400000I249998J0D01*
G01*
G37*
G36*
G01*
X187941798Y-80575000D02*
X188841802Y-80575000D01*
G75*
G02*
X189091800Y-80824998I0J-249998D01*
G01*
X189091800Y-81350002D01*
G75*
G02*
X188841802Y-81600000I-249998J0D01*
G01*
X187941798Y-81600000D01*
G75*
G02*
X187691800Y-81350002I0J249998D01*
G01*
X187691800Y-80824998D01*
G75*
G02*
X187941798Y-80575000I249998J0D01*
G01*
G37*
%TD*%
D18*
%TO.C,J13*%
X86544000Y-96774000D03*
X86544000Y-99314000D03*
X86544000Y-101854000D03*
X86544000Y-104394000D03*
X86544000Y-106934000D03*
D19*
X86544000Y-109474000D03*
%TD*%
D18*
%TO.C,J10*%
X165100000Y-116840000D03*
X165100000Y-114300000D03*
X165100000Y-111760000D03*
X165100000Y-109220000D03*
X165100000Y-106680000D03*
X165100000Y-104140000D03*
X165100000Y-101600000D03*
X165100000Y-99060000D03*
D19*
X165100000Y-96520000D03*
%TD*%
D18*
%TO.C,J8*%
X182880000Y-116840000D03*
X182880000Y-114300000D03*
X182880000Y-111760000D03*
X182880000Y-109220000D03*
X182880000Y-106680000D03*
X182880000Y-104140000D03*
X182880000Y-101600000D03*
X182880000Y-99060000D03*
D19*
X182880000Y-96520000D03*
%TD*%
D18*
%TO.C,J7*%
X200660000Y-116840000D03*
X200660000Y-114300000D03*
X200660000Y-111760000D03*
X200660000Y-109220000D03*
X200660000Y-106680000D03*
X200660000Y-104140000D03*
X200660000Y-101600000D03*
X200660000Y-99060000D03*
D19*
X200660000Y-96520000D03*
%TD*%
D18*
%TO.C,J5*%
X61144000Y-96774000D03*
X63684000Y-96774000D03*
X66224000Y-96774000D03*
D19*
X68764000Y-96774000D03*
%TD*%
D18*
%TO.C,J4*%
X73844000Y-96774000D03*
X76384000Y-96774000D03*
X78924000Y-96774000D03*
D19*
X81464000Y-96774000D03*
%TD*%
D18*
%TO.C,J3*%
X48260000Y-71120000D03*
X48260000Y-73660000D03*
X50800000Y-71120000D03*
X50800000Y-73660000D03*
X53340000Y-71120000D03*
X53340000Y-73660000D03*
X55880000Y-71120000D03*
X55880000Y-73660000D03*
X58420000Y-71120000D03*
X58420000Y-73660000D03*
X60960000Y-71120000D03*
X60960000Y-73660000D03*
X63500000Y-71120000D03*
X63500000Y-73660000D03*
X66040000Y-71120000D03*
D19*
X66040000Y-73660000D03*
%TD*%
D18*
%TO.C,J2*%
X33204000Y-96774000D03*
X35744000Y-96774000D03*
X38284000Y-96774000D03*
D19*
X40824000Y-96774000D03*
%TD*%
D18*
%TO.C,J1*%
X45904000Y-96774000D03*
X48444000Y-96774000D03*
X50984000Y-96774000D03*
D19*
X53524000Y-96774000D03*
%TD*%
D18*
%TO.C,J14*%
X137160000Y-121920000D03*
X139700000Y-121920000D03*
X142240000Y-121920000D03*
D19*
X144780000Y-121920000D03*
%TD*%
D18*
%TO.C,J15*%
X154940000Y-121920000D03*
X157480000Y-121920000D03*
X160020000Y-121920000D03*
D19*
X162560000Y-121920000D03*
%TD*%
D18*
%TO.C,J16*%
X172720000Y-121920000D03*
X175260000Y-121920000D03*
X177800000Y-121920000D03*
D19*
X180340000Y-121920000D03*
%TD*%
D18*
%TO.C,J17*%
X266700000Y-99060000D03*
X266700000Y-96520000D03*
X264160000Y-99060000D03*
X264160000Y-96520000D03*
X261620000Y-99060000D03*
X261620000Y-96520000D03*
X259080000Y-99060000D03*
D19*
X259080000Y-96520000D03*
%TD*%
D18*
%TO.C,J18*%
X259080000Y-109220000D03*
X259080000Y-111760000D03*
X261620000Y-109220000D03*
X261620000Y-111760000D03*
X264160000Y-109220000D03*
X264160000Y-111760000D03*
X266700000Y-109220000D03*
D19*
X266700000Y-111760000D03*
%TD*%
D18*
%TO.C,J20*%
X249766666Y-99060000D03*
X249766666Y-96520000D03*
X247226666Y-99060000D03*
X247226666Y-96520000D03*
X244686666Y-99060000D03*
X244686666Y-96520000D03*
X242146666Y-99060000D03*
D19*
X242146666Y-96520000D03*
%TD*%
D18*
%TO.C,J21*%
X242146666Y-109220000D03*
X242146666Y-111760000D03*
X244686666Y-109220000D03*
X244686666Y-111760000D03*
X247226666Y-109220000D03*
X247226666Y-111760000D03*
X249766666Y-109220000D03*
D19*
X249766666Y-111760000D03*
%TD*%
D18*
%TO.C,J23*%
X225213333Y-109220000D03*
X225213333Y-111760000D03*
X227753333Y-109220000D03*
X227753333Y-111760000D03*
X230293333Y-109220000D03*
X230293333Y-111760000D03*
X232833333Y-109220000D03*
D19*
X232833333Y-111760000D03*
%TD*%
D18*
%TO.C,J24*%
X215900000Y-99060000D03*
X215900000Y-96520000D03*
X213360000Y-99060000D03*
X213360000Y-96520000D03*
X210820000Y-99060000D03*
X210820000Y-96520000D03*
X208280000Y-99060000D03*
D19*
X208280000Y-96520000D03*
%TD*%
D18*
%TO.C,J25*%
X208280000Y-109220000D03*
X208280000Y-111760000D03*
X210820000Y-109220000D03*
X210820000Y-111760000D03*
X213360000Y-109220000D03*
X213360000Y-111760000D03*
X215900000Y-109220000D03*
D19*
X215900000Y-111760000D03*
%TD*%
%TO.C,R1*%
G36*
G01*
X81013998Y-101896500D02*
X81914002Y-101896500D01*
G75*
G02*
X82164000Y-102146498I0J-249998D01*
G01*
X82164000Y-102671502D01*
G75*
G02*
X81914002Y-102921500I-249998J0D01*
G01*
X81013998Y-102921500D01*
G75*
G02*
X80764000Y-102671502I0J249998D01*
G01*
X80764000Y-102146498D01*
G75*
G02*
X81013998Y-101896500I249998J0D01*
G01*
G37*
G36*
G01*
X81013998Y-100071500D02*
X81914002Y-100071500D01*
G75*
G02*
X82164000Y-100321498I0J-249998D01*
G01*
X82164000Y-100846502D01*
G75*
G02*
X81914002Y-101096500I-249998J0D01*
G01*
X81013998Y-101096500D01*
G75*
G02*
X80764000Y-100846502I0J249998D01*
G01*
X80764000Y-100321498D01*
G75*
G02*
X81013998Y-100071500I249998J0D01*
G01*
G37*
%TD*%
%TO.C,R2*%
G36*
G01*
X78473998Y-101896500D02*
X79374002Y-101896500D01*
G75*
G02*
X79624000Y-102146498I0J-249998D01*
G01*
X79624000Y-102671502D01*
G75*
G02*
X79374002Y-102921500I-249998J0D01*
G01*
X78473998Y-102921500D01*
G75*
G02*
X78224000Y-102671502I0J249998D01*
G01*
X78224000Y-102146498D01*
G75*
G02*
X78473998Y-101896500I249998J0D01*
G01*
G37*
G36*
G01*
X78473998Y-100071500D02*
X79374002Y-100071500D01*
G75*
G02*
X79624000Y-100321498I0J-249998D01*
G01*
X79624000Y-100846502D01*
G75*
G02*
X79374002Y-101096500I-249998J0D01*
G01*
X78473998Y-101096500D01*
G75*
G02*
X78224000Y-100846502I0J249998D01*
G01*
X78224000Y-100321498D01*
G75*
G02*
X78473998Y-100071500I249998J0D01*
G01*
G37*
%TD*%
%TO.C,R3*%
G36*
G01*
X75933998Y-101896500D02*
X76834002Y-101896500D01*
G75*
G02*
X77084000Y-102146498I0J-249998D01*
G01*
X77084000Y-102671502D01*
G75*
G02*
X76834002Y-102921500I-249998J0D01*
G01*
X75933998Y-102921500D01*
G75*
G02*
X75684000Y-102671502I0J249998D01*
G01*
X75684000Y-102146498D01*
G75*
G02*
X75933998Y-101896500I249998J0D01*
G01*
G37*
G36*
G01*
X75933998Y-100071500D02*
X76834002Y-100071500D01*
G75*
G02*
X77084000Y-100321498I0J-249998D01*
G01*
X77084000Y-100846502D01*
G75*
G02*
X76834002Y-101096500I-249998J0D01*
G01*
X75933998Y-101096500D01*
G75*
G02*
X75684000Y-100846502I0J249998D01*
G01*
X75684000Y-100321498D01*
G75*
G02*
X75933998Y-100071500I249998J0D01*
G01*
G37*
%TD*%
%TO.C,R5*%
G36*
G01*
X68313998Y-101896500D02*
X69214002Y-101896500D01*
G75*
G02*
X69464000Y-102146498I0J-249998D01*
G01*
X69464000Y-102671502D01*
G75*
G02*
X69214002Y-102921500I-249998J0D01*
G01*
X68313998Y-102921500D01*
G75*
G02*
X68064000Y-102671502I0J249998D01*
G01*
X68064000Y-102146498D01*
G75*
G02*
X68313998Y-101896500I249998J0D01*
G01*
G37*
G36*
G01*
X68313998Y-100071500D02*
X69214002Y-100071500D01*
G75*
G02*
X69464000Y-100321498I0J-249998D01*
G01*
X69464000Y-100846502D01*
G75*
G02*
X69214002Y-101096500I-249998J0D01*
G01*
X68313998Y-101096500D01*
G75*
G02*
X68064000Y-100846502I0J249998D01*
G01*
X68064000Y-100321498D01*
G75*
G02*
X68313998Y-100071500I249998J0D01*
G01*
G37*
%TD*%
%TO.C,R6*%
G36*
G01*
X65773998Y-101896500D02*
X66674002Y-101896500D01*
G75*
G02*
X66924000Y-102146498I0J-249998D01*
G01*
X66924000Y-102671502D01*
G75*
G02*
X66674002Y-102921500I-249998J0D01*
G01*
X65773998Y-102921500D01*
G75*
G02*
X65524000Y-102671502I0J249998D01*
G01*
X65524000Y-102146498D01*
G75*
G02*
X65773998Y-101896500I249998J0D01*
G01*
G37*
G36*
G01*
X65773998Y-100071500D02*
X66674002Y-100071500D01*
G75*
G02*
X66924000Y-100321498I0J-249998D01*
G01*
X66924000Y-100846502D01*
G75*
G02*
X66674002Y-101096500I-249998J0D01*
G01*
X65773998Y-101096500D01*
G75*
G02*
X65524000Y-100846502I0J249998D01*
G01*
X65524000Y-100321498D01*
G75*
G02*
X65773998Y-100071500I249998J0D01*
G01*
G37*
%TD*%
%TO.C,R7*%
G36*
G01*
X63233998Y-101896500D02*
X64134002Y-101896500D01*
G75*
G02*
X64384000Y-102146498I0J-249998D01*
G01*
X64384000Y-102671502D01*
G75*
G02*
X64134002Y-102921500I-249998J0D01*
G01*
X63233998Y-102921500D01*
G75*
G02*
X62984000Y-102671502I0J249998D01*
G01*
X62984000Y-102146498D01*
G75*
G02*
X63233998Y-101896500I249998J0D01*
G01*
G37*
G36*
G01*
X63233998Y-100071500D02*
X64134002Y-100071500D01*
G75*
G02*
X64384000Y-100321498I0J-249998D01*
G01*
X64384000Y-100846502D01*
G75*
G02*
X64134002Y-101096500I-249998J0D01*
G01*
X63233998Y-101096500D01*
G75*
G02*
X62984000Y-100846502I0J249998D01*
G01*
X62984000Y-100321498D01*
G75*
G02*
X63233998Y-100071500I249998J0D01*
G01*
G37*
%TD*%
%TO.C,R8*%
G36*
G01*
X60693998Y-101896500D02*
X61594002Y-101896500D01*
G75*
G02*
X61844000Y-102146498I0J-249998D01*
G01*
X61844000Y-102671502D01*
G75*
G02*
X61594002Y-102921500I-249998J0D01*
G01*
X60693998Y-102921500D01*
G75*
G02*
X60444000Y-102671502I0J249998D01*
G01*
X60444000Y-102146498D01*
G75*
G02*
X60693998Y-101896500I249998J0D01*
G01*
G37*
G36*
G01*
X60693998Y-100071500D02*
X61594002Y-100071500D01*
G75*
G02*
X61844000Y-100321498I0J-249998D01*
G01*
X61844000Y-100846502D01*
G75*
G02*
X61594002Y-101096500I-249998J0D01*
G01*
X60693998Y-101096500D01*
G75*
G02*
X60444000Y-100846502I0J249998D01*
G01*
X60444000Y-100321498D01*
G75*
G02*
X60693998Y-100071500I249998J0D01*
G01*
G37*
%TD*%
%TO.C,R9*%
G36*
G01*
X53073998Y-101896500D02*
X53974002Y-101896500D01*
G75*
G02*
X54224000Y-102146498I0J-249998D01*
G01*
X54224000Y-102671502D01*
G75*
G02*
X53974002Y-102921500I-249998J0D01*
G01*
X53073998Y-102921500D01*
G75*
G02*
X52824000Y-102671502I0J249998D01*
G01*
X52824000Y-102146498D01*
G75*
G02*
X53073998Y-101896500I249998J0D01*
G01*
G37*
G36*
G01*
X53073998Y-100071500D02*
X53974002Y-100071500D01*
G75*
G02*
X54224000Y-100321498I0J-249998D01*
G01*
X54224000Y-100846502D01*
G75*
G02*
X53974002Y-101096500I-249998J0D01*
G01*
X53073998Y-101096500D01*
G75*
G02*
X52824000Y-100846502I0J249998D01*
G01*
X52824000Y-100321498D01*
G75*
G02*
X53073998Y-100071500I249998J0D01*
G01*
G37*
%TD*%
%TO.C,R10*%
G36*
G01*
X50533998Y-101896500D02*
X51434002Y-101896500D01*
G75*
G02*
X51684000Y-102146498I0J-249998D01*
G01*
X51684000Y-102671502D01*
G75*
G02*
X51434002Y-102921500I-249998J0D01*
G01*
X50533998Y-102921500D01*
G75*
G02*
X50284000Y-102671502I0J249998D01*
G01*
X50284000Y-102146498D01*
G75*
G02*
X50533998Y-101896500I249998J0D01*
G01*
G37*
G36*
G01*
X50533998Y-100071500D02*
X51434002Y-100071500D01*
G75*
G02*
X51684000Y-100321498I0J-249998D01*
G01*
X51684000Y-100846502D01*
G75*
G02*
X51434002Y-101096500I-249998J0D01*
G01*
X50533998Y-101096500D01*
G75*
G02*
X50284000Y-100846502I0J249998D01*
G01*
X50284000Y-100321498D01*
G75*
G02*
X50533998Y-100071500I249998J0D01*
G01*
G37*
%TD*%
%TO.C,R11*%
G36*
G01*
X47993998Y-101896500D02*
X48894002Y-101896500D01*
G75*
G02*
X49144000Y-102146498I0J-249998D01*
G01*
X49144000Y-102671502D01*
G75*
G02*
X48894002Y-102921500I-249998J0D01*
G01*
X47993998Y-102921500D01*
G75*
G02*
X47744000Y-102671502I0J249998D01*
G01*
X47744000Y-102146498D01*
G75*
G02*
X47993998Y-101896500I249998J0D01*
G01*
G37*
G36*
G01*
X47993998Y-100071500D02*
X48894002Y-100071500D01*
G75*
G02*
X49144000Y-100321498I0J-249998D01*
G01*
X49144000Y-100846502D01*
G75*
G02*
X48894002Y-101096500I-249998J0D01*
G01*
X47993998Y-101096500D01*
G75*
G02*
X47744000Y-100846502I0J249998D01*
G01*
X47744000Y-100321498D01*
G75*
G02*
X47993998Y-100071500I249998J0D01*
G01*
G37*
%TD*%
%TO.C,R12*%
G36*
G01*
X45453998Y-101896500D02*
X46354002Y-101896500D01*
G75*
G02*
X46604000Y-102146498I0J-249998D01*
G01*
X46604000Y-102671502D01*
G75*
G02*
X46354002Y-102921500I-249998J0D01*
G01*
X45453998Y-102921500D01*
G75*
G02*
X45204000Y-102671502I0J249998D01*
G01*
X45204000Y-102146498D01*
G75*
G02*
X45453998Y-101896500I249998J0D01*
G01*
G37*
G36*
G01*
X45453998Y-100071500D02*
X46354002Y-100071500D01*
G75*
G02*
X46604000Y-100321498I0J-249998D01*
G01*
X46604000Y-100846502D01*
G75*
G02*
X46354002Y-101096500I-249998J0D01*
G01*
X45453998Y-101096500D01*
G75*
G02*
X45204000Y-100846502I0J249998D01*
G01*
X45204000Y-100321498D01*
G75*
G02*
X45453998Y-100071500I249998J0D01*
G01*
G37*
%TD*%
%TO.C,R13*%
G36*
G01*
X40373998Y-101896500D02*
X41274002Y-101896500D01*
G75*
G02*
X41524000Y-102146498I0J-249998D01*
G01*
X41524000Y-102671502D01*
G75*
G02*
X41274002Y-102921500I-249998J0D01*
G01*
X40373998Y-102921500D01*
G75*
G02*
X40124000Y-102671502I0J249998D01*
G01*
X40124000Y-102146498D01*
G75*
G02*
X40373998Y-101896500I249998J0D01*
G01*
G37*
G36*
G01*
X40373998Y-100071500D02*
X41274002Y-100071500D01*
G75*
G02*
X41524000Y-100321498I0J-249998D01*
G01*
X41524000Y-100846502D01*
G75*
G02*
X41274002Y-101096500I-249998J0D01*
G01*
X40373998Y-101096500D01*
G75*
G02*
X40124000Y-100846502I0J249998D01*
G01*
X40124000Y-100321498D01*
G75*
G02*
X40373998Y-100071500I249998J0D01*
G01*
G37*
%TD*%
%TO.C,R14*%
G36*
G01*
X37833998Y-101896500D02*
X38734002Y-101896500D01*
G75*
G02*
X38984000Y-102146498I0J-249998D01*
G01*
X38984000Y-102671502D01*
G75*
G02*
X38734002Y-102921500I-249998J0D01*
G01*
X37833998Y-102921500D01*
G75*
G02*
X37584000Y-102671502I0J249998D01*
G01*
X37584000Y-102146498D01*
G75*
G02*
X37833998Y-101896500I249998J0D01*
G01*
G37*
G36*
G01*
X37833998Y-100071500D02*
X38734002Y-100071500D01*
G75*
G02*
X38984000Y-100321498I0J-249998D01*
G01*
X38984000Y-100846502D01*
G75*
G02*
X38734002Y-101096500I-249998J0D01*
G01*
X37833998Y-101096500D01*
G75*
G02*
X37584000Y-100846502I0J249998D01*
G01*
X37584000Y-100321498D01*
G75*
G02*
X37833998Y-100071500I249998J0D01*
G01*
G37*
%TD*%
D18*
%TO.C,J26*%
X104260000Y-77480000D03*
X104260000Y-80020000D03*
X104260000Y-82560000D03*
X104260000Y-85100000D03*
X104260000Y-87640000D03*
X104260000Y-90180000D03*
X104260000Y-92720000D03*
X104260000Y-95260000D03*
X104260000Y-97800000D03*
D19*
X104260000Y-100340000D03*
%TD*%
D18*
%TO.C,J31*%
X129640000Y-77480000D03*
X129640000Y-80020000D03*
X129640000Y-82560000D03*
X129640000Y-85100000D03*
X129640000Y-87640000D03*
X129640000Y-90180000D03*
X129640000Y-92720000D03*
X129640000Y-95260000D03*
X129640000Y-97800000D03*
D19*
X129640000Y-100340000D03*
%TD*%
D16*
%TO.C,Q1*%
X95920000Y-90131500D03*
D17*
X93640000Y-83731500D03*
D16*
X91360000Y-90131500D03*
%TD*%
%TO.C,Q2*%
X89096500Y-55449000D03*
D17*
X91376500Y-61849000D03*
D16*
X93656500Y-55449000D03*
%TD*%
%TO.C,Q3*%
X86204500Y-90131500D03*
D17*
X83924500Y-83731500D03*
D16*
X81644500Y-90131500D03*
%TD*%
%TO.C,Q4*%
X78189830Y-55322000D03*
D17*
X80469830Y-61722000D03*
D16*
X82749830Y-55322000D03*
%TD*%
%TO.C,Q6*%
X67283164Y-55131500D03*
D17*
X69563164Y-61531500D03*
D16*
X71843164Y-55131500D03*
%TD*%
%TO.C,Q7*%
X66773500Y-90131500D03*
D17*
X64493500Y-83731500D03*
D16*
X62213500Y-90131500D03*
%TD*%
%TO.C,Q8*%
X56376498Y-55195000D03*
D17*
X58656498Y-61595000D03*
D16*
X60936498Y-55195000D03*
%TD*%
%TO.C,Q9*%
X57058000Y-90131500D03*
D17*
X54778000Y-83731500D03*
D16*
X52498000Y-90131500D03*
%TD*%
%TO.C,Q10*%
X45469832Y-55220000D03*
D17*
X47749832Y-61620000D03*
D16*
X50029832Y-55220000D03*
%TD*%
%TO.C,Q11*%
X39323166Y-90068000D03*
D17*
X37043166Y-83668000D03*
D16*
X34763166Y-90068000D03*
%TD*%
%TO.C,Q12*%
X34563166Y-55195000D03*
D17*
X36843166Y-61595000D03*
D16*
X39123166Y-55195000D03*
%TD*%
%TO.C,Q13*%
X28480000Y-90068000D03*
D17*
X26200000Y-83668000D03*
D16*
X23920000Y-90068000D03*
%TD*%
%TO.C,Q14*%
X23656500Y-55195000D03*
D17*
X25936500Y-61595000D03*
D16*
X28216500Y-55195000D03*
%TD*%
D22*
%TO.C,Q15*%
X31362399Y-108643801D03*
D23*
X37762399Y-110923801D03*
D22*
X31362399Y-113203801D03*
%TD*%
%TO.C,R15*%
G36*
G01*
X32747798Y-100071500D02*
X33647802Y-100071500D01*
G75*
G02*
X33897800Y-100321498I0J-249998D01*
G01*
X33897800Y-100846502D01*
G75*
G02*
X33647802Y-101096500I-249998J0D01*
G01*
X32747798Y-101096500D01*
G75*
G02*
X32497800Y-100846502I0J249998D01*
G01*
X32497800Y-100321498D01*
G75*
G02*
X32747798Y-100071500I249998J0D01*
G01*
G37*
G36*
G01*
X32747798Y-101896500D02*
X33647802Y-101896500D01*
G75*
G02*
X33897800Y-102146498I0J-249998D01*
G01*
X33897800Y-102671502D01*
G75*
G02*
X33647802Y-102921500I-249998J0D01*
G01*
X32747798Y-102921500D01*
G75*
G02*
X32497800Y-102671502I0J249998D01*
G01*
X32497800Y-102146498D01*
G75*
G02*
X32747798Y-101896500I249998J0D01*
G01*
G37*
%TD*%
D19*
%TO.C,J32*%
X208534000Y-121920000D03*
D18*
X211074000Y-121920000D03*
X213614000Y-121920000D03*
X216154000Y-121920000D03*
%TD*%
M02*
